<svg width="205" height="100" viewBox="0 0 205 100" fill="none" xmlns="http://www.w3.org/2000/svg">
<path d="M4.57422 74.7695V60.3164L33.1875 15.2969H56.7227V60.2188H64.9258V74.7695H56.7227V86H38.9492V74.7695H4.57422ZM22.9336 60.2188H39.3398V34.6328H38.7539L22.9336 59.7305V60.2188ZM102.5 86.9766C83.457 86.9766 71.6895 73.8418 71.6406 50.6484C71.6895 27.4062 83.457 14.3203 102.5 14.3203C121.543 14.3203 133.359 27.5039 133.359 50.6484C133.359 73.9395 121.543 86.9766 102.5 86.9766ZM90.8789 50.6484C90.8301 65.6387 95.6641 71.9863 102.5 72.0352C109.336 71.9863 114.17 65.6387 114.121 50.6484C114.072 35.9512 109.336 29.3105 102.5 29.2617C95.6641 29.3105 90.9766 35.9512 90.8789 50.6484ZM140.758 74.7695V60.3164L169.371 15.2969H192.906V60.2188H201.109V74.7695H192.906V86H175.133V74.7695H140.758ZM159.117 60.2188H175.523V34.6328H174.938L159.117 59.7305V60.2188Z" fill="#FFC700"/>
<path d="M88.6022 28.5132C88.9464 28.2266 90.2102 27.0982 91.6985 25.7615C89.099 20.3052 85.187 16.9024 81.1404 17.2972C74.8041 17.9215 70.559 27.6079 71.6682 38.9408C72.7775 50.2738 78.812 58.9603 85.1483 58.336C91.4846 57.7118 95.7297 48.0254 94.6205 36.6924C94.5061 35.497 94.3174 34.3342 94.0956 33.1981C91.6886 32.9195 89.0759 32.5784 88.1855 32.3008C86.3959 31.7346 86.7382 30.0523 88.5933 28.5021L88.6022 28.5132Z" fill="white" stroke="#141414" stroke-width="2" stroke-miterlimit="10" stroke-linecap="round"/>
<path d="M119.353 10.3164C116.606 9.91033 113.847 11.1208 111.49 13.4868C112.672 14.908 114.211 16.7719 115.261 18.1081C117.173 20.5481 114.701 20.4041 113.835 20.3718C113.291 20.3538 109.863 19.9758 107.375 19.6986C106.377 21.9373 105.62 24.4649 105.215 27.2022C103.689 37.4635 107.539 46.5324 113.818 47.4694C120.098 48.4064 126.421 40.844 127.957 30.5837C129.483 20.3223 125.633 11.2534 119.353 10.3164Z" fill="white" stroke="#141414" stroke-width="2" stroke-miterlimit="10" stroke-linecap="round"/>
<path d="M103.353 52.1707C104.595 51.6265 108.137 52.0674 108.244 54.5562C108.351 57.0451 106.453 57.9637 105.224 58.7622" stroke="#141414" stroke-width="2" stroke-miterlimit="10" stroke-linecap="round"/>
<path d="M88.6017 28.5132C88.9117 28.2633 90.4332 26.8998 91.698 25.7614C90.4156 23.9553 88.6666 23.2924 86.8811 23.5355C83.3721 24.0083 81.0963 30.3265 81.8364 37.9392C82.5765 45.5518 86.0392 51.4445 89.5753 51.096C90.7806 50.9827 92.5277 50.2501 93.3698 48.9046C94.9934 46.3083 95.1138 41.7001 94.62 36.6924C94.4977 35.476 94.3091 34.3131 94.0551 33.1938C91.6581 32.9162 89.0754 32.5784 88.185 32.3008C86.3954 31.7345 87.1659 29.6432 88.5928 28.5021L88.6017 28.5132Z" fill="#141414"/>
<path d="M114.416 13.1739C113.431 13.0277 112.841 13.1565 111.88 13.6297C112.909 14.8727 114.425 17.0477 115.252 18.1071C117.164 20.5471 114.692 20.4031 113.826 20.3708C113.292 20.3539 109.984 19.9887 107.516 19.7137C106.454 21.7839 105.64 24.2851 105.233 27.0423C104.05 34.9542 105.807 42.9794 110.128 43.615C114.447 44.2606 119.686 37.2796 120.869 29.3678C122.051 21.4559 118.737 13.8096 114.416 13.1739Z" fill="#141414"/>
<path d="M135.865 80.0001C138.935 80.0001 141.238 76.5872 140.982 74.0276" stroke="#141414" stroke-linecap="round"/>
<path d="M63.7148 74.8807C71.1344 68.6949 74.7162 64.8554 82.6474 65.9219C89.3857 66.828 92.3982 72.5988 95.1839 74.8807C98.3815 77.5 103.883 79.3601 108.744 74.8807C113.605 70.4013 115.907 67.6284 118.978 65.9219C122.048 64.2155 127.42 61.8692 131.514 67.8417C134.789 72.6197 135.778 75.6628 135.863 76.5871" stroke="#141414" stroke-width="2" stroke-linecap="round"/>
<path d="M60.6449 72.7476C59.8773 74.2407 59.1098 77.0136 62.6916 79.5733" stroke="#141414" stroke-linecap="round"/>
</svg>
