<svg width="95" height="104" viewBox="0 0 95 104" fill="none" xmlns="http://www.w3.org/2000/svg">
<g clip-path="url(#clip0_237_3542)">
<path d="M40.7707 93.0208C41.513 93.0208 42.2334 92.6129 42.5882 91.906C49.4324 78.3874 52.7289 64.5696 52.8654 63.9932C53.1219 62.9002 52.4451 61.8126 51.3481 61.557C50.2565 61.296 49.1595 61.9758 48.8975 63.0688C48.8647 63.2047 45.5682 77.0116 38.9478 90.0843C38.4402 91.0849 38.8441 92.303 39.8483 92.8087C40.143 92.9555 40.4541 93.0262 40.7652 93.0262L40.7707 93.0208Z" fill="#141414"/>
<path d="M42.9105 91.6177C42.3974 91.4056 40.127 91.3132 39.5975 88.8443C39.0627 86.3755 36.4865 87.7731 36.7267 89.7851C36.9668 91.8026 38.9371 94.6575 41.1421 94.8424C43.3471 95.0272 43.9475 92.0418 42.9159 91.6177H42.9105Z" fill="#CE4730"/>
<path d="M41.104 95.261C38.7789 95.0652 36.5794 92.1288 36.3065 89.8285C36.1373 88.4147 37.1034 87.2836 38.1131 87.115C38.839 86.9954 39.7177 87.3597 40.0179 88.7464C40.4108 90.5572 41.8081 90.8944 42.6431 91.0956C42.8341 91.1391 42.9815 91.1826 43.0797 91.2206C43.7019 91.4816 43.9803 92.3136 43.7511 93.249C43.5 94.2767 42.6595 95.2664 41.3387 95.2664C41.2623 95.2664 41.1859 95.2664 41.1094 95.2556L41.104 95.261ZM42.7523 92.0037C42.6813 91.9765 42.5776 91.9493 42.4412 91.9167C41.617 91.7155 39.6904 91.2478 39.1828 88.9258C39.0955 88.518 38.8663 87.8437 38.2495 87.9524C37.7092 88.0449 37.0324 88.7627 37.147 89.7306C37.3599 91.498 39.1446 94.2495 41.1749 94.4181C42.1956 94.5106 42.7523 93.7384 42.9215 93.0532C43.0525 92.5203 42.9378 92.0798 42.7468 92.0037H42.7523Z" fill="#141414"/>
<path d="M29.1777 79.2845C29.1777 79.2845 34.5592 78.5667 36.3658 83.6348C37.8612 87.8383 35.6071 89.8123 37.4028 91.7971C38.478 92.9826 41.1251 93.1783 41.7636 94.8043C42.1893 95.8919 41.1742 98.116 40.1754 99.8942L33.6587 88.8606L29.1777 79.279V79.2845Z" fill="#CE4730"/>
<path d="M39.8095 100.112L33.2765 89.0456L28.7955 79.464C28.7409 79.3443 28.7409 79.2029 28.8064 79.0833C28.8719 78.9637 28.9865 78.8875 29.123 78.8658C29.1776 78.8549 34.8702 78.1643 36.764 83.4935C37.5445 85.6795 37.348 87.2891 37.1952 88.5833C37.0479 89.8341 36.9441 90.6606 37.7192 91.5144C38.1121 91.9494 38.7889 92.2485 39.5039 92.5639C40.5955 93.0479 41.7253 93.5481 42.1619 94.652C42.5603 95.6744 42.0364 97.4526 40.5518 100.101C40.4754 100.231 40.339 100.313 40.1861 100.318C40.0333 100.318 39.8969 100.237 39.8205 100.112H39.8095ZM29.8271 79.6652L34.0242 88.6486L40.1588 99.035C41.5997 96.2943 41.4906 95.2774 41.365 94.9566C41.0594 94.1789 40.137 93.7657 39.1546 93.3361C38.3905 92.9989 37.5936 92.6455 37.0806 92.0799C36.0545 90.9434 36.191 89.8014 36.3492 88.48C36.5021 87.213 36.6767 85.7719 35.9617 83.7708C34.6518 80.0839 31.3498 79.6652 29.9144 79.6652C29.8816 79.6652 29.8544 79.6652 29.8216 79.6652H29.8271Z" fill="#141414"/>
<path d="M37.3151 102.368C37.3151 102.368 40.115 101.917 40.2623 99.1438C40.4151 96.3759 37.8608 95.5167 36.1143 92.9881C34.3733 90.4594 34.2968 87.4142 33.6965 83.9394C32.9924 79.861 27.5836 76.223 24.0742 83.3521L37.3096 102.368H37.3151Z" fill="#CE4730"/>
<path d="M36.6227 102.624L23.8294 83.9884C23.7475 83.8742 23.7311 83.7219 23.7857 83.5914C25.5595 79.1595 28.0101 78.7245 29.32 78.8604C31.5687 79.0943 33.6809 81.2912 34.123 83.8633C34.2485 84.5974 34.3522 85.3152 34.4559 86.0113C34.8325 88.5943 35.1545 90.8238 36.4753 92.7434C37.0648 93.5972 37.747 94.2552 38.4129 94.886C39.6463 96.0606 40.8089 97.1753 40.6997 99.1602C40.5633 101.624 38.2491 102.619 37.0484 102.798C37.0265 102.798 37.0047 102.798 36.9829 102.798C36.8464 102.798 36.71 102.727 36.6336 102.613L36.6227 102.624ZM24.6535 83.7002L37.1575 101.912C37.8507 101.738 39.7282 101.085 39.8374 99.1167C39.9247 97.5179 38.9914 96.6261 37.8125 95.495C37.1521 94.8642 36.4043 94.1464 35.7658 93.222C34.3358 91.1447 33.981 88.7085 33.6099 86.1364C33.5117 85.4457 33.408 84.7388 33.2824 84.0101C32.9058 81.8295 31.0884 79.8991 29.2272 79.7088C29.1235 79.6979 29.0144 79.6924 28.9107 79.6924C27.2406 79.6924 25.7396 81.1009 24.6535 83.7002Z" fill="#141414"/>
<path d="M37.0218 97.2785C37.0218 97.2785 32.5954 92.1669 32.6773 87.86C32.7592 83.5532 28.955 79.7195 25.3474 82.3786C21.7452 85.0378 25.26 93.2164 29.0478 98.6053C33.6488 105.147 41.4099 102.803 37.0218 97.2785Z" fill="#878787"/>
<path d="M28.703 98.8446C25.5866 94.4127 20.8218 85.19 25.0953 82.036C26.569 80.9485 28.2118 80.7799 29.7291 81.5521C31.7649 82.6016 33.1512 85.1955 33.1021 87.8655C33.0257 91.9602 37.2992 96.9522 37.3428 97.0012C37.3428 97.0012 37.3483 97.012 37.3538 97.0175C38.6145 98.6054 39.0348 100.123 38.5436 101.297C38.1506 102.227 37.2228 102.836 35.9893 102.967C35.831 102.983 35.6673 102.994 35.4981 102.994C33.6042 102.994 30.8698 101.933 28.703 98.8501V98.8446ZM32.2561 87.8492C32.2998 85.4891 31.1045 83.2106 29.3416 82.3025C28.4847 81.862 27.1421 81.5793 25.6029 82.7103C22.5192 84.9834 25.2591 92.466 29.3962 98.3552C31.5466 101.417 34.2428 102.292 35.8965 102.118C36.8134 102.02 37.4902 101.602 37.7576 100.96C38.1233 100.084 37.7467 98.8718 36.6934 97.5395C36.4368 97.2404 32.1688 92.2212 32.2506 87.8437L32.2561 87.8492Z" fill="#141414"/>
<path d="M32.9165 90.2583C33.1511 90.2583 33.3367 90.0735 33.3422 89.8396C33.3422 89.6058 33.1566 89.4155 32.9219 89.4155L24.5331 89.3611C24.2984 89.3611 24.1129 89.546 24.1074 89.7798C24.1074 90.0136 24.293 90.204 24.5277 90.204L32.9165 90.2583Z" fill="#141414"/>
<path d="M25.0624 91.7155L33.3584 91.6502C33.5931 91.6502 33.7787 91.4599 33.7787 91.2261C33.7787 90.9923 33.5877 90.8074 33.353 90.8074L25.057 90.8726C24.8223 90.8726 24.6367 91.063 24.6367 91.2968C24.6367 91.5306 24.8277 91.7155 25.0624 91.7155Z" fill="#141414"/>
<path d="M74.1681 86.0005C75.156 86.0005 76.0183 85.2827 76.1766 84.2821C76.3513 83.1728 75.5926 82.1396 74.4792 81.9655C67.3458 80.8562 63.9509 68.398 63.2414 63.6887C63.0777 62.5794 62.0352 61.8181 60.9273 61.9812C59.8139 62.1444 59.0498 63.1776 59.2135 64.2869C59.3336 65.0972 62.3245 84.1842 73.8515 85.9733C73.9552 85.9896 74.0644 85.995 74.1681 85.995V86.0005Z" fill="#141414"/>
<path d="M77.6058 82.2701C77.6058 82.2701 81.4045 81.9656 82.114 85.2065C82.6653 87.7243 84.1171 95.2504 79.8435 100.166C75.9521 104.642 71.6785 104.201 69.1625 101.76C66.3462 99.0297 68.7149 97.0884 68.7149 97.0884L75.9357 97.5778L78.4845 89.3829L77.6167 82.2646L77.6058 82.2701Z" fill="#CE4730"/>
<path d="M68.8625 102.064C67.82 101.053 67.3124 100.014 67.3561 98.9699C67.4107 97.6159 68.3986 96.7947 68.4368 96.7621C68.5186 96.6914 68.6169 96.6588 68.737 96.6697L75.6248 97.1373L78.0427 89.3502L77.1858 82.319C77.1694 82.2048 77.2076 82.0906 77.2785 81.9982C77.3495 81.9112 77.4587 81.8514 77.5733 81.8459C79.0087 81.7317 81.9068 82.2646 82.529 85.1141C84.3465 93.445 82.2452 98.0455 80.1658 100.444C78.2282 102.673 76.0232 103.897 73.791 103.995C73.6982 103.995 73.6054 104 73.5181 104C71.8043 104 70.1615 103.32 68.8625 102.064ZM78.8995 89.3394C78.905 89.3992 78.8995 89.459 78.8832 89.5134L76.3343 97.7083C76.2743 97.8932 76.1106 98.0237 75.8977 98.0074L68.8625 97.5288C68.6551 97.7464 68.2294 98.2847 68.1966 99.0188C68.1693 99.8073 68.5896 100.628 69.4465 101.46C70.6418 102.619 72.17 103.222 73.7473 103.152C75.7394 103.07 77.7316 101.939 79.5163 99.8943C81.4702 97.6485 83.435 93.2927 81.694 85.299C81.2028 83.0531 79.0305 82.7214 78.0809 82.6888L78.8941 89.3394H78.8995Z" fill="#141414"/>
<path d="M73.4309 82.8737C73.4309 82.8737 78.2993 80.6224 78.6377 82.977C78.785 83.9722 81.0282 92.1997 79.7893 95.3157C78.1628 99.405 73.1907 101.901 70.1725 99.5572C67.1543 97.2081 69.1082 92.6293 71.8863 92.526C71.8863 92.526 72.5794 89.0023 71.9027 86.7346L73.4199 82.8792L73.4309 82.8737Z" fill="#CE4730"/>
<path d="M69.9215 99.889C68.1422 98.5024 68.0058 96.474 68.4751 95.033C68.9827 93.4669 70.1889 92.3467 71.537 92.1346C71.6844 91.2428 72.0391 88.6163 71.5097 86.8489C71.4824 86.7565 71.4879 86.664 71.5206 86.5716L73.0434 82.7161C73.0816 82.6128 73.158 82.5312 73.2617 82.4877C73.6165 82.3246 76.7548 80.9162 78.272 81.7319C78.7141 81.9711 78.9925 82.379 79.0689 82.9119C79.0907 83.0641 79.1835 83.4666 79.3036 83.9723C79.9258 86.6423 81.383 92.8959 80.1878 95.4898C78.9652 98.138 76.7056 100.15 74.2878 100.737C73.8184 100.852 73.3545 100.906 72.9069 100.906C71.8099 100.906 70.7947 100.563 69.9215 99.8836V99.889ZM73.7638 83.1892L72.3612 86.7565C72.9943 89.0948 72.3393 92.4663 72.312 92.6077C72.2738 92.798 72.1101 92.9394 71.9136 92.9503C70.7838 92.9938 69.725 93.9345 69.2829 95.2994C68.7917 96.8112 69.2283 98.2794 70.4454 99.231C71.4551 100.02 72.7159 100.259 74.0859 99.9271C76.2253 99.4105 78.3157 97.5344 79.4127 95.1526C80.488 92.8198 79.0252 86.539 78.474 84.1789C78.343 83.6134 78.2557 83.2382 78.2284 83.0478C78.1902 82.7759 78.0756 82.6019 77.8682 82.4877C77.6717 82.379 77.3988 82.3355 77.0877 82.3355C76.0998 82.3355 74.6917 82.7923 73.7747 83.1947L73.7638 83.1892Z" fill="#141414"/>
<path d="M75.7938 94.0649C75.8975 94.0649 76.0066 94.0269 76.083 93.9507C76.2522 93.7876 76.2631 93.5211 76.0994 93.3526C74.8386 92.0257 71.7986 92.4009 71.4602 92.4499C71.2255 92.4825 71.0672 92.6946 71.1 92.9284C71.1327 93.1568 71.3456 93.3199 71.5803 93.2873C72.3935 93.1731 74.6694 93.0752 75.4881 93.9344C75.57 94.0214 75.6846 94.0649 75.7938 94.0649Z" fill="#141414"/>
<path d="M72.4809 81.2206C72.3772 81.7372 72.6119 83.9558 70.6852 84.7063C68.7586 85.4621 70.2431 87.8331 71.8423 87.4089C73.4415 86.9848 75.4882 84.7987 75.3353 82.6344C75.1825 80.4701 72.6828 80.1765 72.4809 81.2151V81.2206Z" fill="#CE4730"/>
<path d="M69.4417 86.4029C69.147 85.5111 69.5727 84.69 70.5333 84.3148C71.8923 83.7818 71.9796 82.3408 72.0233 81.5686C72.0342 81.3837 72.0451 81.2369 72.0669 81.139C72.1815 80.5463 72.7765 80.1765 73.5133 80.22C74.5503 80.2853 75.6582 81.1227 75.7619 82.6073C75.9202 84.8912 73.8135 87.3274 71.9578 87.8168C71.794 87.8603 71.6303 87.882 71.4666 87.882C70.5333 87.882 69.7037 87.1914 69.4417 86.3975V86.4029ZM72.8965 81.3022C72.8802 81.3728 72.8802 81.4816 72.8692 81.6176C72.8201 82.4387 72.7055 84.3691 70.8389 85.1033C70.1512 85.3697 70.1403 85.8156 70.244 86.1365C70.4241 86.6857 71.0791 87.1751 71.734 87.0011C73.1094 86.6367 75.0524 84.6519 74.9105 82.6671C74.8341 81.623 74.1027 81.1064 73.4587 81.0629C73.4369 81.0629 73.415 81.0629 73.3932 81.0629C73.164 81.0629 72.9293 81.1336 72.8965 81.3022Z" fill="#141414"/>
<path d="M10.5996 41.2574C16.3959 46.0047 26.04 47.9026 27.3662 48.1473C28.4742 48.3485 29.533 47.6198 29.7349 46.5213C29.9369 45.4174 29.2055 44.3625 28.103 44.1558C24.157 43.4272 13.3722 40.4363 10.8234 35.3573C10.3212 34.3567 9.09867 33.9489 8.08896 34.4492C7.08471 34.9495 6.67537 36.1676 7.1775 37.1736C7.95252 38.7234 9.15871 40.0774 10.5996 41.2574Z" fill="#141414"/>
<path d="M10.7301 34.313C10.7301 34.313 11.9963 34.8242 12.3893 35.9009C12.9405 37.4235 9.13093 40.224 7.6573 40.534C6.18367 40.8439 6.02539 38.2337 6.02539 38.2337L10.7355 34.313H10.7301Z" fill="white"/>
<path d="M6.53331 40.5885C6.62609 40.6646 6.72433 40.7299 6.83349 40.7788C7.68492 41.1921 8.69463 40.6755 9.37687 40.2514C10.8942 39.3106 12.6625 38.0164 12.859 36.3741C12.9518 35.602 12.5424 34.8298 11.762 34.2751C11.4618 34.063 10.916 33.7368 10.5667 33.9053C10.4248 33.976 10.3211 34.1337 10.3156 34.2914C10.3047 34.5253 10.4848 34.721 10.7195 34.7319C10.7577 34.7319 10.8014 34.7319 10.8341 34.721C11.1507 34.8406 12.1222 35.4225 12.0185 36.2708C11.8657 37.5542 10.2883 38.6853 8.92932 39.5281C8.13793 40.0175 7.55393 40.1807 7.20463 40.0121C6.82803 39.8272 6.56605 39.1964 6.45144 38.1795C6.42415 37.9457 6.21675 37.7826 5.98206 37.8043C5.74737 37.8315 5.58363 38.0381 5.60547 38.272C5.73646 39.4139 6.0421 40.1752 6.53331 40.5831V40.5885Z" fill="#141414"/>
<path d="M5.68215 29.3484C5.93867 29.3103 6.1952 29.3049 6.44626 29.3103H6.42988L5.90047 27.978C5.19094 24.9981 7.21582 23.6223 8.40018 24.6337C9.58454 25.6452 9.08788 27.2385 10.1303 29.0493C11.1728 30.8601 10.4523 32.1435 10.4523 32.1435C10.3869 31.9151 10.627 32.5296 10.7089 33.1223C11.0527 35.5476 9.36077 37.788 6.92655 38.1306C4.49233 38.4732 2.24368 36.7874 1.89984 34.3621C1.55599 31.9368 3.24794 29.6964 5.68215 29.3538V29.3484Z" fill="white"/>
<path d="M1.47812 34.4164C1.10152 31.7682 2.96266 29.3048 5.62065 28.9296C5.68615 28.9187 5.74618 28.9133 5.81168 28.9078L5.48421 28.0704C4.98208 25.9714 5.7571 24.6499 6.57578 24.1551C7.25256 23.7418 8.04396 23.7908 8.64432 24.2802C8.65524 24.291 8.66615 24.2965 8.67707 24.3074C9.43026 24.9545 9.59945 25.781 9.77411 26.662C9.91601 27.3526 10.0579 28.0704 10.5 28.8317C11.4115 30.4141 11.1058 31.654 10.9203 32.1325C11.0076 32.3555 11.0731 32.6654 11.1331 33.0569C11.3132 34.3403 10.9858 35.6182 10.1998 36.6568C9.41934 37.6955 8.27865 38.3643 6.99058 38.5438C5.70252 38.7232 4.41992 38.397 3.37746 37.6194C3.31742 37.5759 3.26285 37.5323 3.20827 37.4888C2.26405 36.7167 1.65277 35.6345 1.48357 34.4219L1.47812 34.4164ZM10.0415 32.2521C10.0033 32.1053 10.0306 31.9041 10.1398 31.7899C10.2653 31.4419 10.4836 30.5011 9.75773 29.2504C9.25015 28.3695 9.08095 27.5483 8.93905 26.8251C8.78077 26.0312 8.65524 25.4058 8.12037 24.949C8.11491 24.949 8.10945 24.9382 8.10399 24.9327C7.78744 24.6717 7.38355 24.6499 7.01787 24.8729C6.44479 25.2209 5.91538 26.2161 6.29197 27.8148L6.78318 29.0601C6.84868 29.1471 6.88143 29.2613 6.85959 29.3755C6.82685 29.5876 6.64128 29.7398 6.42842 29.7344C6.17736 29.7289 5.95359 29.7344 5.73527 29.767C3.53574 30.077 2.00207 32.1108 2.31317 34.2968C2.46599 35.3572 3.02816 36.3034 3.87959 36.9396C4.73648 37.5813 5.80076 37.8532 6.86505 37.7064C7.92934 37.5595 8.87356 37.0049 9.51759 36.1457C10.1616 35.2919 10.4345 34.2315 10.2871 33.1711C10.2435 32.8503 10.1452 32.524 10.0961 32.3609C10.0743 32.3283 10.0579 32.2902 10.047 32.2467L10.0415 32.2521Z" fill="#141414"/>
<path d="M6.05232 28.424C6.05232 28.424 8.51383 31.3006 7.31309 32.4317C6.25972 33.4214 4.7588 32.7743 3.28517 30.4849C2.01894 28.5219 4.88433 26.5914 6.05232 28.4294V28.424Z" fill="white"/>
<path d="M3.47711 30.4577C3.47711 30.4577 6.33704 32.9374 5.31641 34.237C4.42132 35.3735 2.83853 34.9494 1.04289 32.8993C-0.496237 31.1428 2.04714 28.8154 3.47165 30.4577H3.47711Z" fill="white"/>
<path d="M2.36793 33.6824C2.36793 33.6824 5.29881 34.7265 4.9113 36.0207C4.56745 37.1572 3.23027 37.3041 1.2436 36.2708C-0.464718 35.3845 0.785138 32.8504 2.36793 33.6824Z" fill="white"/>
<path d="M2.92504 30.7131C2.47203 30.0062 2.42291 29.2068 2.78313 28.5108C3.15973 27.7876 3.90746 27.3036 4.6934 27.2655C5.38655 27.2383 5.98692 27.5592 6.3908 28.1736C6.74556 28.5924 9.02696 31.3983 7.60245 32.7415C7.14399 33.1711 6.59274 33.3614 6.00875 33.2907C5.51754 33.2309 5.00995 32.9862 4.50783 32.5729C3.97841 32.1379 3.44354 31.5125 2.9305 30.7077L2.92504 30.7131ZM4.7316 28.1138C4.25131 28.1356 3.77101 28.451 3.53632 28.9023C3.37804 29.2014 3.26889 29.6854 3.64002 30.2564C4.49145 31.5832 5.37017 32.3608 6.11245 32.4533C6.45084 32.4968 6.74556 32.388 7.02391 32.127C7.70615 31.4799 6.44538 29.5386 5.73039 28.7011C5.71948 28.6848 5.7031 28.6685 5.69765 28.6522C5.61032 28.5162 5.51754 28.4183 5.42475 28.3368C5.18461 28.141 4.93354 28.1029 4.73706 28.1084L4.7316 28.1138Z" fill="#141414"/>
<path d="M1.8504 34.2804C2.66908 34.9493 3.44956 35.2919 4.15362 35.2701C4.74308 35.2538 5.26158 34.9873 5.64909 34.4925C5.91652 34.1553 6.14575 33.5517 5.7255 32.611C5.63271 32.3989 5.38165 32.301 5.16333 32.3935C4.95048 32.4859 4.85223 32.736 4.94502 32.9536C5.2452 33.6279 5.04326 33.8889 4.97231 33.9704C4.73762 34.2695 4.45927 34.4164 4.12088 34.4272C3.37315 34.449 2.39073 33.8073 1.35373 32.6164C0.742444 31.9149 1.03171 31.2569 1.18453 31.0068C1.49563 30.5011 2.06871 30.2237 2.55446 30.3434C2.78369 30.3977 3.01293 30.2618 3.0675 30.0334C3.12208 29.805 2.98564 29.5766 2.75641 29.5222C1.91043 29.3102 0.966218 29.7398 0.458634 30.5663C-0.0544073 31.4038 0.0438346 32.4043 0.715155 33.1711C1.09721 33.6061 1.4738 33.9759 1.83948 34.275L1.8504 34.2804Z" fill="#141414"/>
<path d="M0.676749 36.4013C0.785907 36.4938 0.911439 36.5753 1.04789 36.646C2.42873 37.3638 3.57489 37.565 4.36628 37.2279C4.83566 37.0321 5.16313 36.6515 5.31595 36.1403C5.41965 35.8032 5.42511 35.2757 4.86841 34.683C4.71013 34.5198 4.44269 34.5035 4.26804 34.6612C4.09885 34.8189 4.08793 35.0908 4.24621 35.2594C4.5846 35.6183 4.5191 35.8249 4.49727 35.8956C4.4154 36.1729 4.26258 36.3524 4.02789 36.4503C3.49302 36.6732 2.5488 36.472 1.4354 35.8956C0.884149 35.6074 0.835028 35.1669 0.845944 34.9277C0.873233 34.5089 1.14067 34.112 1.48452 33.9815C1.70283 33.8999 1.81745 33.6552 1.73558 33.4377C1.65371 33.2202 1.40811 33.106 1.18979 33.1875C0.523929 33.4322 0.0490922 34.112 -2.87849e-05 34.8733C-0.038234 35.4769 0.207371 36.0207 0.671291 36.4013H0.676749Z" fill="#141414"/>
<path d="M7.39615 35.2321C7.54897 35.3572 7.7782 35.3626 7.93648 35.2321C8.11659 35.0853 8.14388 34.8188 7.99106 34.6394C7.26516 33.7639 7.69088 32.6382 7.70725 32.5947C7.79458 32.3772 7.68542 32.1325 7.4671 32.0455C7.24879 31.9585 7.00318 32.0672 6.91586 32.2793C6.88857 32.3446 6.27728 33.9107 7.33066 35.1777C7.34703 35.1995 7.36886 35.2158 7.39069 35.2375L7.39615 35.2321Z" fill="#141414"/>
<path d="M42.074 1.76751C38.1771 10.4355 17.4971 56.4294 13.6275 65.0376C13.2509 65.875 13.5565 66.8484 14.3316 67.3324C18.1139 69.687 30.2195 75.8699 53.934 76.5279C84.3563 77.3708 93.2963 66.707 94.4425 57.3919C91.4406 49.9256 50.3809 1.37598 44.2463 0.565732C43.3348 0.446098 42.4561 0.93551 42.074 1.77295V1.76751Z" fill="#FFE67D"/>
<path d="M57.3074 77.1205C56.2104 77.1205 55.0806 77.1042 53.9181 77.0715C30.3236 76.4136 18.1744 70.3666 14.0427 67.7945C13.0385 67.1691 12.6455 65.8912 13.1258 64.8145L41.5778 1.54444C42.0581 0.478606 43.1606 -0.135877 44.3176 0.0218221C48.5202 0.576489 65.7508 20.1421 70.9358 26.1238C81.3658 38.1688 93.3295 53.1502 94.9505 57.1905L94.9996 57.3211L94.9832 57.457C94.0663 64.9124 87.8825 77.1205 57.3074 77.1205ZM43.9683 1.08765C43.368 1.08765 42.8276 1.43024 42.5766 1.99034L14.1246 65.2604C13.8572 65.8477 14.07 66.5274 14.6213 66.87C18.6765 69.3932 30.6238 75.3368 53.9454 75.984C55.1024 76.0166 56.2268 76.0329 57.3183 76.0329C86.8455 76.0329 92.942 64.5752 93.8807 57.4679C92.3089 53.8354 82.1626 40.7572 70.1062 26.8361C56.8544 11.5339 46.6755 1.43568 44.1703 1.10397C44.0993 1.09309 44.0338 1.08765 43.9629 1.08765H43.9683Z" fill="#141414"/>
<path d="M42.6149 1.46262L13.5953 64.9665C13.2842 65.668 13.5626 66.4837 14.2557 66.8643C17.4486 68.6208 27.1527 72.2098 41.0976 72.2098C55.8448 72.2098 65.9692 69.9096 69.0638 68.8873C69.6314 68.6969 69.9207 68.1042 69.7133 67.5658L44.1868 1.50069C43.9193 0.81551 42.9151 0.793759 42.6204 1.46806L42.6149 1.46262Z" fill="#FFE67D"/>
<path d="M41.0921 72.7537C27.4746 72.7537 17.6504 69.3496 13.9882 67.3375C13.0494 66.8209 12.6674 65.7062 13.0931 64.7437L42.1181 1.23976C42.3474 0.734033 42.855 0.424072 43.428 0.424072C43.9957 0.440386 44.4923 0.782974 44.6943 1.29958L70.2154 67.3647C70.3682 67.7617 70.3518 68.1859 70.1717 68.5719C69.9861 68.958 69.6423 69.2626 69.2275 69.3985C65.7344 70.5568 55.3535 72.7483 41.0921 72.7483V72.7537ZM43.3953 1.51709C43.3298 1.51709 43.1824 1.53341 43.1169 1.68567L14.0919 65.1896C13.8954 65.63 14.0755 66.1466 14.5176 66.3859C18.0871 68.349 27.7039 71.6661 41.0975 71.6661C55.2171 71.6661 65.4506 69.5127 68.8891 68.3707C69.0255 68.3272 69.1347 68.2348 69.1893 68.1097C69.2439 68.001 69.2439 67.8759 69.2002 67.7563L43.6736 1.69654C43.6136 1.53884 43.4608 1.51709 43.4007 1.51709H43.3953Z" fill="#141414"/>
<path d="M44.1866 1.5007L69.8987 68.126C69.9697 68.3217 70.1389 68.4685 70.3408 68.5175C71.9673 68.8981 80.2742 69.9205 86.3433 66.5055C92.4016 63.1013 93.8698 58.5987 94.1317 57.5873C94.1645 57.4568 94.1536 57.3208 94.1045 57.1958L72.5676 4.80695C72.4803 4.60031 72.2893 4.45348 72.0655 4.4263L44.8525 0.663262C44.3831 0.603445 44.0229 1.06023 44.1866 1.5007Z" fill="#FFE67D"/>
<path d="M75.3889 69.5127C72.9492 69.5127 71.0117 69.2354 70.2094 69.0451C69.8273 68.9581 69.5162 68.6807 69.3798 68.3164L43.6731 1.69113C43.5312 1.30504 43.5967 0.88088 43.8532 0.560044C44.1097 0.239207 44.5082 0.0760699 44.9175 0.125011L72.1414 3.88804C72.5508 3.93699 72.911 4.21432 73.0747 4.60041L94.6116 56.9892C94.7098 57.2231 94.7262 57.4786 94.6607 57.7233C94.4205 58.6478 92.9142 63.4331 86.6103 66.9787C83.0354 68.9853 78.74 69.5127 75.3889 69.5127ZM44.6937 1.31048L70.4004 67.9357C70.4113 67.9684 70.4331 67.9847 70.4604 67.9901C72.1578 68.3871 80.2628 69.3007 86.07 66.0325C91.9863 62.7045 93.3781 58.3052 93.5964 57.4514L72.0596 5.01369C72.0596 5.01369 72.0268 4.97019 71.9941 4.96475L44.7701 1.20172C44.7701 1.20172 44.7319 1.20172 44.7046 1.23434C44.6774 1.26697 44.6883 1.2996 44.6937 1.31048Z" fill="#141414"/>
<path d="M35.144 31.0886C32.9172 30.9798 30.936 34.558 30.7176 39.0823C30.7013 39.376 30.6958 39.6696 30.7013 39.9578L34.9202 40.9693C35.0348 40.9965 35.0621 41.1487 34.9584 41.214L31.1434 43.5251C31.7492 45.8253 32.9281 47.3914 34.3526 47.4621C36.5794 47.5709 38.5606 43.9928 38.7789 39.4684C38.9973 34.9495 37.3708 31.1974 35.144 31.0886Z" fill="black"/>
<path d="M47.5483 31.6867C45.3215 31.578 43.3403 35.1561 43.1219 39.6805C43.1056 39.9741 43.1001 40.2678 43.1056 40.556L47.3245 41.5674C47.4391 41.5946 47.4664 41.7469 47.3627 41.8121L43.5477 44.1232C44.1535 46.4235 45.3324 47.9896 46.7569 48.0603C48.9837 48.169 50.9649 44.5909 51.1832 40.0666C51.4016 35.5422 49.7751 31.7955 47.5483 31.6867Z" fill="black"/>
<path d="M40.1705 51.72C40.1378 51.72 40.105 51.72 40.0723 51.72C39.33 51.6928 38.6805 51.2741 38.3257 50.5998C37.971 49.9146 37.9983 49.1044 38.4022 48.4953C39.4173 46.951 40.8909 47.783 41.5186 48.1364C41.7806 48.2833 41.8734 48.615 41.7205 48.876C41.5732 49.137 41.2403 49.2295 40.9783 49.0772C39.8922 48.4573 39.6247 48.615 39.3136 49.0826C39.128 49.3654 39.1171 49.7515 39.2972 50.0886C39.3791 50.2463 39.6193 50.6052 40.1105 50.6216C41.0219 50.6542 41.6496 49.9201 41.6605 49.9146C41.8515 49.6862 42.1954 49.6536 42.4301 49.8494C42.6593 50.0397 42.6921 50.3823 42.501 50.6107C42.4628 50.6542 41.5732 51.7146 40.1705 51.7146V51.72Z" fill="#141414"/>
<path d="M33.0962 51.2144C32.867 51.2144 32.6214 51.1818 32.3649 51.1056C32.0756 51.0241 31.9064 50.7196 31.9937 50.4313C32.081 50.1431 32.3812 49.98 32.6705 50.0616C33.6093 50.3335 34.2151 49.6972 34.7118 49.0773C34.9028 48.8435 35.2412 48.8054 35.4813 48.9903C35.716 49.1806 35.7542 49.5178 35.5686 49.757C35.2248 50.1866 34.4007 51.2144 33.1071 51.2144H33.0962Z" fill="#141414"/>
<path d="M40.4579 54.8251C40.3488 54.8251 40.2342 54.8251 40.125 54.8251C36.6483 54.7272 34.8418 52.1442 34.0722 51.0403C33.9576 50.8772 33.8703 50.7521 33.8048 50.676C33.6028 50.453 33.6247 50.1104 33.8484 49.9092C34.0722 49.708 34.4161 49.7298 34.618 49.9527C34.7053 50.0506 34.8199 50.2083 34.9618 50.4204C35.6932 51.4699 37.2214 53.656 40.1468 53.7375C42.914 53.8245 45.0808 52.8022 46.5435 50.7249C46.7181 50.4802 47.0565 50.4204 47.3021 50.589C47.5477 50.763 47.6078 51.1001 47.4386 51.3449C45.8121 53.656 43.4652 54.8306 40.4525 54.8306L40.4579 54.8251Z" fill="#141414"/>
<path d="M48.373 52.7151C48.3021 52.7151 48.2311 52.6988 48.1602 52.6716C46.823 52.1115 46.43 51.3339 46.3318 50.7792C46.1953 49.9853 46.5992 49.2947 46.9813 48.9412C47.2051 48.74 47.5489 48.7563 47.7508 48.9793C47.9528 49.2022 47.9364 49.5448 47.7126 49.746C47.5216 49.92 47.3415 50.2572 47.4015 50.5943C47.4725 51.0022 47.8764 51.372 48.575 51.6656C48.8533 51.7798 48.9843 52.1006 48.8642 52.378C48.7769 52.5846 48.575 52.7097 48.3621 52.7097L48.373 52.7151Z" fill="#141414"/>
<path d="M61.7132 13.3991C60.758 11.1315 58.946 9.72309 57.6634 10.256C57.2486 10.43 56.9484 10.7835 56.752 11.2566C56.8229 11.2131 56.8993 11.1696 56.9757 11.1369C58.2529 10.604 60.0649 12.007 61.0255 14.2801C61.675 15.819 61.7568 17.3579 61.353 18.353C62.4336 17.657 62.6083 15.5253 61.7132 13.3937V13.3991Z" fill="#141414"/>
<path d="M61.3521 18.7663C61.2594 18.7663 61.1666 18.7337 61.0902 18.6739C60.9537 18.5597 60.9046 18.3694 60.9701 18.2062C61.3521 17.2709 61.2266 15.8244 60.6481 14.4432C60.2114 13.41 59.5838 12.5345 58.8743 11.9853C58.2302 11.485 57.6135 11.3218 57.1386 11.523C57.0841 11.5448 57.0295 11.5774 56.9749 11.61C56.8221 11.7079 56.6311 11.697 56.4946 11.5829C56.3582 11.4687 56.309 11.2783 56.38 11.1152C56.6201 10.5225 57.0131 10.0983 57.5152 9.89166C58.2739 9.57083 59.1854 9.77747 60.0695 10.4626C60.8882 11.0989 61.6087 12.0886 62.0944 13.2469C63.0605 15.5471 62.8421 17.8908 61.5759 18.7065C61.5104 18.75 61.4285 18.7718 61.3521 18.7718V18.7663ZM57.8263 10.6367C58.3285 10.6965 58.8579 10.9357 59.3818 11.3381C60.2005 11.9744 60.921 12.9641 61.4067 14.1224C61.5977 14.5737 61.7396 15.025 61.8433 15.4655C61.7779 14.8565 61.6087 14.1985 61.3412 13.5514C60.9046 12.5182 60.2769 11.6427 59.5674 11.0934C58.9234 10.5932 58.3066 10.43 57.8318 10.6312L57.8263 10.6367Z" fill="#141414"/>
<path d="M61.03 14.28C60.0748 12.0124 58.2628 10.6039 56.9802 11.1369C56.8983 11.1695 56.8274 11.2076 56.7564 11.2565C56.3471 12.2571 56.4344 13.796 57.0839 15.3295C58.039 17.5971 59.8511 19.0055 61.1337 18.4726C61.2155 18.44 61.2865 18.4019 61.3574 18.353C61.7668 17.3524 61.6795 15.8135 61.03 14.28Z" fill="#DB8B3B"/>
<path d="M60.5499 19.0001C59.169 19.0001 57.5972 17.6189 56.7021 15.4981C56.0307 13.8994 55.9052 12.2571 56.3746 11.1097L56.4237 10.9901L56.5329 10.9194C56.6257 10.8596 56.7184 10.8107 56.8221 10.7672C57.5862 10.4463 58.4923 10.653 59.3764 11.3381C60.1951 11.9744 60.9156 12.9641 61.4013 14.1223C62.0726 15.7211 62.1982 17.3633 61.7288 18.5107L61.6797 18.6304L61.5705 18.7011C61.4777 18.7609 61.3849 18.8098 61.2867 18.8533C61.052 18.9512 60.8009 19.0001 60.5444 19.0001H60.5499ZM57.0896 11.5448C56.7676 12.4801 56.904 13.8559 57.4607 15.1827C58.3121 17.2056 59.9222 18.5434 60.9701 18.1029C60.9865 18.0975 61.0029 18.0866 61.0247 18.0811C61.3467 17.1458 61.2103 15.77 60.6536 14.4432C60.2169 13.41 59.5893 12.5345 58.8798 11.9852C58.2357 11.485 57.619 11.3218 57.1442 11.523C57.1278 11.5285 57.1114 11.5393 57.0896 11.5448Z" fill="#141414"/>
<path d="M78.6324 31.9367C77.9119 30.2183 76.542 29.1579 75.5705 29.5603C75.2594 29.6909 75.0302 29.9573 74.8828 30.3162C74.9374 30.2836 74.992 30.251 75.052 30.2238C76.0181 29.8214 77.388 30.8818 78.1139 32.6001C78.6051 33.7638 78.6706 34.9276 78.3595 35.6834C79.1782 35.156 79.3092 33.5463 78.6324 31.9367Z" fill="#141414"/>
<path d="M78.3597 36.0968C78.2669 36.0968 78.1741 36.0642 78.0977 36.0043C77.9613 35.8902 77.9122 35.6998 77.9777 35.5367C78.256 34.8515 78.1632 33.7911 77.7321 32.7688C77.0553 31.1592 75.8545 30.3435 75.2051 30.6099C75.1669 30.6263 75.1341 30.6426 75.1014 30.6643C74.954 30.7622 74.7575 30.7513 74.6156 30.6371C74.4792 30.5229 74.43 30.3326 74.4955 30.1695C74.6866 29.6964 75.0031 29.3592 75.407 29.1906C76.0183 28.9351 76.7387 29.0928 77.4373 29.6366C78.0705 30.126 78.6272 30.8873 79.0037 31.7845C79.7679 33.5954 79.5877 35.3844 78.578 36.0315C78.5125 36.075 78.4307 36.0968 78.3543 36.0968H78.3597ZM76.3512 29.9465C76.8097 30.164 77.2681 30.5392 77.6666 31.045C77.4483 30.7405 77.2026 30.4794 76.9407 30.2782C76.7387 30.1205 76.5368 30.0118 76.3512 29.9465Z" fill="#141414"/>
<path d="M78.1138 32.6057C77.3934 30.8873 76.0235 29.8269 75.052 30.2293C74.9919 30.2565 74.9374 30.2837 74.8828 30.3217C74.5717 31.0776 74.6372 32.2413 75.1284 33.405C75.8488 35.1234 77.2188 36.1838 78.1903 35.7814C78.2503 35.7542 78.3049 35.727 78.3595 35.6889C78.6706 34.9331 78.6051 33.7694 78.1138 32.6057Z" fill="#DB8B3B"/>
<path d="M77.748 36.2708C77.2896 36.2708 76.7983 36.0805 76.3181 35.7053C75.6849 35.2158 75.1282 34.4545 74.7516 33.5573C74.2331 32.3229 74.1404 31.0558 74.506 30.164L74.5552 30.0444L74.6643 29.9737C74.7407 29.9248 74.8171 29.8813 74.899 29.8486C76.0943 29.3483 77.6716 30.4903 78.4958 32.4425C79.0143 33.6769 79.107 34.944 78.7414 35.8358L78.6922 35.9554L78.5831 36.0261C78.5067 36.075 78.4303 36.1131 78.3484 36.1457C78.1574 36.2273 77.9554 36.2654 77.748 36.2654V36.2708ZM75.2156 30.6045C74.9972 31.2897 75.1009 32.2848 75.5048 33.2419C75.8268 34.0086 76.2962 34.6557 76.8147 35.0581C77.2623 35.4062 77.7044 35.5258 78.0264 35.3953C78.2447 34.7101 78.141 33.715 77.7371 32.7579C77.0603 31.1483 75.865 30.3326 75.2156 30.5991V30.6045Z" fill="#141414"/>
<path d="M79.2714 49.7514C78.1852 46.3201 75.7347 44.0361 73.8026 44.6452C73.1804 44.8409 72.6891 45.3195 72.3398 45.9829C72.449 45.9231 72.5636 45.8796 72.6837 45.8415C74.6158 45.2325 77.0664 47.5218 78.1525 50.9477C78.8893 53.2751 78.8074 55.521 78.0815 56.924C79.7517 56.0539 80.292 52.9706 79.2714 49.7568V49.7514Z" fill="#141414"/>
<path d="M78.0816 57.3265C77.9779 57.3265 77.8742 57.283 77.7923 57.2069C77.6668 57.0818 77.634 56.886 77.7159 56.7283C78.42 55.3743 78.4363 53.2046 77.7596 51.062C76.7608 47.908 74.4848 45.6948 72.8038 46.2223C72.7055 46.2549 72.6128 46.293 72.5254 46.3365C72.3672 46.418 72.1761 46.3909 72.0451 46.2658C71.9196 46.1407 71.8869 45.9449 71.9687 45.7872C72.3781 45.0042 72.9675 44.4713 73.6716 44.2483C75.8547 43.5577 78.4855 45.9232 79.6589 49.621C80.7341 53.0088 80.1337 56.2987 78.2726 57.2721C78.2126 57.3047 78.1471 57.3211 78.0816 57.3211V57.3265ZM73.366 45.3305C75.3581 45.3522 77.514 47.5709 78.5455 50.8228C79.0203 52.3236 79.1786 53.8517 79.0149 55.1622C79.5279 53.8408 79.517 51.8614 78.8839 49.8711C77.8851 46.7171 75.6091 44.5039 73.9281 45.0314C73.7262 45.0966 73.5406 45.1945 73.3714 45.3305H73.366Z" fill="#141414"/>
<path d="M78.152 50.9423C77.0659 47.511 74.6153 45.2271 72.6832 45.8361C72.5632 45.8742 72.4485 45.9231 72.3394 45.9775C71.608 47.375 71.5316 49.6263 72.2684 51.9537C73.3545 55.3851 75.8051 57.669 77.7372 57.0599C77.8573 57.0219 77.9719 56.9729 78.0811 56.9186C78.8124 55.521 78.8888 53.2697 78.152 50.9423Z" fill="#DB8B3B"/>
<path d="M77.0877 57.5711C76.2144 57.5711 75.2866 57.1415 74.4078 56.3204C73.3217 55.3089 72.4266 53.8026 71.8808 52.0788C71.1386 49.7405 71.1768 47.3315 71.9791 45.7926L72.0391 45.6784L72.1537 45.6186C72.2847 45.5479 72.4266 45.4935 72.5631 45.45C74.7462 44.7594 77.3769 47.1249 78.5504 50.8226C79.2926 53.1609 79.2544 55.5699 78.4521 57.1089L78.3921 57.2231L78.2775 57.2829C78.1465 57.3536 78.0046 57.4079 77.8681 57.4514C77.6171 57.533 77.3551 57.5711 77.0931 57.5711H77.0877ZM72.6449 46.2874C71.9955 47.6469 72.0009 49.7568 72.6613 51.8341C73.1689 53.4274 73.9876 54.8086 74.97 55.7276C75.8924 56.5868 76.8311 56.924 77.6225 56.6738C77.6771 56.6575 77.7317 56.6358 77.7863 56.614C78.4358 55.2545 78.4303 53.1446 77.7699 51.0673C76.7711 47.9134 74.4952 45.7001 72.8141 46.2276C72.7596 46.2439 72.705 46.2657 72.6504 46.2874H72.6449Z" fill="#141414"/>
<path d="M70.586 19.7289C69.9474 18.2117 68.7358 17.2709 67.8789 17.6298C67.6005 17.744 67.3986 17.9833 67.2676 18.2987C67.3167 18.2661 67.3658 18.2389 67.4204 18.2171C68.2773 17.8582 69.4889 18.799 70.1275 20.3162C70.5587 21.3439 70.6187 22.3717 70.3458 23.0405C71.0717 22.5729 71.1863 21.1482 70.586 19.7234V19.7289Z" fill="#141414"/>
<path d="M70.3461 23.4538C70.2533 23.4538 70.1605 23.4212 70.0841 23.3614C69.9476 23.2472 69.8985 23.0568 69.964 22.8937C70.2096 22.301 70.1223 21.3765 69.7457 20.4793C69.4619 19.8104 69.058 19.2449 68.5995 18.8914C68.2175 18.5923 67.8409 18.489 67.5735 18.5978C67.5462 18.6086 67.5134 18.625 67.4861 18.6413C67.3333 18.7391 67.1423 18.7283 67.0004 18.6141C66.8639 18.4999 66.8148 18.3096 66.8803 18.1464C67.055 17.7168 67.3442 17.4069 67.7099 17.2546C68.796 16.8033 70.2151 17.8201 70.9519 19.5711C71.6341 21.1971 71.4704 22.8013 70.5535 23.3886C70.488 23.4321 70.4061 23.4538 70.3297 23.4538H70.3461Z" fill="#141414"/>
<path d="M70.1283 20.3216C69.4897 18.8045 68.2781 17.8637 67.4212 18.2226C67.3666 18.2443 67.3175 18.2715 67.2684 18.3042C66.9955 18.973 67.0501 20.0008 67.4867 21.0286C68.1253 22.5457 69.3369 23.4865 70.1938 23.1276C70.2484 23.1058 70.2975 23.0787 70.3466 23.046C70.6195 22.3772 70.5649 21.3494 70.1283 20.3216Z" fill="#DB8B3B"/>
<path d="M69.8116 23.6115C68.8346 23.6115 67.7267 22.6599 67.1099 21.1862C66.646 20.0823 66.5642 18.9458 66.8916 18.1464L66.9407 18.0268L67.0499 17.9561C67.1154 17.9126 67.1864 17.8745 67.2628 17.8419C67.8195 17.6081 68.4744 17.7494 69.1075 18.2443C69.6752 18.6848 70.1718 19.3645 70.5047 20.1639C70.9687 21.2678 71.0505 22.4043 70.7231 23.2037L70.6739 23.3233L70.5648 23.394C70.4938 23.4375 70.4229 23.4756 70.3465 23.5082C70.1718 23.5789 69.9917 23.6169 69.8061 23.6169L69.8116 23.6115ZM67.6012 18.5869C67.421 19.1796 67.5138 20.0388 67.8631 20.8708C68.4471 22.252 69.4514 22.9644 70.0135 22.7632C70.1936 22.1705 70.1009 21.3113 69.7516 20.4847C69.4678 19.8159 69.0639 19.2503 68.6054 18.8968C68.2343 18.6086 67.8686 18.4944 67.6012 18.5978V18.5869Z" fill="#141414"/>
<path d="M69.6635 10.8065C70.1356 10.6414 70.2797 9.82986 69.9852 8.99389C69.6907 8.15792 69.0692 7.61407 68.5971 7.77918C68.1249 7.94428 67.9809 8.75581 68.2754 9.59178C68.5699 10.4278 69.1914 10.9716 69.6635 10.8065Z" fill="#DB8B3B"/>
<path d="M69.4844 11.2401C68.8622 11.2401 68.2182 10.6473 67.8907 9.72288C67.727 9.25522 67.6724 8.77125 67.7488 8.35797C67.8362 7.87399 68.0981 7.52053 68.4638 7.39002C69.1733 7.13987 69.992 7.77067 70.3741 8.85282C70.5378 9.32048 70.5924 9.80445 70.516 10.2177C70.4287 10.7017 70.1667 11.0552 69.801 11.1857C69.6973 11.2237 69.5936 11.2401 69.4844 11.2401ZM68.7804 8.15676C68.7804 8.15676 68.7531 8.15676 68.7367 8.1622C68.6603 8.18939 68.5894 8.32534 68.5566 8.50479C68.5075 8.77669 68.5511 9.11927 68.6658 9.45642C68.9114 10.1525 69.3589 10.4788 69.5336 10.4189C69.61 10.3917 69.6809 10.2558 69.7137 10.0763C69.7628 9.80445 69.7191 9.46186 69.6045 9.12471C69.3753 8.4776 68.9714 8.15676 68.7804 8.15676Z" fill="#141414"/>
<path d="M65.0385 36.7625C65.5106 36.5974 65.6547 35.7859 65.3602 34.9499C65.0657 34.114 64.4442 33.5701 63.9721 33.7352C63.4999 33.9003 63.3559 34.7119 63.6504 35.5478C63.9449 36.3838 64.5664 36.9277 65.0385 36.7625Z" fill="#DB8B3B"/>
<path d="M64.8669 37.2007C64.583 37.2007 64.2829 37.0756 64.01 36.8364C63.6934 36.5645 63.4314 36.1512 63.2677 35.6835C63.104 35.2159 63.0494 34.7319 63.1258 34.3186C63.2131 33.8347 63.4751 33.4812 63.8408 33.3507C64.5448 33.106 65.369 33.7313 65.751 34.8135C66.1331 35.8956 65.8875 36.8962 65.178 37.1463C65.0797 37.179 64.976 37.2007 64.8669 37.2007ZM64.1519 34.1174C64.1519 34.1174 64.1246 34.1174 64.1082 34.1229C64.0318 34.1501 63.9608 34.286 63.9281 34.4655C63.879 34.7373 63.9226 35.0799 64.0373 35.4171C64.1519 35.7488 64.3429 36.0479 64.5448 36.2273C64.6813 36.347 64.8232 36.4122 64.8996 36.3796C65.0633 36.3198 65.2162 35.7869 64.9706 35.0908C64.7413 34.4437 64.3374 34.1229 64.1464 34.1229L64.1519 34.1174Z" fill="#141414"/>
<path d="M75.7574 64.797C76.076 64.6856 76.174 64.1404 75.9763 63.5793C75.7787 63.0183 75.3602 62.6537 75.0416 62.7651C74.7231 62.8765 74.6251 63.4217 74.8227 63.9827C75.0204 64.5438 75.4389 64.9084 75.7574 64.797Z" fill="#DB8B3B"/>
<path d="M75.6404 65.2278C75.4167 65.2278 75.1874 65.1353 74.9746 64.9505C74.7453 64.7492 74.5543 64.4556 74.4343 64.1185C74.3142 63.7813 74.2814 63.4333 74.3306 63.1342C74.396 62.759 74.6034 62.4816 74.8982 62.3783C75.1929 62.275 75.5258 62.362 75.8151 62.6121C76.0443 62.8134 76.2354 63.107 76.3554 63.4441C76.4755 63.7813 76.5082 64.1293 76.4591 64.4284C76.3936 64.8036 76.1862 65.081 75.8915 65.1843C75.8096 65.2115 75.7223 65.2278 75.6404 65.2278ZM75.2093 63.8466C75.3457 64.2272 75.5695 64.4067 75.6404 64.4121C75.6568 64.374 75.7223 64.0967 75.5913 63.716C75.4549 63.3354 75.2311 63.1559 75.1602 63.1505C75.1438 63.1886 75.0783 63.4659 75.2093 63.8466Z" fill="#141414"/>
<path d="M22.4052 61.9705C22.7218 60.3881 23.7042 59.2515 24.5938 59.431C24.8831 59.4908 25.1232 59.6757 25.3088 59.9585C25.2597 59.9367 25.2051 59.9204 25.1505 59.9095C24.2609 59.7301 23.2785 60.8666 22.9619 62.449C22.7491 63.5203 22.891 64.5209 23.2839 65.1082C22.498 64.7982 22.1105 63.455 22.4052 61.9705Z" fill="#E08836"/>
<path d="M23.2781 65.516C23.229 65.516 23.1744 65.5051 23.1308 65.4888C22.1374 65.0973 21.6626 63.5855 22.001 61.8944C22.1702 61.0624 22.514 60.3119 22.9725 59.779C23.4855 59.1808 24.0914 58.9198 24.6754 59.034C25.0574 59.1101 25.3958 59.3549 25.6523 59.7355C25.7506 59.8823 25.7451 60.0781 25.6305 60.2195C25.5159 60.3609 25.3303 60.4098 25.1611 60.3446C25.1338 60.3337 25.1011 60.3228 25.0683 60.3174C24.4953 60.2032 23.6547 61.0841 23.36 62.536C23.1744 63.4659 23.2727 64.3686 23.622 64.8906C23.7202 65.0375 23.7148 65.2332 23.6002 65.3746C23.5183 65.4725 23.4037 65.5269 23.2836 65.5269L23.2781 65.516Z" fill="#141414"/>
<path d="M22.9562 62.449C23.2728 60.8666 24.2552 59.7301 25.1448 59.9095C25.1994 59.9204 25.254 59.9367 25.3031 59.9585C25.6961 60.5457 25.838 61.5463 25.6251 62.6176C25.3086 64.2 24.3261 65.3365 23.4365 65.1571C23.3819 65.1462 23.3273 65.1299 23.2782 65.1082C22.8853 64.5209 22.7434 63.5203 22.9562 62.449Z" fill="#DB8B3B"/>
<path d="M23.6324 65.5812C23.5396 65.5812 23.4523 65.5703 23.3595 65.554C23.2776 65.5377 23.2067 65.5159 23.1303 65.4888L23.0102 65.4398L22.9392 65.3311C22.4699 64.6241 22.3225 63.5202 22.5572 62.3674C22.9229 60.5403 24.1072 59.2841 25.2261 59.5071C25.308 59.5234 25.3844 59.5451 25.4553 59.5723L25.5754 59.6212L25.6464 59.73C26.1157 60.4369 26.2576 61.5408 26.0284 62.6937C25.8592 63.5257 25.5154 64.2761 25.0569 64.809C24.6203 65.3147 24.1236 65.5812 23.6269 65.5812H23.6324ZM23.5505 64.7601C23.8234 64.7981 24.1454 64.6241 24.4402 64.2815C24.8058 63.8628 25.0897 63.2266 25.2316 62.536C25.4062 61.6768 25.3298 60.8393 25.046 60.3064C24.4838 60.2249 23.6542 61.1004 23.365 62.5305C23.1903 63.3897 23.2667 64.2272 23.556 64.7601H23.5505Z" fill="#141414"/>
<path d="M43.3645 16.1432C43.5522 14.7987 43.0872 13.6232 42.3259 13.5176C41.5646 13.4121 40.7952 14.4165 40.6075 15.7611C40.4198 17.1056 40.8847 18.2811 41.6461 18.3866C42.4074 18.4922 43.1767 17.4877 43.3645 16.1432Z" fill="#DB8B3B"/>
<path d="M41.7578 18.7989C41.7032 18.7989 41.6432 18.7989 41.5886 18.7881C41.0701 18.7174 40.6444 18.3258 40.3879 17.6842C40.1641 17.1241 40.0986 16.4226 40.2023 15.7048C40.4261 14.1169 41.3594 12.9749 42.38 13.1163C43.3788 13.2577 43.9901 14.6117 43.7663 16.1996C43.668 16.9174 43.4115 17.5754 43.0404 18.0539C42.6692 18.5379 42.2162 18.7989 41.7578 18.7989ZM42.2162 13.9157C41.7632 13.9157 41.1683 14.6933 41.0155 15.8135C40.9336 16.3845 40.9882 16.9609 41.152 17.3851C41.2884 17.7331 41.4903 17.9506 41.7032 17.9778C41.9161 18.0104 42.1671 17.8527 42.3909 17.5591C42.6692 17.1947 42.8766 16.6564 42.9531 16.0854C43.1168 14.9271 42.7238 13.9864 42.2654 13.9211C42.249 13.9211 42.2326 13.9211 42.2162 13.9211V13.9157Z" fill="#141414"/>
<path d="M54.4941 64.2609C54.6079 63.4458 54.3274 62.7334 53.8677 62.6697C53.4079 62.606 52.9429 63.215 52.8291 64.0301C52.7153 64.8451 52.9958 65.5575 53.4555 65.6212C53.9153 65.685 54.3803 65.0759 54.4941 64.2609Z" fill="#DB8B3B"/>
<path d="M53.5193 66.027C53.4757 66.027 53.4375 66.027 53.3938 66.0161C53.0227 65.9672 52.7116 65.6844 52.5424 65.2493C52.4005 64.885 52.3568 64.4282 52.4168 63.966C52.5642 62.8947 53.2028 62.1606 53.9177 62.2585C54.2889 62.3074 54.6 62.5902 54.7692 63.0252C54.9111 63.3896 54.9547 63.8464 54.8947 64.3086C54.7528 65.3146 54.1743 66.0215 53.5193 66.0215V66.027ZM53.7922 63.0687C53.6394 63.0687 53.3174 63.444 53.2246 64.0802C53.1809 64.401 53.2082 64.7164 53.301 64.9503C53.3665 65.1188 53.4538 65.2004 53.5084 65.2113C53.6503 65.233 53.9942 64.8578 54.0869 64.1998C54.1306 63.879 54.1033 63.5636 54.0105 63.3298C53.945 63.1612 53.8577 63.0796 53.8031 63.0687C53.8031 63.0687 53.7977 63.0687 53.7922 63.0687Z" fill="#141414"/>
<path d="M29.8222 59.0255C29.936 58.2105 29.6556 57.4981 29.1958 57.4343C28.736 57.3706 28.271 57.9797 28.1572 58.7947C28.0434 59.6098 28.3239 60.3222 28.7837 60.3859C29.2434 60.4496 29.7084 59.8406 29.8222 59.0255Z" fill="#DB8B3B"/>
<path d="M28.8553 60.7904C28.8116 60.7904 28.7734 60.7904 28.7297 60.7795C28.3586 60.7306 28.0475 60.4478 27.8783 60.0128C27.7364 59.6484 27.6927 59.1916 27.7528 58.7294C27.9001 57.6582 28.5387 56.924 29.2537 57.0219C29.6248 57.0709 29.9359 57.3536 30.1051 57.7887C30.247 58.153 30.2907 58.6098 30.2306 59.072C30.0887 60.078 29.5102 60.785 28.8553 60.785V60.7904ZM29.1282 57.8322C28.9753 57.8322 28.6533 58.2074 28.5605 58.8436C28.5169 59.1645 28.5442 59.4799 28.6369 59.7137C28.7024 59.8823 28.7898 59.9638 28.8443 59.9747C28.9862 60.0019 29.3301 59.6212 29.4229 58.9633C29.4665 58.6424 29.4393 58.327 29.3465 58.0932C29.281 57.9246 29.1936 57.843 29.1391 57.8322C29.1391 57.8322 29.1336 57.8322 29.1282 57.8322Z" fill="#141414"/>
<path d="M92.0033 45.227C92.2926 44.8573 92.4563 44.3842 92.4345 43.8784C92.3363 41.8175 91.4685 40.1208 89.9293 38.968C86.1034 36.0968 75.2968 38.2556 74.5381 38.4351C73.4465 38.6907 72.7643 39.7837 73.0208 40.8767C73.2773 41.9643 74.0414 42.6821 75.4659 42.3884C80.4927 41.3444 85.7377 40.9039 87.4842 42.2144C87.8663 42.5026 88.3138 42.9757 88.3684 44.0796C88.423 45.1998 89.3781 46.0645 90.5024 46.0101C91.1192 45.9775 91.654 45.6838 92.0088 45.2325L92.0033 45.227Z" fill="#141414"/>
<path d="M87.0807 45.3086C87.0807 45.3086 86.6441 44.0524 87.1844 43.0682C87.954 41.687 92.4785 42.6767 93.652 43.5576C94.8309 44.4385 93.0025 46.233 93.0025 46.233L87.0752 45.3032L87.0807 45.3086Z" fill="white"/>
<path d="M85.6574 54.2757C86.0941 53.0413 86.0013 50.9422 86.0013 50.9422C85.9358 49.8492 84.3748 48.6692 82.5191 48.7127C80.6635 48.7616 79.7684 47.0269 81.0401 46.2058C82.5628 45.227 85.0571 47.1466 86.2469 46.1079C87.2348 44.8518 88.9049 44.2047 90.5641 44.6071C92.8345 45.1509 94.2318 47.4239 93.686 49.6861C93.6532 49.822 93.615 49.958 93.5659 50.083C93.9589 50.8878 93.6696 52.5464 93.0365 53.6884C92.2724 55.0696 90.7824 54.7161 90.7824 54.7161C90.0292 56.304 88.2936 55.3252 88.0425 55.1784C87.9661 56.44 88.0425 58.8381 85.914 58.3922C83.7144 57.9245 85.2099 55.5046 85.6411 54.2702L85.6574 54.2757Z" fill="white"/>
<path d="M91.0216 55.1836C90.7706 55.5806 90.4322 55.8362 90.0174 55.9612C89.4552 56.1298 88.8767 56.0047 88.4455 55.8416C88.3909 56.7878 88.2708 57.9461 87.5013 58.5279C87.0701 58.8596 86.5134 58.9521 85.8366 58.8107C85.1981 58.6747 84.7505 58.3757 84.5158 57.9243C84.041 57.0107 84.5649 55.7763 84.9907 54.7866C85.0944 54.5474 85.1871 54.3244 85.2581 54.1341C85.662 52.9976 85.5801 50.9801 85.5801 50.9638C85.5801 50.9529 85.5801 50.9366 85.5801 50.9257C85.4873 50.072 84.1338 49.0986 82.5346 49.1367C81.3775 49.1638 80.3787 48.5602 80.1004 47.6575C79.8875 46.9669 80.1604 46.2763 80.8154 45.8522C81.7323 45.2594 82.873 45.5313 83.8827 45.7706C84.7232 45.9718 85.5146 46.1567 85.9458 45.8141C87.1574 44.3078 88.8494 44.4709 90.3558 44.8353C91.6056 45.1344 92.6699 45.7434 93.3576 46.5536C94.1381 47.4727 94.3946 48.5929 94.1053 49.7892C94.0835 49.8871 94.0562 49.9795 94.0289 50.072C94.4055 51.0997 94.0289 52.7909 93.4176 53.9003C93.3412 54.0308 93.2648 54.1558 93.1775 54.2646C92.5444 55.0694 91.6329 55.2326 91.0216 55.1836ZM80.9082 47.4128C81.0446 47.8533 81.6068 48.3155 82.5128 48.2938C84.4776 48.2448 86.3442 49.4956 86.4261 50.9203C86.4261 50.942 86.4261 50.9638 86.4261 50.9801C86.437 51.339 86.4807 53.2205 86.0549 54.4114C85.984 54.6181 85.8803 54.8573 85.7711 55.1129C85.4382 55.896 84.9797 56.9727 85.269 57.5328C85.3836 57.7503 85.6292 57.8971 86.0113 57.9787C86.437 58.0711 86.7535 58.0276 86.9828 57.8536C87.5122 57.4403 87.5777 56.2603 87.6104 55.4827L87.6268 55.1564C87.6377 55.0096 87.7196 54.8791 87.856 54.8084C87.9925 54.7377 88.1453 54.7431 88.2708 54.8193C88.3582 54.8736 89.1496 55.3359 89.7663 55.1455C90.0392 55.064 90.2466 54.8682 90.4049 54.5365C90.4922 54.3516 90.6941 54.2592 90.8852 54.3081C90.8961 54.3081 92.0641 54.5746 92.6644 53.487C93.2539 52.4212 93.4995 50.9149 93.1829 50.2677C93.1338 50.1699 93.1284 50.0502 93.1611 49.9469C93.1993 49.8273 93.2375 49.7076 93.2703 49.588C93.494 48.6636 93.2976 47.7989 92.6972 47.092C92.1296 46.4231 91.2236 45.912 90.1484 45.651C88.3254 45.2159 87.3266 45.4171 86.5789 46.3688C86.5625 46.3905 86.5462 46.4068 86.5243 46.4286C85.7657 47.092 84.7068 46.8364 83.6808 46.5972C82.7966 46.3851 81.8797 46.173 81.2684 46.5645C81.1647 46.6298 81.0773 46.7059 81.0118 46.7875C80.8699 46.9669 80.8263 47.1844 80.8972 47.4074L80.9082 47.4128Z" fill="#141414"/>
<path d="M91.1521 47.5108C90.6664 47.5869 89.6185 48.457 89.4165 48.7126C89.362 48.8648 89.22 48.979 89.0454 48.9899C88.8107 49.0062 88.6088 48.8268 88.5924 48.5984C88.5542 48.0328 90.3553 46.7821 91.0157 46.6842C91.2449 46.6462 91.4632 46.8093 91.5014 47.0377C91.5178 47.1573 91.4851 47.2715 91.4141 47.364C91.3486 47.4455 91.2558 47.5054 91.1467 47.5217L91.1521 47.5108Z" fill="#141414"/>
<path d="M91.3826 49.0661C91.4754 48.9465 91.5027 48.7833 91.4372 48.6365C91.4099 48.5767 90.755 47.1248 89.4123 46.8746C89.1831 46.8311 88.9593 46.9834 88.9157 47.2118C88.872 47.4402 89.0248 47.6631 89.254 47.7066C90.1437 47.8698 90.6513 48.9682 90.6567 48.9791C90.7495 49.1912 91.0006 49.289 91.2134 49.1966C91.2789 49.1694 91.3335 49.1259 91.3772 49.0715L91.3826 49.0661Z" fill="#141414"/>
<path d="M88.4081 55.2218C88.4573 55.1565 88.49 55.0804 88.4955 54.9934C88.5282 54.5529 88.6592 53.3131 88.812 52.8998C88.8939 52.6823 88.7793 52.4376 88.561 52.356C88.3427 52.2744 88.097 52.3886 88.0152 52.6061C87.7914 53.2097 87.6604 54.7541 87.6495 54.9281C87.6331 55.1619 87.8078 55.3631 88.037 55.3849C88.1844 55.3958 88.3208 55.3305 88.4081 55.2218Z" fill="#141414"/>
<path d="M90.8533 55.3905C91.028 55.1675 91.1535 54.8902 91.2299 54.5639C91.5738 53.0467 91.4701 52.1386 91.4646 52.1005C91.4373 51.8667 91.2245 51.7036 90.9952 51.7307C90.7605 51.7579 90.5968 51.97 90.6241 52.1984C90.6241 52.2038 90.7114 53.0141 90.4058 54.3736C90.3348 54.6998 90.1984 54.9174 89.991 55.0479C89.6308 55.2708 89.1614 55.1621 89.1559 55.1621C88.9267 55.1077 88.6975 55.2436 88.6429 55.472C88.5883 55.695 88.7247 55.9234 88.9485 55.9832C89.0304 56.0049 89.7727 56.1735 90.4276 55.7765C90.5968 55.6732 90.7387 55.5482 90.8588 55.3905H90.8533Z" fill="#141414"/>
<path d="M93.6297 46.3199C93.8862 45.9937 94.0772 45.6021 94.1864 45.265C94.4265 44.5309 94.3938 43.8729 94.0936 43.4106C93.3841 42.3176 89.5963 41.4149 87.7461 42.1545C87.1839 42.3829 86.7909 42.7527 86.5835 43.2584C86.1687 44.2644 86.6709 45.4227 86.6927 45.4716C86.7855 45.6837 87.0365 45.7816 87.2494 45.6891C87.4623 45.5967 87.5605 45.3465 87.4677 45.1345C87.4677 45.1236 87.0911 44.2426 87.3695 43.5738C87.4895 43.2801 87.7188 43.0735 88.0626 42.9376C89.64 42.3068 92.9693 43.2366 93.3841 43.8729C93.5369 44.1067 93.5369 44.5309 93.3841 45.004C93.1876 45.5913 92.8274 46.0317 92.5927 46.1187C92.3689 46.2003 92.2597 46.445 92.3416 46.6625C92.4235 46.88 92.6691 46.9942 92.8874 46.9127C93.1767 46.8039 93.4277 46.5864 93.6351 46.3199H93.6297Z" fill="#141414"/>
</g>
<defs>
<clipPath id="clip0_237_3542">
<rect width="95" height="104" fill="white"/>
</clipPath>
</defs>
</svg>
