<svg width="102" height="91" viewBox="0 0 102 91" fill="none" xmlns="http://www.w3.org/2000/svg">
<g clip-path="url(#clip0_237_3972)">
<path d="M68.5357 4.51926C69.0495 3.63368 68.0945 2.12781 66.4026 1.1558C64.7107 0.183796 62.9227 0.113729 62.4089 0.999305C61.895 1.88488 62.8501 3.39075 64.5419 4.36276C66.2338 5.33477 68.0219 5.40484 68.5357 4.51926Z" fill="#5566AB"/>
<path d="M67.112 5.52413C67.066 5.52413 67.0149 5.52413 66.9638 5.52413C66.151 5.49361 65.2207 5.19859 64.3517 4.7001C63.4827 4.20161 62.7619 3.54543 62.3274 2.85873C61.8469 2.09574 61.7549 1.37343 62.082 0.813904C62.4041 0.25946 63.0839 -0.0304783 63.9836 0.00512817C64.7964 0.035648 65.7267 0.330673 66.5957 0.829164C68.4973 1.92279 69.4941 3.62682 68.8705 4.71027C68.5637 5.23419 67.9452 5.52413 67.1171 5.52413H67.112ZM63.8354 0.763038C63.2986 0.763038 62.905 0.915637 62.7415 1.19032C62.5728 1.48534 62.6546 1.94314 62.9715 2.44672C63.3395 3.03168 63.9683 3.59121 64.7299 4.03375C65.4967 4.4712 66.2992 4.73062 66.9893 4.75605C67.5976 4.78148 68.027 4.6238 68.1957 4.32877C68.5433 3.72855 67.8123 2.41111 66.2021 1.49043C65.4353 1.05298 64.6328 0.793557 63.9427 0.768124C63.9018 0.768124 63.866 0.768124 63.8251 0.768124L63.8354 0.763038Z" fill="#141414"/>
<path d="M51.1629 56.0445C63.8897 56.0445 74.2067 45.7781 74.2067 33.1139C74.2067 20.4497 63.8897 10.1833 51.1629 10.1833C38.4362 10.1833 28.1191 20.4497 28.1191 33.1139C28.1191 45.7781 38.4362 56.0445 51.1629 56.0445Z" fill="#6F5542"/>
<path d="M51.1635 56.421C38.2461 56.421 27.7363 45.9629 27.7363 33.1089C27.7363 20.255 38.2461 9.79688 51.1635 9.79688C64.0809 9.79688 74.5907 20.255 74.5907 33.1089C74.5907 45.9629 64.0809 56.421 51.1635 56.421ZM51.1635 10.5599C38.6704 10.5599 28.5031 20.6772 28.5031 33.1089C28.5031 45.5407 38.6704 55.658 51.1635 55.658C63.6566 55.658 73.8239 45.5407 73.8239 33.1089C73.8239 20.6772 63.6566 10.5599 51.1635 10.5599Z" fill="#141414"/>
<path d="M70.1084 46.4359C75.1231 46.4359 82.1978 44.9709 88.6692 38.3888C89.39 37.6563 89.3747 36.4813 88.6386 35.7641C87.9025 35.0469 86.7217 35.0622 86.0009 35.7946C76.2732 45.6881 65.0631 42.1377 64.5929 41.9851C63.6165 41.6595 62.5635 42.1834 62.2363 43.155C61.9092 44.1265 62.4306 45.1744 63.4018 45.4999C63.6421 45.5813 66.2746 46.4359 70.1084 46.4359Z" fill="#141414"/>
<path d="M86.6039 33.2461C86.6039 33.2461 85.055 33.8005 84.7023 35.0264C84.3496 36.2523 87.3553 39.5281 88.9962 39.7214C90.6371 39.9147 91.3732 38.0072 91.2198 37.0153L86.5988 33.2512L86.6039 33.2461Z" fill="#EEE8D7"/>
<path d="M88.9497 40.108C87.6923 39.9605 85.898 38.348 84.9575 36.939C84.3952 36.0997 84.1856 35.4232 84.3287 34.9196C84.7325 33.5208 86.399 32.9104 86.4705 32.885C86.5983 32.8392 86.7415 32.8646 86.8488 32.9511L91.4698 36.7152C91.5465 36.7763 91.5925 36.8627 91.6079 36.9543C91.7152 37.6613 91.4596 38.7448 90.7644 39.4569C90.3401 39.8944 89.8085 40.1233 89.2258 40.1233C89.1338 40.1233 89.0418 40.1182 88.9497 40.108ZM86.537 33.6988C86.1485 33.882 85.2999 34.3601 85.075 35.1384C85.0188 35.3367 85.1262 35.7996 85.6015 36.5168C86.5217 37.8902 88.1574 39.2382 89.0418 39.345C89.4916 39.401 89.8852 39.2585 90.2072 38.9279C90.6571 38.465 90.8769 37.7325 90.8513 37.2188L86.537 33.7039V33.6988Z" fill="#141414"/>
<path d="M101.612 32.6206C101.628 30.9979 100.34 30.1892 97.2367 31.7151C96.7307 31.9644 96.3882 31.8067 95.9639 31.8627C95.9383 31.4354 95.7237 31.3082 95.5856 30.9165C95.877 30.3367 96.4904 29.9043 97.3492 29.5279C98.8469 28.8717 101.203 27.9002 100.657 26.4556C100.079 24.9347 98.5811 24.6498 96.2502 27.1982C95.3352 28.1952 94.3639 28.4902 93.7045 28.5563C93.6023 28.4902 93.4949 28.4292 93.3876 28.3681C93.086 27.7018 93.224 26.8981 93.6432 25.9367C94.2873 24.4412 95.3505 22.1319 93.9601 21.4452C92.4981 20.728 91.21 21.5317 91.2458 24.9753C91.2713 27.3101 89.7225 28.2257 89.7225 28.2257H89.7327C89.7327 28.2257 89.7224 28.2308 89.7173 28.2359V28.2257C87.5602 28.0172 88.2758 24.4972 86.2925 24.4616C84.4164 24.426 84.6976 26.3131 85.9295 28.8768C86.865 30.8301 86.9212 32.5087 86.9212 32.5087C86.7525 34.5331 87.8464 36.2779 89.9474 36.8781C91.7774 37.402 93.6687 36.7458 94.8035 35.3674C94.8035 35.3674 96.1428 34.3348 97.4105 34.2788C99.0463 34.2076 101.597 34.1618 101.612 32.6155V32.6206Z" fill="#EEE8D7"/>
<path d="M89.8344 37.2545C87.6363 36.6288 86.338 34.7569 86.5271 32.529C86.5271 32.5137 86.4555 30.9013 85.5712 29.0497C84.5386 26.8981 84.2984 25.5247 84.8044 24.7363C85.0907 24.2886 85.607 24.075 86.292 24.0852C87.5341 24.1055 87.9328 25.1737 88.2804 26.1147C88.6434 27.0863 88.9194 27.7018 89.6146 27.834C89.9366 27.5949 90.867 26.7404 90.8465 24.9906C90.8261 22.9407 91.2504 21.6232 92.1194 21.084C92.6817 20.7331 93.3717 20.7432 94.1232 21.1095C95.7947 21.9284 94.7519 24.3395 94.0618 25.9316L93.9903 26.0944C93.6273 26.9388 93.6631 27.8594 93.8318 28.1545C94.4145 28.0578 95.2069 27.7628 95.9583 26.9439C97.3436 25.428 98.5602 24.7566 99.5672 24.9448C100.216 25.0669 100.717 25.545 101.014 26.3233C101.673 28.0578 99.2605 29.1108 97.6656 29.8127L97.502 29.8839C96.1883 30.4638 95.9685 30.8758 95.9378 31.0233C95.9276 31.064 95.9072 31.1658 96.0452 31.3235C96.1628 31.4201 96.7302 31.5422 97.0624 31.3743C98.9078 30.4638 100.288 30.2807 101.152 30.8199C101.714 31.1709 102.005 31.7965 101.995 32.6256C101.975 34.4772 99.3423 34.5891 97.5992 34.6603H97.4202C96.3979 34.7112 95.2682 35.5047 95.0688 35.6522C94.0976 36.8068 92.6817 37.4427 91.2146 37.4427C90.7545 37.4427 90.2893 37.3816 89.8293 37.2494L89.8344 37.2545ZM97.4049 32.0661C96.7659 32.3815 95.7896 32.1984 95.4676 31.8372C95.1302 31.4557 95.1251 31.0895 95.1762 30.8555C95.3091 30.2603 95.9634 29.711 97.1851 29.1769L97.3538 29.1057C98.6829 28.5258 100.687 27.6458 100.288 26.598C100.089 26.0791 99.7972 25.779 99.4189 25.7078C99.0151 25.6264 98.095 25.7536 96.5308 27.4678C95.534 28.5563 94.4657 28.8768 93.7398 28.9531C93.6529 28.9632 93.566 28.9429 93.4944 28.8971C92.7021 28.4139 92.8606 26.7556 93.2746 25.7943L93.3462 25.6264C93.9187 24.2988 94.7877 22.2997 93.7756 21.8013C93.2746 21.5571 92.8555 21.5317 92.5334 21.7351C92.1807 21.9539 91.598 22.666 91.6235 24.9804C91.6491 27.2897 90.2536 28.3376 89.9622 28.536C89.9417 28.5563 89.9162 28.5716 89.8906 28.5868C89.7986 28.6377 89.6913 28.6428 89.5993 28.6123C88.3213 28.4495 87.8919 27.305 87.5494 26.3843C87.2018 25.4433 86.9514 24.8685 86.2715 24.8583C85.6581 24.8278 85.4996 25.0821 85.4536 25.1584C85.2594 25.4535 85.1111 26.3131 86.2664 28.7191C87.2274 30.7232 87.2939 32.4323 87.299 32.5493C87.1405 34.467 88.1935 35.9879 90.044 36.5169C91.6695 36.9798 93.4177 36.4406 94.4963 35.1333C94.5168 35.113 94.5372 35.0926 94.5577 35.0723C94.619 35.0265 96.0145 33.9634 97.3845 33.9024L97.5634 33.8922C99.01 33.8312 101.203 33.7396 101.213 32.6205C101.218 32.0661 101.055 31.6795 100.733 31.476C100.584 31.3845 100.344 31.2929 99.9608 31.2929C99.4241 31.2929 98.6113 31.471 97.3998 32.0661H97.4049Z" fill="#141414"/>
<path d="M89.3839 32.6358C89.4504 32.6358 89.5168 32.6205 89.5782 32.5849C90.166 32.2441 90.5443 31.7609 90.7027 31.1454C91.0555 29.7975 90.1813 28.3071 90.1404 28.246C90.0331 28.0629 89.7928 28.0019 89.6088 28.1138C89.4248 28.2206 89.3635 28.4597 89.4708 28.6428C89.4759 28.653 90.2171 29.9195 89.9462 30.9572C89.8389 31.3692 89.5884 31.6795 89.1794 31.9186C88.9954 32.0254 88.929 32.2645 89.0414 32.4476C89.113 32.5697 89.2459 32.6409 89.3788 32.6409L89.3839 32.6358Z" fill="#141414"/>
<path d="M94.5929 33.2564C94.6951 33.2564 94.7974 33.2157 94.874 33.1343C95.0223 32.9817 95.0172 32.7375 94.8587 32.59C94.2146 31.9847 93.5245 31.6948 92.8089 31.71C91.7303 31.7406 91.0147 32.4985 90.984 32.529C90.8357 32.6867 90.846 32.9308 91.0044 33.0733C91.1629 33.2157 91.4032 33.2106 91.5514 33.058C91.6792 32.9207 92.8651 31.7711 94.3271 33.1547C94.4037 33.2259 94.4958 33.2615 94.5929 33.2615V33.2564Z" fill="#141414"/>
<path d="M32.4135 39.2385C35.5828 39.2385 37.7195 38.6535 37.9393 38.5925C38.931 38.3076 39.5035 37.2801 39.2172 36.2984C38.931 35.3167 37.9035 34.747 36.9169 35.0267C36.4313 35.159 25.0679 38.1753 15.8309 27.8342C15.1459 27.0661 13.9702 27 13.1984 27.6816C12.4265 28.3632 12.36 29.5331 13.045 30.3012C19.7056 37.7582 27.3682 39.2435 32.4186 39.2435L32.4135 39.2385Z" fill="#141414"/>
<path d="M15.3504 25.2603C15.3504 25.2603 16.8686 25.8859 17.1651 27.1271C17.4564 28.3682 14.3025 31.4965 12.6514 31.6135C11.0003 31.7305 10.3613 29.7874 10.5607 28.8056L15.3555 25.2603H15.3504Z" fill="#EBE5DA"/>
<path d="M10.8969 31.2626C10.2375 30.52 10.0381 29.4212 10.1761 28.7244C10.1966 28.6328 10.2477 28.5463 10.3244 28.4904L15.1192 24.945C15.2265 24.8636 15.3748 24.8484 15.4975 24.8992C15.569 24.9297 17.2048 25.6164 17.537 27.0356C17.6546 27.5443 17.4144 28.2106 16.8112 29.0245C15.8042 30.3877 13.9384 31.9086 12.6707 32.0002C12.6144 32.0002 12.5582 32.0053 12.502 32.0053C11.8732 32.0053 11.3212 31.7509 10.8918 31.2677L10.8969 31.2626ZM10.9173 29.0143C10.8713 29.523 11.0502 30.2656 11.4796 30.7489C11.7863 31.0947 12.1748 31.2473 12.6246 31.2219C13.509 31.1609 15.2112 29.8892 16.1927 28.5616C16.7038 27.8698 16.8367 27.412 16.7856 27.2086C16.5965 26.4201 15.7735 25.9013 15.3952 25.7029L10.9173 29.0092V29.0143Z" fill="#141414"/>
<path d="M0.387635 23.9225C0.448976 22.2999 1.77292 21.5522 4.79908 23.2257C5.28981 23.5003 5.64252 23.3579 6.06168 23.4342C6.10769 23.012 6.3275 22.895 6.48596 22.5034C6.22526 21.9082 5.62719 21.4504 4.78886 21.0333C3.32689 20.3059 1.01638 19.2225 1.6349 17.8084C2.2841 16.318 3.79206 16.1044 6.00034 18.7596C6.86423 19.8024 7.82524 20.1381 8.47955 20.2398C8.58689 20.1788 8.69424 20.1228 8.8067 20.0669C9.13896 19.4158 9.03673 18.607 8.66868 17.6253C8.09616 16.0993 7.14538 13.7442 8.56645 13.1236C10.0642 12.4725 11.3115 13.3372 11.107 16.7809C10.969 19.1106 12.4769 20.0974 12.4769 20.0974H12.4667C12.4667 20.0974 12.4769 20.1025 12.4821 20.1076V20.0974C14.6443 19.9956 14.1025 16.4401 16.0807 16.496C17.9567 16.552 17.5836 18.4188 16.2341 20.9214C15.2066 22.8289 15.0686 24.5024 15.0686 24.5024C15.1402 26.532 13.9645 28.2258 11.838 28.7243C9.9824 29.1618 8.12683 28.4191 7.05848 26.9847C7.05848 26.9847 5.77031 25.8911 4.50771 25.7741C2.87706 25.6266 0.331405 25.4587 0.387635 23.9174V23.9225Z" fill="#EBE5DA"/>
<path d="M6.77748 27.2593C6.58323 27.1017 5.49442 26.2573 4.47207 26.1657L4.29316 26.1504C2.55516 25.9979 -0.0671674 25.7639 -0.00071452 23.9123C0.029956 23.0832 0.351997 22.4728 0.929625 22.1473C1.81907 21.6437 3.18902 21.898 4.98836 22.8899C5.3104 23.0679 5.88292 22.9764 5.99538 22.8899C6.14873 22.7322 6.13339 22.6305 6.12317 22.5898C6.09761 22.4372 5.89825 22.015 4.6152 21.3741L4.45163 21.2927C2.89254 20.5195 0.530908 19.3496 1.27722 17.6507C1.60949 16.8877 2.13089 16.435 2.7903 16.3434C3.80243 16.201 4.98325 16.9284 6.29697 18.5103C7.0075 19.3649 7.78449 19.7006 8.36212 19.8227C8.54614 19.5378 8.62793 18.6171 8.30589 17.7575L8.24455 17.5896C7.63114 15.967 6.70591 13.5101 8.41324 12.7726C9.18 12.442 9.87009 12.4623 10.4119 12.8438C11.2503 13.4288 11.6183 14.7615 11.4956 16.8063C11.3934 18.5561 12.2828 19.4513 12.5895 19.7006C13.295 19.6039 13.6017 18.9986 14.0055 18.0474C14.3991 17.1217 14.8438 16.0636 16.0911 16.1094C16.7914 16.1298 17.277 16.3739 17.5428 16.8317C18.0131 17.6456 17.7064 19.0037 16.5716 21.1045C15.6055 22.8899 15.4572 24.4871 15.4521 24.4871C15.5288 26.7659 14.1435 28.5768 11.9199 29.0956C11.5365 29.1872 11.148 29.2279 10.7698 29.2279C9.22089 29.2279 7.73337 28.5107 6.76725 27.2492L6.77748 27.2593ZM14.7263 18.3526C14.3378 19.2682 13.8521 20.4025 12.5384 20.4839C12.4566 20.4941 12.3646 20.4839 12.2879 20.4432C12.2522 20.4229 12.2215 20.4025 12.1959 20.372C11.8739 20.1279 10.5908 19.0139 10.7238 16.7605C10.8618 14.4512 10.3097 13.7136 9.97232 13.4745C9.65539 13.2558 9.23623 13.2558 8.72505 13.4796C7.69248 13.9273 8.46435 15.967 8.97042 17.32L9.03687 17.4879C9.40492 18.4645 9.48671 20.1279 8.66882 20.5755C8.59215 20.6162 8.50525 20.6365 8.42346 20.6213C7.7027 20.5094 6.64968 20.138 5.70401 19.0088C4.2216 17.2234 3.3117 17.0555 2.90276 17.1166C2.52449 17.1674 2.21779 17.4574 1.99287 17.966C1.54304 18.9935 3.50595 19.9651 4.80434 20.6111L4.96791 20.6925C6.15895 21.2876 6.79281 21.8675 6.89505 22.4677C6.93594 22.7068 6.91038 23.073 6.55767 23.4342C6.22029 23.7801 5.23884 23.9174 4.61009 23.5715C2.57561 22.4474 1.67083 22.6203 1.3079 22.8238C0.975631 23.012 0.791608 23.3884 0.771161 23.9428C0.730267 25.0619 2.91299 25.2552 4.35961 25.3875L4.53853 25.4027C5.90848 25.5248 7.25287 26.654 7.3091 26.7049C7.32955 26.7252 7.34999 26.7456 7.37044 26.7659C8.38257 28.119 10.1001 28.7497 11.7512 28.3581C13.6272 27.9206 14.7518 26.4506 14.6854 24.482C14.6905 24.4108 14.8438 22.7068 15.8968 20.7535C17.1646 18.4035 17.0572 17.5388 16.8783 17.2336C16.8323 17.1573 16.6943 16.9131 16.0758 16.8979C16.0655 16.8979 16.0502 16.8979 16.04 16.8979C15.3857 16.8979 15.1147 17.4574 14.7263 18.3628V18.3526Z" fill="#141414"/>
<path d="M12.6153 24.5176C12.7431 24.5176 12.8658 24.4565 12.9425 24.3395C13.06 24.1615 13.0089 23.9224 12.83 23.8054C12.4364 23.5511 12.2013 23.2256 12.1144 22.8085C11.8946 21.7606 12.692 20.5296 12.7022 20.5195C12.8198 20.3414 12.7687 20.1024 12.5898 19.9854C12.4108 19.8684 12.1706 19.9192 12.053 20.0922C12.0121 20.1532 11.0664 21.5978 11.3527 22.961C11.4805 23.5816 11.8383 24.0801 12.4108 24.4514C12.4773 24.4921 12.5489 24.5125 12.6204 24.5125L12.6153 24.5176Z" fill="#141414"/>
<path d="M10.7128 24.9653C10.7997 24.9653 10.8917 24.9348 10.9632 24.8738C11.1268 24.7364 11.1473 24.4923 11.0092 24.3295C10.9786 24.2939 10.2987 23.5106 9.22524 23.4241C8.50959 23.3681 7.80417 23.6326 7.13453 24.2074C6.97095 24.3448 6.95562 24.5889 7.09363 24.7517C7.23165 24.9145 7.47701 24.9348 7.64059 24.7924C8.15177 24.3549 8.66805 24.1464 9.16389 24.1922C9.9051 24.2481 10.4112 24.8178 10.4163 24.828C10.493 24.9196 10.6003 24.9653 10.7128 24.9653Z" fill="#141414"/>
<path d="M50.9652 84.3211C51.9927 84.3211 52.8412 83.5022 52.8617 82.4747L53.4955 51.7158C53.516 50.673 52.6827 49.8133 51.6399 49.7879C50.5716 49.7574 49.7281 50.5967 49.7026 51.6344L49.0687 82.3933C49.0483 83.436 49.8815 84.2957 50.9243 84.316C50.9396 84.316 50.9499 84.316 50.9652 84.316V84.3211Z" fill="#141414"/>
<path d="M47.5092 78.0698C47.5092 78.0698 42.7603 75.2773 38.4051 76.2946C34.0499 77.3119 33.6512 83.2582 34.5253 84.3162C37.2703 87.6225 52.7334 85.593 54.773 84.5705C55.8669 84.0212 55.2279 78.7209 53.0043 77.8816C50.7807 77.0423 47.5092 78.0698 47.5092 78.0698Z" fill="#CE4730"/>
<path d="M34.2184 84.5653C33.5999 83.8176 33.5897 81.7473 34.198 79.9467C34.9238 77.795 36.3858 76.3606 38.3129 75.9079C42.3819 74.9567 46.686 77.1592 47.5601 77.6424C48.2808 77.439 51.0923 76.7319 53.1472 77.5102C54.8546 78.1562 55.6009 80.8572 55.6827 82.5154C55.7185 83.2581 55.6776 84.5552 54.9517 84.9163C53.73 85.5267 47.8157 86.5339 42.5352 86.5339C38.8292 86.5339 35.4452 86.0405 34.2184 84.5653ZM47.6265 78.4461C47.5192 78.4817 47.4016 78.4665 47.3045 78.4105C47.2585 78.3851 42.6324 75.7095 38.4867 76.681C36.258 77.1999 35.3072 79.1125 34.9392 80.201C34.3053 82.0678 34.5251 83.7108 34.8216 84.0668C37.4286 87.2053 52.6565 85.1859 54.5888 84.2194C54.7114 84.1584 54.9415 83.6752 54.8852 82.5612C54.7932 80.786 54.0111 78.6852 52.8559 78.2477C52.2629 78.0239 51.583 77.9425 50.9134 77.9425C49.247 77.9425 47.647 78.4359 47.6214 78.4461H47.6265Z" fill="#141414"/>
<path d="M50.0248 79.0465C50.9755 79.0465 52.0439 78.8125 53.1634 78.1461C53.3116 78.0597 53.3627 77.8664 53.2707 77.7138C53.1838 77.5663 52.9896 77.5154 52.8362 77.607C49.5034 79.5857 46.7532 77.3781 46.6408 77.2865C46.5079 77.1746 46.3085 77.1949 46.196 77.3272C46.0836 77.4595 46.104 77.6578 46.2369 77.7697C46.2574 77.7901 47.8114 79.0465 50.0196 79.0465H50.0248Z" fill="#282425"/>
<path d="M46.5595 80.3893C46.6004 80.3893 46.6464 80.3843 46.6873 80.369C46.8918 80.2978 47.0042 80.074 46.9327 79.8705C45.7927 76.6201 43.0222 75.9741 42.7103 75.9131C42.4957 75.8673 42.2861 76.0047 42.2452 76.2183C42.1992 76.4319 42.3372 76.6405 42.5519 76.6812C42.8177 76.7371 45.1895 77.2916 46.1863 80.1299C46.2426 80.2927 46.3959 80.3944 46.5595 80.3944V80.3893Z" fill="#141414"/>
<path d="M42.6066 85.2318C43.2456 85.2318 43.9203 85.2166 44.6411 85.1861C52.6205 84.8402 54.7726 84.1382 55.5445 83.1921C55.6569 83.0598 55.6314 82.8615 55.4984 82.7496C55.3604 82.6377 55.1611 82.6631 55.0537 82.7953C54.287 83.7364 51.0666 84.2756 44.6155 84.5553C37.6635 84.8554 34.4431 83.5024 34.4124 83.4871C34.2489 83.4159 34.0649 83.4871 33.9984 83.6499C33.9268 83.8076 33.9984 83.9958 34.162 84.0619C34.2847 84.1128 36.907 85.2268 42.6117 85.2268L42.6066 85.2318Z" fill="#282425"/>
<path d="M34.2798 83.777C34.2798 83.777 32.3732 85.4301 34.6939 87.3376C36.6517 88.9501 53.6125 88.4516 55.1767 86.478C56.792 84.4484 55.3965 82.5714 55.2841 83.2632C55.1716 83.955 39.1974 86.3457 34.285 83.7719L34.2798 83.777Z" fill="white"/>
<path d="M34.4439 87.6428C33.5953 86.9459 33.1608 86.1829 33.1506 85.3843C33.1353 84.2602 33.9889 83.5124 34.0247 83.4819C34.1474 83.3751 34.3263 83.3548 34.4694 83.4311C39.0342 85.8167 53.6232 83.6854 54.9369 83.0547C55.034 82.8105 55.2385 82.7545 55.305 82.7393C55.4583 82.7088 55.7497 82.724 56.0206 83.1716C56.3938 83.777 56.6954 85.2114 55.489 86.7323C54.9165 87.4495 52.882 87.9989 49.4418 88.36C47.3664 88.5787 44.8156 88.7059 42.4029 88.7059C38.7275 88.7059 35.364 88.4058 34.449 87.6479L34.4439 87.6428ZM55.3152 83.7414C53.4903 84.6468 39.3614 86.5237 34.3723 84.2602C34.1934 84.4789 33.9327 84.8858 33.9429 85.3793C33.948 85.9388 34.2905 86.4932 34.9499 87.0426C36.0387 87.9378 43.3077 88.2074 49.36 87.5767C52.9382 87.2054 54.5535 86.6458 54.8705 86.244C55.5299 85.4149 55.6014 84.6824 55.5452 84.2093C55.5196 83.9906 55.4634 83.8177 55.4072 83.7007C55.3714 83.721 55.3356 83.7413 55.3152 83.7515V83.7414Z" fill="#141414"/>
<path d="M48.6136 74.8549C48.6136 74.8549 50.9804 76.1215 52.933 74.9007C53.9401 75.2059 54.6506 78.6801 53.3727 79.1277C51.0264 79.9518 48.2353 79.0718 47.7139 78.3291C46.8705 77.1185 46.8909 75.0686 48.6136 74.8499V74.8549Z" fill="white"/>
<path d="M47.3863 78.5581C46.7627 77.6679 46.594 76.4471 46.9774 75.5926C47.2585 74.9567 47.8259 74.5549 48.562 74.4633C48.6438 74.4531 48.7256 74.4633 48.7972 74.5091C48.8176 74.5193 50.9901 75.6536 52.7179 74.5701C52.815 74.5091 52.9326 74.4938 53.045 74.5244C53.9651 74.799 54.4303 76.4776 54.4508 77.5255C54.4763 78.5733 54.1338 79.2753 53.5 79.4991C52.7894 79.7483 52.0227 79.8552 51.2866 79.8552C49.5128 79.8552 47.8719 79.2499 47.3914 78.5581H47.3863ZM48.5467 75.2619C48.1429 75.3433 47.8566 75.562 47.6981 75.913C47.4272 76.5183 47.5703 77.439 48.0355 78.1104C48.4496 78.7005 51.031 79.5347 53.2393 78.7615C53.5153 78.6649 53.6789 78.1969 53.6636 77.5458C53.6431 76.5336 53.2495 75.6282 52.9377 75.3586C51.1077 76.3555 49.0681 75.5163 48.5467 75.267V75.2619Z" fill="#141414"/>
<path d="M55.9531 73.451C56.8528 73.451 57.6502 72.8101 57.8189 71.8996C58.008 70.8721 57.3231 69.8904 56.2905 69.7073C52.6458 69.0511 49.9775 67.3929 48.1372 64.6512C43.6031 57.891 45.9187 46.97 45.9443 46.8581C46.1692 45.8408 45.52 44.8336 44.4977 44.6149C43.4753 44.3911 42.4632 45.0371 42.2383 46.0544C42.1258 46.5631 39.5444 58.6286 44.9731 66.7367C47.3807 70.338 50.964 72.5863 55.6157 73.4256C55.7282 73.446 55.8458 73.4561 55.9582 73.4561L55.9531 73.451Z" fill="#141414"/>
<path d="M44.8103 84.5145C44.8103 84.5145 43.5732 86.6814 45.347 89.2807C46.5943 91.1017 51.9616 91.3865 55.4989 89.2807C59.0363 87.1748 59.4094 86.5288 60.0382 79.5245C60.6669 72.5202 61.1526 66.6349 57.0938 68.2118L55.4223 84.957L44.8052 84.5145H44.8103Z" fill="white"/>
<path d="M45.0195 89.4994C43.1282 86.7323 44.4061 84.4179 44.4623 84.3212C44.5339 84.1941 44.677 84.1025 44.8202 84.1228L55.0641 84.5501L56.6999 68.1762C56.7152 68.0287 56.8123 67.9015 56.9504 67.8507C57.9625 67.4539 58.7446 67.4692 59.3376 67.8863C60.7024 68.8477 60.6206 71.6911 60.503 75.6281C60.4673 76.8795 60.4264 78.1715 60.4315 79.5296C60.4468 84.3416 59.7925 87.1799 56.158 89.3468C54.3127 90.4506 51.7875 91.0051 49.5792 91.0051C47.4987 91.0051 45.7045 90.5117 45.0195 89.5096V89.4994ZM57.4615 68.4967L55.8156 84.9977C55.7951 85.2063 55.6162 85.3742 55.4066 85.3538L45.0553 84.9214C44.8253 85.4911 44.3601 87.1392 45.6738 89.062C46.7524 90.6388 52.3447 90.6999 55.7542 88.6652C59.0769 86.6814 59.6545 84.1381 59.6391 79.5245C59.6391 78.1562 59.6749 76.854 59.7107 75.5976C59.8129 72.1845 59.8998 69.2393 58.8826 68.5221C58.7139 68.4051 58.5095 68.3441 58.259 68.3441C58.0289 68.3441 57.7631 68.395 57.4615 68.4967Z" fill="#141414"/>
<path d="M51.9156 68.3289C51.9156 68.3289 57.559 66.6147 57.5743 69.2292C57.5794 70.333 57.3085 80.0383 56.9507 82.8309C56.5929 85.6234 48.7616 89.001 45.8275 85.9897C42.8985 82.9784 45.7253 78.2885 48.7668 78.5988C48.7668 78.5988 50.06 74.8652 49.6664 72.2964L51.9105 68.3289H51.9156Z" fill="#CE4730"/>
<path d="M45.5466 86.2594C43.8444 84.5096 44.0029 82.3122 44.7236 80.837C45.5108 79.2144 46.9933 78.1869 48.491 78.1869C48.7721 77.2866 49.6003 74.4024 49.2833 72.3525C49.268 72.266 49.2833 72.1745 49.3293 72.0982L51.5734 68.1306C51.6245 68.0441 51.7063 67.978 51.8034 67.9475C52.2072 67.8254 55.8161 66.7725 57.3139 67.8712C57.7433 68.1866 57.9733 68.6494 57.9733 69.2191C57.9784 70.4043 57.6973 80.1198 57.3497 82.8717C57.1248 84.6418 54.5996 86.2543 52.3504 86.997C51.2207 87.3734 50.1421 87.5565 49.1658 87.5565C47.6578 87.5565 46.3901 87.114 45.5569 86.2543L45.5466 86.2594ZM52.1817 68.6545L50.0808 72.3678C50.4232 74.9925 49.1964 78.5684 49.1453 78.721C49.084 78.8939 48.9102 79.0058 48.7313 78.9855C47.4635 78.8482 46.1345 79.7383 45.4342 81.1829C44.6572 82.7801 44.9077 84.474 46.114 85.7151C47.2795 86.9105 49.5134 87.1139 52.0948 86.2594C54.4871 85.4659 56.4091 83.9704 56.5625 82.7801C56.9101 80.0537 57.1912 70.4094 57.181 69.2293C57.181 68.9038 57.0736 68.68 56.8436 68.5121C56.5011 68.2629 55.9439 68.1662 55.3203 68.1662C54.2111 68.1662 52.8871 68.4561 52.1817 68.6596V68.6545Z" fill="#141414"/>
<path d="M48.1982 69.9821C48.1982 69.9821 50.2174 68.858 50.2327 66.8844C50.9177 66.2994 53.7854 67.393 53.5196 68.5223C53.034 70.5976 51.1017 72.2101 50.3196 72.2406C49.0468 72.2915 47.5644 71.325 48.1982 69.9821Z" fill="#EBE5DA"/>
<path d="M48.1982 69.9821C48.1982 69.9821 50.2174 68.858 50.2327 66.8844C50.9177 66.2994 53.7854 67.393 53.5196 68.5223C53.034 70.5976 51.1017 72.2101 50.3196 72.2406C49.0468 72.2915 47.5644 71.325 48.1982 69.9821Z" fill="white"/>
<path d="M47.9327 71.5335C47.5902 71.0197 47.5544 70.4093 47.8406 69.8142C47.8764 69.743 47.9327 69.6769 48.0042 69.6413C48.0247 69.6311 49.824 68.5985 49.8342 66.8843C49.8342 66.7724 49.8854 66.6605 49.9722 66.5893C50.6214 66.0348 52.0885 66.4774 52.8757 66.9555C53.6629 67.4286 54.0361 68.0339 53.8981 68.6138C53.392 70.7756 51.378 72.5915 50.3301 72.6322C50.2943 72.6322 50.2585 72.6322 50.2176 72.6322C49.2975 72.6322 48.3672 72.1897 47.9275 71.5284L47.9327 71.5335ZM50.6112 67.1285C50.4732 68.8935 48.955 69.9719 48.5052 70.2517C48.3876 70.5569 48.4183 70.8417 48.587 71.1011C48.8937 71.5589 49.6093 71.8794 50.2943 71.8489C50.8055 71.8285 52.6559 70.4246 53.1211 68.4357C53.1722 68.217 52.9115 67.9016 52.4566 67.627C51.884 67.2811 51.2042 67.1132 50.8004 67.1132C50.7237 67.1132 50.6572 67.1183 50.6061 67.1285H50.6112Z" fill="#141414"/>
<path d="M52.845 80.7913C52.9267 80.7913 53.0034 80.7659 53.075 80.7201C53.2539 80.5929 53.2948 80.3488 53.167 80.1707C51.9964 78.5379 48.454 78.5176 48.3057 78.5176C48.0859 78.5176 47.9121 78.6956 47.9121 78.9093C47.9121 79.128 48.091 79.3009 48.3057 79.3009C49.2156 79.3009 51.7459 79.54 52.5229 80.6234C52.5996 80.7303 52.7223 80.7862 52.845 80.7862V80.7913Z" fill="#141414"/>
<path d="M69.8782 7.8589C68.6565 6.01245 64.9095 1.48025 55.8566 0.971588C46.8548 0.462924 43.3226 6.73984 41.9629 8.8101C23.9541 8.67785 21.7765 14.0951 24.5982 13.9985C27.4199 13.9018 31.7905 13.2151 34.0908 13.5203C41.5846 10.1174 57.8093 6.46516 68.4264 26.9185C74.7497 20.8298 72.1785 11.3331 69.8782 7.8589Z" fill="#5566AB"/>
<path d="M46.0301 56.1514C58.7569 56.1514 69.0739 45.8851 69.0739 33.2209C69.0739 20.5567 58.7569 10.2903 46.0301 10.2903C33.3034 10.2903 22.9863 20.5567 22.9863 33.2209C22.9863 45.8851 33.3034 56.1514 46.0301 56.1514Z" fill="#D29E60"/>
<path d="M46.0307 56.5328C33.1133 56.5328 22.6035 46.0747 22.6035 33.2208C22.6035 20.3668 33.1133 9.90869 46.0307 9.90869C58.9481 9.90869 69.4579 20.3668 69.4579 33.2208C69.4579 46.0747 58.9481 56.5328 46.0307 56.5328ZM46.0307 10.6717C33.5376 10.6717 23.3703 20.789 23.3703 33.2208C23.3703 45.6525 33.5376 55.7698 46.0307 55.7698C58.5238 55.7698 68.6911 45.6525 68.6911 33.2208C68.6911 20.789 58.5238 10.6717 46.0307 10.6717Z" fill="#141414"/>
<path d="M46.0299 52.5655C56.7663 52.5655 65.4699 43.9046 65.4699 33.221C65.4699 22.5373 56.7663 13.8765 46.0299 13.8765C35.2934 13.8765 26.5898 22.5373 26.5898 33.221C26.5898 43.9046 35.2934 52.5655 46.0299 52.5655Z" fill="#FDF2D3"/>
<path d="M46.0304 52.952C35.1015 52.952 26.207 44.1012 26.207 33.226C26.207 22.3508 35.1015 13.5 46.0304 13.5C56.9594 13.5 65.8538 22.3508 65.8538 33.226C65.8538 44.1012 56.9594 52.952 46.0304 52.952ZM46.0304 14.2579C35.5207 14.2579 26.9738 22.7628 26.9738 33.2209C26.9738 43.679 35.5258 52.1839 46.0304 52.1839C56.5351 52.1839 65.0871 43.674 65.0871 33.2209C65.0871 22.7679 56.5402 14.2579 46.0304 14.2579Z" fill="#141414"/>
<path d="M37.607 26.7863C37.607 26.7863 37.5508 26.7965 37.5508 26.766C37.5354 25.1942 38.5731 22.2338 40.5002 20.6671C40.0913 20.1635 39.6108 19.8634 39.0945 19.8329C37.2645 19.7261 35.5827 22.951 35.3425 27.0356C35.0971 31.1202 36.3853 34.5231 38.2153 34.6299C40.0453 34.7368 41.7271 31.5118 41.9673 27.4273C42.0593 25.8758 41.9315 24.4261 41.635 23.2155C39.6926 24.1769 38.3533 25.9114 37.607 26.7863Z" fill="#221F20"/>
<path d="M50.8936 28.0224C50.8936 28.0224 50.8374 28.0326 50.8374 28.002C50.8272 26.649 51.5888 24.2684 53.0354 22.6306C52.6572 22.0252 52.1818 21.6488 51.6399 21.5776C49.8559 21.3436 47.9697 24.4414 47.4278 28.5005C46.886 32.5597 47.893 36.0389 49.677 36.2729C51.461 36.5069 53.3473 33.4091 53.8891 29.35C54.0987 27.7935 54.0782 26.3184 53.8687 25.0823C52.4885 26.0488 51.5019 27.3103 50.8987 28.0173L50.8936 28.0224Z" fill="#221F20"/>
<path d="M61.7237 16.5571C61.7237 16.5571 60.6604 18.3324 55.3493 18.3781C50.0382 18.429 46.7973 14.8785 43.8223 13.4237C40.8421 11.9639 35.7917 11.0025 32.0039 11.6383C40.7961 8.4134 44.5686 8.01665 52.8957 11.323C57.3582 13.0931 61.7288 16.5571 61.7288 16.5571H61.7237Z" fill="#5566AB"/>
<path d="M45.454 45.9629C45.3364 45.9629 45.224 45.912 45.1473 45.8103C44.769 45.3168 44.2834 45.0066 43.67 44.8641C43.2253 44.7624 42.7345 44.7471 42.1722 44.8184C41.9882 44.8387 41.8093 44.8845 41.6304 44.9252C41.3953 44.9811 41.1499 45.0371 40.8892 45.0574C39.8566 45.1388 38.8956 44.7471 38.3742 44.0299C37.6483 43.038 37.5819 41.395 38.226 40.3675C38.64 39.7012 39.3352 39.2027 40.0355 39.0705C40.6029 38.9585 41.1448 39.0806 41.61 39.4163C41.7735 39.5333 41.932 39.6351 42.1569 39.6198C42.4227 39.5944 42.5454 39.513 43.0617 39.1366C43.2304 39.0094 43.4706 39.0501 43.5984 39.2231C43.7211 39.3909 43.6853 39.63 43.5115 39.7572C42.9799 40.1437 42.7141 40.337 42.2285 40.3828C41.6968 40.4286 41.3339 40.1641 41.155 40.0369C40.8636 39.8233 40.5365 39.7521 40.1787 39.8233C39.6777 39.9199 39.1768 40.2862 38.87 40.7745C38.3947 41.5375 38.4509 42.8498 38.9876 43.5874C39.4272 44.1876 40.2196 44.3555 40.8227 44.3046C41.0272 44.2893 41.2317 44.2385 41.4515 44.1876C41.6508 44.1418 41.8553 44.0961 42.0751 44.0655C42.7294 43.9841 43.3071 44.0045 43.8387 44.1266C44.6259 44.3097 45.27 44.7217 45.7556 45.3575C45.8834 45.5254 45.8527 45.7645 45.684 45.8916C45.6125 45.9425 45.5358 45.9679 45.454 45.9679V45.9629Z" fill="#141414"/>
<path d="M43.8217 36.5527C45.1147 36.5527 46.1628 35.5096 46.1628 34.223C46.1628 32.9363 45.1147 31.8933 43.8217 31.8933C42.5287 31.8933 41.4805 32.9363 41.4805 34.223C41.4805 35.5096 42.5287 36.5527 43.8217 36.5527Z" fill="#221F20"/>
<path d="M43.8222 36.9341C42.3194 36.9341 41.0977 35.7184 41.0977 34.2229C41.0977 32.7274 42.3194 31.5117 43.8222 31.5117C45.3251 31.5117 46.5468 32.7274 46.5468 34.2229C46.5468 35.7184 45.3251 36.9341 43.8222 36.9341ZM43.8222 32.2747C42.7436 32.2747 41.8644 33.1496 41.8644 34.2229C41.8644 35.2962 42.7436 36.1711 43.8222 36.1711C44.9008 36.1711 45.78 35.2962 45.78 34.2229C45.78 33.1496 44.9008 32.2747 43.8222 32.2747Z" fill="#141414"/>
<path d="M30.5276 34.0957L33.9627 32.7274C34.5199 32.5036 35.1487 32.5596 35.6547 32.8749L36.217 33.2208H41.1601V35.2351H36.217L35.6547 35.581C35.1435 35.8964 34.5199 35.9473 33.9627 35.7285L30.5276 34.3602C30.4101 34.3145 30.4101 34.1517 30.5276 34.1059V34.0957Z" fill="white"/>
<path d="M34.6623 36.2373C34.3761 36.2373 34.0898 36.1864 33.8189 36.0745L30.3838 34.7062C30.1844 34.6248 30.0566 34.4366 30.0566 34.223C30.0566 34.0094 30.1844 33.8211 30.3838 33.7398L33.8189 32.3715C34.4834 32.107 35.2451 32.1731 35.8585 32.5495L36.3237 32.8394H41.5428V35.6167H36.3237L35.8534 35.9067C35.4904 36.1305 35.0764 36.2424 34.6572 36.2424L34.6623 36.2373ZM31.2375 34.223L34.1052 35.3675C34.5448 35.5455 35.0508 35.4997 35.4547 35.2505L36.109 34.8487H40.776V33.5973H36.109L35.4547 33.1955C35.0508 32.9462 34.5448 32.9005 34.1052 33.0785L31.2375 34.223Z" fill="#141414"/>
<path d="M44.6672 35.3216L45.25 33.3938L51.4659 35.2657L52.1048 35.0978C52.6825 34.9452 53.301 35.0724 53.7661 35.4437L56.6543 37.7429C56.7514 37.8192 56.7054 37.9769 56.5776 37.987L52.892 38.3075C52.294 38.3584 51.7112 38.1244 51.3125 37.6818L50.878 37.1884L44.6621 35.3165L44.6672 35.3216Z" fill="white"/>
<path d="M52.7383 38.6991C52.0942 38.6991 51.4654 38.4193 51.036 37.9361L50.6731 37.5241L44.1914 35.5759L44.9991 32.9207L51.4808 34.8688L52.0124 34.7264C52.7025 34.5433 53.4539 34.701 54.0162 35.1435L56.9043 37.4427C57.073 37.5749 57.1395 37.7937 57.0781 37.9971C57.0168 38.2006 56.8379 38.343 56.6232 38.3634L52.9376 38.6838C52.8712 38.6889 52.8047 38.694 52.7434 38.694L52.7383 38.6991ZM45.1473 35.0672L51.1025 36.8577L51.6137 37.4325C51.9306 37.7886 52.3958 37.9768 52.8712 37.931L55.9484 37.6614L53.5357 35.7387C53.1677 35.4436 52.6718 35.3368 52.2118 35.464L51.4706 35.6624L45.5154 33.8719L45.1524 35.0672H45.1473Z" fill="#141414"/>
<path d="M43.5717 36.5527C44.8647 36.5527 45.9128 35.5096 45.9128 34.223C45.9128 32.9363 44.8647 31.8933 43.5717 31.8933C42.2786 31.8933 41.2305 32.9363 41.2305 34.223C41.2305 35.5096 42.2786 36.5527 43.5717 36.5527Z" fill="#141414"/>
<path d="M43.5722 36.9341C42.0694 36.9341 40.8477 35.7184 40.8477 34.2229C40.8477 32.7274 42.0694 31.5117 43.5722 31.5117C45.0751 31.5117 46.2968 32.7274 46.2968 34.2229C46.2968 35.7184 45.0751 36.9341 43.5722 36.9341ZM43.5722 32.2747C42.4936 32.2747 41.6144 33.1496 41.6144 34.2229C41.6144 35.2962 42.4936 36.1711 43.5722 36.1711C44.6508 36.1711 45.53 35.2962 45.53 34.2229C45.53 33.1496 44.6508 32.2747 43.5722 32.2747Z" fill="#141414"/>
<path d="M42.7435 36.5527C44.0365 36.5527 45.0847 35.5096 45.0847 34.223C45.0847 32.9363 44.0365 31.8933 42.7435 31.8933C41.4505 31.8933 40.4023 32.9363 40.4023 34.223C40.4023 35.5096 41.4505 36.5527 42.7435 36.5527Z" fill="#CE4730"/>
<path d="M42.7441 36.9341C41.2412 36.9341 40.0195 35.7184 40.0195 34.2229C40.0195 32.7274 41.2412 31.5117 42.7441 31.5117C44.247 31.5117 45.4687 32.7274 45.4687 34.2229C45.4687 35.7184 44.247 36.9341 42.7441 36.9341ZM42.7441 32.2747C41.6655 32.2747 40.7863 33.1496 40.7863 34.2229C40.7863 35.2962 41.6655 36.1711 42.7441 36.1711C43.8227 36.1711 44.7019 35.2962 44.7019 34.2229C44.7019 33.1496 43.8227 32.2747 42.7441 32.2747Z" fill="#141414"/>
<path d="M40.0033 43.7552C40.4776 43.7552 40.8621 43.0469 40.8621 42.1733C40.8621 41.2996 40.4776 40.5913 40.0033 40.5913C39.529 40.5913 39.1445 41.2996 39.1445 42.1733C39.1445 43.0469 39.529 43.7552 40.0033 43.7552Z" fill="#221F20"/>
<path d="M65.0834 16.552C64.9709 16.552 64.8585 16.5011 64.7869 16.4096C64.654 16.2468 64.6795 16.0077 64.8431 15.8755C64.8636 15.8602 66.76 14.2681 67.0514 10.3667C67.3325 6.57202 65.5485 4.08974 64.3626 3.41321C64.1786 3.31148 64.1121 3.0775 64.2195 2.89438C64.3268 2.71126 64.5569 2.64513 64.7409 2.75195C66.1466 3.54547 68.1249 6.24647 67.8182 10.4226C67.5063 14.675 65.4156 16.3994 65.3287 16.4706C65.2572 16.5266 65.1754 16.5571 65.0885 16.5571L65.0834 16.552Z" fill="#141414"/>
<path d="M55.4321 18.8257C51.5318 18.8257 48.6795 16.9182 46.3792 15.3821C45.4897 14.7869 44.6463 14.2223 43.8437 13.8306C41.0067 12.442 35.987 11.3585 32.2656 12.0808C32.056 12.1164 31.8567 11.9842 31.8158 11.7807C31.7749 11.5722 31.9129 11.3738 32.1174 11.3331C36.0023 10.5803 41.2316 11.7095 44.1811 13.149C45.0297 13.5661 45.8936 14.1409 46.8086 14.7513C49.1344 16.3078 51.7721 18.0678 55.4321 18.0678C55.4679 18.0678 55.5037 18.0678 55.5394 18.0678C60.457 18.022 61.3873 16.5876 61.3975 16.5723C61.5049 16.3943 61.74 16.3333 61.9189 16.435C62.0978 16.5367 62.1694 16.7605 62.0723 16.9437C61.97 17.1319 60.9375 18.785 55.5497 18.8359C55.5139 18.8359 55.4781 18.8359 55.4423 18.8359L55.4321 18.8257Z" fill="#141414"/>
<path d="M68.4 27.0457L68.1444 26.649C67.8224 26.1556 67.4697 25.4485 67.0608 24.6347C65.8135 22.1524 63.9272 18.4035 60.7119 16.1298C52.6047 10.4023 43.6182 8.11836 34.0184 9.34424C26.3507 10.3209 23.9124 12.4115 23.9789 13.2101C23.9993 13.4746 24.444 13.6526 25.0574 13.6272C26.1514 13.5916 27.2964 13.4542 28.4005 13.3169C30.3328 13.0778 32.1526 12.8591 33.7168 13.1643C33.9263 13.205 34.0592 13.4034 34.0184 13.6119C33.9775 13.8205 33.7781 13.9527 33.5685 13.912C32.127 13.6272 30.3634 13.8459 28.4977 14.0748C27.3782 14.2122 26.2178 14.3546 25.0881 14.3902C23.7897 14.4309 23.2683 13.8357 23.2223 13.266C23.0945 11.6841 26.3916 9.54262 33.9315 8.58125C36.6611 8.23535 39.3397 8.16414 41.962 8.36761L42.0285 8.26587C43.5313 5.94637 47.0329 0.53418 55.4468 0.53418C55.5184 0.53418 55.5849 0.53418 55.6564 0.53418C59.4953 0.574873 62.9458 1.54133 65.9055 3.40305C68.625 5.11724 70.0307 7.05017 70.3936 7.59952C72.2083 10.3361 75.7968 19.7261 68.7476 26.6999L68.4103 27.0305L68.4 27.0457ZM42.8106 8.45408C49.2923 9.11534 55.4366 11.4755 61.1516 15.5143C64.5202 17.8949 66.4576 21.7506 67.7406 24.299C68.032 24.8788 68.2978 25.4028 68.5329 25.825C74.754 19.253 71.4262 10.5956 69.7342 8.03697C69.2844 7.36045 65.0774 1.40908 55.6309 1.31244C55.5644 1.31244 55.498 1.31244 55.4366 1.31244C47.7025 1.31244 44.3237 6.13457 42.8106 8.45917V8.45408Z" fill="#141414"/>
</g>
<defs>
<clipPath id="clip0_237_3972">
<rect width="102" height="91" fill="white"/>
</clipPath>
</defs>
</svg>
