<svg width="182" height="29" viewBox="0 0 182 29" fill="none" xmlns="http://www.w3.org/2000/svg">
<g clip-path="url(#clip0_358_1073)">
<path d="M17.3232 11.8572C17.3406 11.9541 17.3624 12.051 17.3928 12.1435C17.4495 12.3065 17.5365 12.4386 17.6585 12.5487C17.7107 12.5972 17.7804 12.6236 17.8719 12.6236C17.9415 12.6236 18.0243 12.6104 18.1157 12.5839C18.2856 12.5311 18.4423 12.4298 18.5773 12.2756C18.6165 12.2316 18.6514 12.1919 18.6862 12.1479C18.6078 12.1523 18.5338 12.1523 18.4554 12.1523C18.0417 12.1435 17.6585 12.0422 17.3145 11.8528L17.3232 11.8572Z" fill="#FFC700"/>
<path d="M19.1522 7.84909C19.0607 7.78742 18.9562 7.75659 18.8256 7.75659C18.6296 7.75659 18.3814 7.81385 18.0983 7.94159C18.0722 7.9548 18.0461 7.96801 18.0199 7.98563C17.837 8.11337 17.6803 8.24991 17.5496 8.39086C17.567 8.39526 17.5801 8.39967 17.5975 8.40847C17.7412 8.47014 17.7978 8.56264 17.824 8.62871C17.8457 8.68597 17.8501 8.74323 17.8414 8.79168C17.837 8.82691 17.824 8.86655 17.8065 8.9062C17.7194 9.18809 17.628 9.45677 17.5409 9.71665C17.4364 10.0118 17.358 10.3509 17.3145 10.6945C17.493 10.9543 17.7369 11.1393 18.0548 11.2583C18.2159 11.3199 18.3901 11.3508 18.5643 11.3552C18.7559 11.3552 18.9606 11.3287 19.174 11.2627L19.2436 11.2406C19.3569 10.9676 19.4527 10.6724 19.5354 10.3509C19.6225 10.0029 19.6748 9.65058 19.6835 9.30261C19.6922 8.96346 19.6486 8.65513 19.5528 8.38205C19.4701 8.1442 19.3394 7.96801 19.1522 7.84028V7.84909Z" fill="#FFC700"/>
<path d="M13.9662 9.42135C13.8747 9.35969 13.7702 9.32886 13.6396 9.32886C13.4393 9.32886 13.191 9.39052 12.9123 9.51826C12.8862 9.53147 12.8601 9.54468 12.8339 9.5623C12.651 9.69004 12.4943 9.82217 12.368 9.96753C12.3854 9.97193 12.3985 9.97634 12.4159 9.98515C12.5596 10.0468 12.6162 10.1393 12.6423 10.2054C12.6597 10.2626 12.6685 10.3199 12.6597 10.3683C12.6554 10.4036 12.6423 10.4432 12.6249 10.4829C12.5378 10.7648 12.4464 11.0378 12.3593 11.2933C12.2722 11.54 12.2068 11.8131 12.1589 12.0994C12.1546 12.1566 12.1459 12.2139 12.1328 12.2755C12.3114 12.5354 12.5552 12.7204 12.8731 12.8393C13.0343 12.901 13.2084 12.9318 13.3826 12.9362C13.5742 12.9362 13.7789 12.9098 13.9923 12.8437L14.062 12.8217C14.1752 12.5486 14.271 12.2535 14.3538 11.932C14.4409 11.584 14.4931 11.2317 14.5018 10.8837C14.5105 10.5445 14.467 10.2362 14.3712 9.96312C14.2884 9.72527 14.1578 9.54909 13.9705 9.42135H13.9662Z" fill="#FFC700"/>
<path d="M12.1376 13.4297C12.155 13.5266 12.1768 13.6235 12.2073 13.716C12.2639 13.879 12.351 14.0111 12.4729 14.1212C12.5252 14.1697 12.5949 14.1961 12.6863 14.1961C12.756 14.1961 12.8387 14.1829 12.9302 14.1565C13.1 14.1036 13.2568 14.0023 13.3918 13.8481C13.431 13.8041 13.4658 13.7644 13.5007 13.7204C13.4223 13.7248 13.3482 13.7248 13.2699 13.7248C12.8562 13.716 12.4729 13.6147 12.1289 13.4253L12.1376 13.4297Z" fill="#FFC700"/>
<path d="M21.7262 13.2712C21.8873 13.0201 22.0528 12.7118 22.2183 12.3594C22.3837 12.007 22.5274 11.6459 22.645 11.2803C22.7583 10.9279 22.8149 10.6152 22.8192 10.3421C22.8192 10.2981 22.8192 10.2584 22.8192 10.2232C22.8149 10.1791 22.8105 10.1615 22.8062 10.1527C22.7887 10.1042 22.78 10.1042 22.767 10.1042C22.7583 10.1042 22.7365 10.1042 22.706 10.1131C22.6799 10.1219 22.6494 10.1351 22.6189 10.1527C22.5841 10.1703 22.5492 10.1967 22.5144 10.2232C22.2618 10.417 22.0441 10.6945 21.8568 11.0424C21.6652 11.4036 21.4997 11.8265 21.3691 12.2933C21.2341 12.7646 21.1209 13.258 21.0381 13.7689C20.9989 14.0023 20.9641 14.2358 20.9336 14.4648C21.012 14.3459 21.0904 14.2314 21.1644 14.1257C21.3604 13.8482 21.552 13.5575 21.7349 13.2624L21.7262 13.2712Z" fill="#FFC700"/>
<path d="M26.9519 16.1298C27.4048 15.773 27.714 15.3413 27.8664 14.8568C27.9666 14.5353 27.9709 14.249 27.8795 13.9847C27.8577 13.923 27.8229 13.879 27.7837 13.8526C27.7706 13.8438 27.7532 13.8394 27.7314 13.8394C27.7009 13.8394 27.6617 13.8438 27.6182 13.857C27.3918 13.9274 27.2001 14.064 27.039 14.2754C26.8692 14.5 26.7298 14.7599 26.6297 15.0506C26.5251 15.3501 26.4468 15.6408 26.3989 15.9183C26.3684 16.0901 26.3466 16.2443 26.3379 16.3764C26.4685 16.3412 26.6035 16.2927 26.7603 16.2311C26.83 16.2046 26.8953 16.1694 26.9519 16.1254V16.1298Z" fill="#FFC700"/>
<path d="M31.7813 17.5566C31.5287 17.6359 31.2979 17.6711 31.0889 17.6667C30.8145 17.6623 30.575 17.583 30.3703 17.4377C30.1221 17.2571 29.9262 17.028 29.7781 16.7549C29.5865 17.2042 29.3426 17.6094 29.0421 17.9574C28.7025 18.3582 28.2496 18.6489 27.7052 18.8207C27.4526 18.9 27.2218 18.9352 27.0128 18.9308C26.7384 18.9264 26.4989 18.8471 26.2943 18.7018C26.046 18.5212 25.8501 18.2922 25.702 18.0191C25.641 18.1644 25.5801 18.3098 25.5191 18.4507C25.371 18.7855 25.2143 19.0542 25.0619 19.2392C24.8441 19.5387 24.5393 19.7545 24.1604 19.869C24.0036 19.9175 23.8469 19.9395 23.6988 19.9395C23.5725 19.9395 23.4462 19.9175 23.3243 19.8778C23.0369 19.7853 22.8322 19.5783 22.719 19.2568C22.5796 18.8604 22.5448 18.4067 22.6188 17.909C22.6885 17.4289 22.8104 16.9355 22.9803 16.451C23.1501 15.9709 23.3156 15.5393 23.4811 15.1561C23.5725 14.9755 23.5769 14.883 23.5725 14.8345C23.5682 14.8345 23.5594 14.8345 23.5551 14.8345C23.5507 14.8345 23.5246 14.8345 23.4811 14.8477C23.2938 14.905 23.1327 15.0283 22.9846 15.2177C22.8235 15.4292 22.6841 15.6142 22.5796 15.7639C22.2443 16.2396 21.9351 16.7682 21.6695 17.3408C21.3995 17.9178 21.1904 18.4419 21.0467 18.8956C21.0032 19.0498 20.9771 19.2347 20.9814 19.4374C20.9814 19.662 20.9858 19.869 20.9945 20.0628C21.0032 20.2919 20.9814 20.4592 20.9248 20.5826C20.8421 20.7808 20.7114 20.9041 20.5372 20.9614C20.4806 20.979 20.424 20.9878 20.3674 20.9878C20.289 20.9878 20.215 20.9658 20.1409 20.9305C20.0146 20.8645 19.9275 20.7632 19.8796 20.6222C19.8535 20.5429 19.8405 20.4857 19.8405 20.4416C19.8405 20.3932 19.8361 20.3359 19.8317 20.283C19.7011 20.5165 19.5487 20.7323 19.3832 20.9349C19.0435 21.349 18.595 21.6441 18.0506 21.8114C17.8068 21.8863 17.576 21.9216 17.3582 21.9172C17.0621 21.9128 16.7921 21.8291 16.5482 21.6749C16.1389 21.415 15.8558 21.0671 15.7034 20.6398C15.6076 20.3755 15.5597 20.1025 15.5597 19.825C15.5597 19.5563 15.5902 19.2876 15.6468 19.0321C15.6947 18.7767 15.7774 18.486 15.895 18.16C16.0082 17.8341 16.1606 17.5037 16.3436 17.1778C16.5308 16.8474 16.7573 16.5479 17.0185 16.2925C17.2885 16.0282 17.6064 15.8388 17.9635 15.7243C18.1072 15.6802 18.2466 15.6582 18.3729 15.6582C18.5384 15.6582 18.6908 15.7066 18.8214 15.7859C19.0522 15.9269 19.209 16.1207 19.2961 16.3717C19.3266 16.4554 19.344 16.5744 19.3571 16.7505C19.3658 16.9091 19.3658 17.0853 19.3571 17.2615C19.344 17.4509 19.3048 17.6227 19.2482 17.7768C19.1567 18.0147 19 18.1072 18.8868 18.1424C18.8432 18.1556 18.7953 18.1644 18.7474 18.16C18.6908 18.16 18.6342 18.1468 18.5776 18.1248C18.4339 18.0675 18.3772 17.975 18.3511 17.9046C18.325 17.8297 18.338 17.7372 18.4034 17.5478C18.4426 17.4289 18.4774 17.2879 18.5035 17.1205C18.5253 16.9752 18.5122 16.8342 18.4643 16.6933C18.4382 16.6228 18.399 16.5656 18.338 16.5171C18.3293 16.5083 18.3076 16.4951 18.2684 16.4951C18.2335 16.4951 18.1943 16.4995 18.1464 16.5171C17.9287 16.5832 17.724 16.7197 17.5411 16.9223C17.3495 17.1337 17.1797 17.3804 17.0447 17.6535C16.9053 17.9354 16.7877 18.2129 16.7006 18.4816C16.6135 18.7414 16.5482 18.9661 16.5177 19.1555C16.4785 19.3405 16.4655 19.5299 16.4742 19.7149C16.4829 19.8954 16.5177 20.076 16.5787 20.2478C16.6397 20.4196 16.7268 20.5826 16.8444 20.7367C16.9532 20.8821 17.0839 20.979 17.2493 21.045C17.3147 21.0715 17.3887 21.0847 17.4671 21.0847C17.576 21.0847 17.6979 21.0671 17.8285 21.0274C18.1029 20.9437 18.3468 20.794 18.5558 20.587C18.7735 20.3711 18.9434 20.1509 19.0653 19.9219C19.2003 19.6884 19.3048 19.4814 19.3788 19.3096C19.4529 19.129 19.5269 18.9308 19.5922 18.715C19.6576 18.508 19.7359 18.2481 19.8187 17.9574C19.8317 17.6403 19.8492 17.3231 19.8709 17.006C19.9145 16.4158 19.9755 15.1296 20.0408 14.6407C20.0843 14.2884 20.1453 13.8831 20.215 13.4427C20.289 12.9934 20.3935 12.5265 20.5242 12.0552C20.5633 11.9099 20.62 11.7777 20.6679 11.6368C20.424 11.7865 20.1409 11.9187 19.81 12.0288C19.6619 12.2755 19.4616 12.5221 19.2177 12.7688C18.9434 13.0419 18.6211 13.2401 18.2597 13.3458C18.0985 13.3942 17.9418 13.4162 17.7981 13.4162C17.6631 13.4162 17.5368 13.3898 17.4192 13.3414C17.184 13.2489 16.9837 13.0991 16.8226 12.9097C16.6658 12.7247 16.5526 12.5309 16.4873 12.3415C16.4742 12.3019 16.4655 12.249 16.4524 12.205C16.3 12.4825 16.104 12.7291 15.8645 12.9405C15.5597 13.2092 15.1416 13.4339 14.6147 13.6101C14.4666 13.8567 14.2663 14.1034 14.0224 14.35C13.7481 14.6231 13.4258 14.8213 13.0644 14.927C12.9033 14.9755 12.7465 14.9975 12.6028 14.9975C12.4678 14.9975 12.3415 14.9711 12.2239 14.9226C11.9888 14.8301 11.7884 14.6804 11.6273 14.491C11.4705 14.306 11.3573 14.1122 11.292 13.9228C11.2092 13.6761 11.1613 13.3898 11.157 13.0639C11.1526 12.782 11.1657 12.5706 11.1918 12.4296C11.1918 12.4252 11.1875 12.4164 11.1831 12.412C11.1613 12.3724 11.1439 12.3327 11.1309 12.2975C11.0481 12.064 11.0046 11.8042 10.9828 11.5355C10.961 11.3329 11.0002 10.8528 11.0742 10.5532C11.1004 10.4696 11.1265 10.3859 11.1613 10.3022C11.3094 9.94101 11.5402 9.60625 11.8494 9.31555C12.1586 9.02044 12.5375 8.80461 12.9773 8.67248C13.2386 8.59319 13.4868 8.55355 13.7133 8.55796C13.9441 8.56236 14.1574 8.61081 14.3534 8.6989C14.7453 8.87949 15.0197 9.19663 15.1678 9.62828C15.3637 10.1921 15.4247 10.725 15.3463 11.2051C15.2723 11.65 15.1808 12.0949 15.0763 12.5133C15.2592 12.4208 15.4203 12.2666 15.564 12.0508C15.7557 11.7557 15.9603 11.2272 16.1694 10.4916C16.1824 10.4387 16.1998 10.3947 16.2216 10.3506C16.1868 10.1877 16.165 10.0159 16.1563 9.8441C16.1345 9.46971 16.1998 9.09532 16.3479 8.72974C16.496 8.36856 16.7268 8.03381 17.036 7.7431C17.3452 7.44799 17.724 7.23217 18.1639 7.10003C18.4251 7.02074 18.6734 6.9811 18.8998 6.98551C19.1306 6.98991 19.344 7.03836 19.54 7.12645C19.9319 7.30704 20.2063 7.62418 20.3543 8.05583C20.5503 8.61962 20.6113 9.15258 20.5329 9.63268C20.4588 10.082 20.3674 10.5268 20.2629 10.9453C20.7724 10.7999 21.1033 10.3815 21.3211 10.1877C21.6869 9.85732 21.9569 9.66792 22.0353 9.62387C22.1616 9.53578 22.2966 9.46531 22.4359 9.42126C22.5753 9.37721 22.7103 9.3596 22.8409 9.3596C22.9324 9.3596 23.0238 9.37281 23.1109 9.39924C23.2764 9.44328 23.4985 9.57102 23.6204 9.91458C23.7032 10.1524 23.7119 10.4519 23.6378 10.8043C23.5682 11.1347 23.4593 11.4826 23.3112 11.8394C23.1632 12.1918 23.002 12.5309 22.8322 12.8481C22.6624 13.1652 22.5056 13.4339 22.3619 13.6497C22.0396 14.1254 21.7261 14.5791 21.43 14.9931C21.1512 15.3851 20.9335 15.6582 20.7767 16.0282C20.7767 16.1779 20.7637 17.1778 20.7637 17.3143C20.8638 17.0941 20.9814 16.8651 21.1077 16.6316C21.3821 16.1251 21.6564 15.6846 21.922 15.319C22.0658 15.1164 22.253 14.8786 22.4795 14.6187C22.7233 14.3368 23.0064 14.143 23.3199 14.0461C23.4506 14.0065 23.5769 13.9844 23.6901 13.9888C23.7859 13.9888 23.8817 14.0065 23.9688 14.0417C24.1735 14.1166 24.3215 14.2663 24.3956 14.4778C24.487 14.7376 24.4522 15.0592 24.2911 15.4292C24.1517 15.7463 24.008 16.1339 23.8643 16.5832C23.7206 17.0236 23.6161 17.4641 23.5551 17.8913C23.4941 18.2966 23.5159 18.6445 23.6161 18.9264C23.664 19.0674 23.7293 19.0894 23.7511 19.0982C23.7859 19.1114 23.8251 19.1158 23.8599 19.1158C23.9035 19.1158 23.947 19.1114 23.9949 19.0938C24.1386 19.0498 24.2519 18.9661 24.3433 18.8339C24.5219 18.5917 24.6743 18.3142 24.8006 18.0147C24.9269 17.7063 25.0401 17.4024 25.1315 17.1073C25.2273 16.8078 25.3057 16.5435 25.371 16.3321C25.3885 16.2704 25.4102 16.222 25.432 16.1735C25.4669 15.8344 25.5322 15.4908 25.6323 15.1473C25.7717 14.6672 25.9807 14.2355 26.2594 13.8611C26.5468 13.4691 26.917 13.2048 27.3568 13.0683C27.5092 13.0198 27.653 12.9978 27.7923 13.0022C27.9317 13.0022 28.0623 13.033 28.1842 13.0859C28.4368 13.196 28.611 13.381 28.7025 13.6365C28.8549 14.0681 28.8549 14.5394 28.7025 15.0283C28.55 15.5084 28.2888 15.9445 27.923 16.3365C27.5528 16.7285 27.0999 17.0104 26.5773 17.1734C26.512 17.1954 26.4467 17.213 26.377 17.2262C26.3726 17.2262 26.3639 17.2262 26.3552 17.2262C26.3726 17.2967 26.3944 17.376 26.4205 17.4553C26.4946 17.6667 26.6209 17.8517 26.7951 17.9971C26.8778 18.0675 26.9823 18.1028 27.1086 18.1072C27.2131 18.1072 27.3351 18.0895 27.4701 18.0455C27.7444 17.9618 27.9883 17.8121 28.1973 17.605C28.415 17.3892 28.5849 17.169 28.7068 16.9488C28.8331 16.7109 28.9376 16.5039 29.016 16.3277C29.0944 16.1515 29.1728 15.9489 29.2468 15.7287C29.3252 15.4996 29.4123 15.2045 29.5125 14.8566C29.5473 14.5394 29.6126 14.2135 29.7084 13.8875C29.8478 13.4074 30.0568 12.9758 30.3355 12.6014C30.6229 12.2094 30.9931 11.9451 31.4286 11.8086C31.581 11.7601 31.7247 11.7381 31.864 11.7425C32.0034 11.7425 32.134 11.7733 32.256 11.8262C32.5086 11.9363 32.6827 12.1213 32.7742 12.3768C32.9266 12.8084 32.9266 13.2797 32.7742 13.7686C32.6261 14.2443 32.3605 14.6848 31.9947 15.0768C31.6245 15.4688 31.1716 15.7507 30.6491 15.9137C30.5837 15.9357 30.5184 15.9533 30.4531 15.9665C30.4444 15.9665 30.44 15.9665 30.4313 15.9709C30.4487 16.0414 30.4705 16.1207 30.4966 16.2C30.5707 16.4114 30.697 16.5964 30.8712 16.7417C30.9539 16.8122 31.0584 16.8474 31.1847 16.8518C31.2892 16.8518 31.4111 16.8342 31.5461 16.7902C32.4737 16.5039 33.0094 15.5789 33.41 14.7597C33.6408 14.2884 33.9892 13.2885 34.1895 12.1741V8.27606C34.1895 7.95893 34.1024 7.65501 33.9326 7.39073C33.1574 6.18387 30.6142 2.71303 26.1114 1.20224C20.2498 -0.779834 15.1982 0.193587 13.5695 0.607621C13.2212 0.695713 12.912 0.907135 12.6986 1.20224L4.97753 11.6588C4.88173 12.205 4.57254 13.9404 4.56818 14.8257C4.56818 14.9094 4.55947 15.0548 4.55512 15.2662C4.55076 15.4688 4.55512 15.6846 4.55947 15.9005C4.56818 16.1031 4.58996 16.2616 4.62915 16.3673C4.62915 16.3717 4.62915 16.3762 4.6335 16.3806C4.65963 16.3629 4.69883 16.3321 4.76415 16.2704C4.85124 16.1823 4.95576 16.0414 5.08205 15.8432C5.31285 15.4864 5.52624 15.1164 5.71349 14.742C5.9051 14.3676 6.0793 13.9844 6.23607 13.6145C6.25349 13.566 6.30139 13.4471 6.37978 13.2621L6.50607 12.9538L6.64542 12.6146C6.74558 12.3724 6.84139 12.1345 6.93719 11.9011C7.033 11.6676 7.11138 11.4782 7.17235 11.3329C7.25509 11.1391 7.42057 11.0025 7.65573 10.932C7.71234 10.9144 7.7646 10.91 7.82121 10.91C7.87347 10.91 7.92573 10.9188 7.97363 10.9364C8.05637 10.9673 8.16524 11.0334 8.22186 11.1963C8.24798 11.2756 8.26105 11.3285 8.25669 11.3813C8.26976 11.6984 8.20879 12.0508 8.07379 12.4252C7.94315 12.782 7.80815 13.1652 7.6688 13.5792C7.5338 13.9712 7.44235 14.4073 7.3988 14.8698C7.3988 14.9182 7.40751 15.0107 7.41186 15.1429C7.41622 15.275 7.44235 15.3983 7.48154 15.5128C7.51202 15.5965 7.55122 15.6626 7.59912 15.7066C7.62089 15.7243 7.63396 15.7287 7.64702 15.7287C7.66009 15.7287 7.67315 15.7287 7.68622 15.7199C7.83428 15.6758 8.00847 15.5393 8.20879 15.3102C8.42218 15.0636 8.62685 14.7773 8.81846 14.4513C9.01007 14.1254 9.18862 13.7995 9.34104 13.4867C9.49346 13.1828 9.59797 12.9405 9.65894 12.7732C9.81571 12.3195 9.92894 11.8614 9.9899 11.4077C10.0465 10.9717 10.0247 10.5973 9.92023 10.2934C9.88539 10.1921 9.81571 10.0864 9.58926 10.082C9.48475 10.082 9.36281 10.0996 9.22346 10.1392C9.16249 10.1568 9.10588 10.1656 9.05798 10.1656C8.9012 10.1656 8.77927 10.0731 8.72701 9.91898C8.69217 9.82208 8.70524 9.72077 8.7575 9.62387C8.79233 9.5578 8.86637 9.47412 9.01878 9.42566C9.25394 9.3596 9.47604 9.32876 9.672 9.33317C9.81136 9.33317 9.942 9.35519 10.0639 9.39483C10.3818 9.49173 10.5996 9.70756 10.7128 10.0379C10.7912 10.2625 10.8304 10.5092 10.8434 10.7779C10.8652 11.0245 10.8043 11.4826 10.752 11.7601C10.6823 12.1433 10.5952 12.5221 10.4689 12.8965C10.2643 13.4867 10.0117 14.0373 9.71991 14.5306C9.42813 15.0195 9.05362 15.5261 8.59637 16.0414C8.4875 16.1515 8.36992 16.2572 8.24363 16.3497C8.10428 16.451 7.96057 16.5259 7.80815 16.57C7.69928 16.6008 7.59477 16.6184 7.49025 16.614C7.37703 16.614 7.26816 16.5876 7.16364 16.5479C6.95026 16.4642 6.78913 16.2748 6.68897 15.9841C6.57574 15.6582 6.52784 15.3102 6.54961 14.9402C6.46687 15.1164 6.37542 15.297 6.27091 15.4776C6.10542 15.7771 5.92688 16.0634 5.73091 16.3365C5.57414 16.5567 5.40866 16.7549 5.23447 16.9179C5.05156 17.0985 4.85995 17.2174 4.66834 17.2747C4.57254 17.3055 4.48109 17.3187 4.39834 17.3143C4.28512 17.3143 4.18496 17.2835 4.10222 17.2262C3.96722 17.1337 3.86706 17.0016 3.80609 16.8342C3.73206 16.6228 3.6798 16.3806 3.65367 16.1163C3.61013 16.1515 3.55787 16.1823 3.50126 16.2C3.45771 16.2132 3.40981 16.2176 3.36626 16.2176C3.29223 16.2176 3.21819 16.1956 3.14416 16.1559C2.98739 16.0722 2.92642 15.9181 2.98304 15.7551C3.05271 15.5349 3.14416 15.2442 3.25739 14.8742C3.37061 14.5086 3.48384 14.121 3.58835 13.729C3.60577 13.6585 3.62755 13.566 3.64932 13.4647L0.322255 17.9706C0.113225 18.2525 0 18.5961 0 18.9484V28.3787C0 28.7884 0.383222 29.0879 0.770799 28.969L33.4318 19.0542C33.889 18.9132 34.2026 18.4816 34.2026 17.9926V14.7068C33.9413 15.4248 33.6103 16.1163 33.1182 16.6933C32.7786 17.0941 32.3257 17.3848 31.7813 17.5566Z" fill="#FFC700"/>
<path d="M31.1026 14.8039C31.5119 14.4604 31.795 14.0507 31.9387 13.5927C32.0388 13.2711 32.0432 12.9848 31.9518 12.7205C31.93 12.6589 31.8951 12.6148 31.8559 12.5884C31.8429 12.5796 31.8255 12.5752 31.8037 12.5752C31.7732 12.5752 31.734 12.5796 31.6905 12.5928C31.464 12.6633 31.2724 12.7998 31.1113 13.0113C30.9414 13.2359 30.8021 13.4958 30.7019 13.7865C30.5974 14.086 30.519 14.3767 30.4711 14.6542C30.4406 14.826 30.4232 14.9801 30.4102 15.1123C30.5843 15.0682 30.7803 14.9889 30.9806 14.8832C31.0242 14.8612 31.0677 14.8304 31.1069 14.7995L31.1026 14.8039Z" fill="#FFC700"/>
<path d="M52.8493 19.7106V21.8953C52.8493 22.6221 52.6838 23.1594 52.3485 23.503C52.0132 23.8466 51.5472 24.0183 50.9463 24.0183C50.3453 24.0183 49.8793 23.8466 49.544 23.503C49.2087 23.1594 49.0432 22.6221 49.0432 21.8953V19.7106H43.2426C42.7244 19.7106 42.3412 19.6005 42.1017 19.3759C41.8622 19.1512 41.7402 18.8517 41.7402 18.4773C41.7402 18.1029 41.8622 17.799 42.1104 17.5788C42.3586 17.3542 42.7331 17.244 43.2426 17.244H58.6499C59.1681 17.244 59.5514 17.3542 59.7909 17.5788C60.0304 17.799 60.1523 18.1029 60.1523 18.4773C60.1523 18.8517 60.0304 19.1557 59.7822 19.3759C59.5339 19.6005 59.1594 19.7106 58.6499 19.7106H52.8493ZM50.0492 7.70805C48.9561 7.70805 48.1505 7.9503 47.6279 8.43481C47.1097 8.91932 46.8484 9.60204 46.8484 10.4786C46.8484 11.3551 47.162 12.0378 47.789 12.5223C48.4161 13.0068 49.47 13.2491 50.9506 13.2491C52.4313 13.2491 53.4851 13.0112 54.1122 12.5311C54.7393 12.051 55.0528 11.3727 55.0528 10.4962C55.0528 9.61965 54.9266 9.03825 54.674 8.71671C54.4214 8.39077 54.1122 8.2322 53.7551 8.2322C53.3675 8.2322 53.0845 8.33791 52.9059 8.54493C52.7274 8.75194 52.6359 9.01182 52.6359 9.32455C52.3311 9.188 52.1003 9.03384 51.9566 8.85766C51.8085 8.68147 51.7345 8.41719 51.7345 8.06923C51.7345 7.77412 51.8042 7.48782 51.9435 7.21033C52.0829 6.93284 52.2832 6.69499 52.5445 6.49238C52.8058 6.28976 53.1193 6.12679 53.4938 6.00787C53.8683 5.88454 54.2864 5.82728 54.7524 5.82728C55.3272 5.82728 55.8628 5.93299 56.3636 6.14001C56.8644 6.34702 57.2999 6.65094 57.6744 7.03855C58.0489 7.43056 58.3364 7.90626 58.5454 8.46564C58.7501 9.02503 58.8546 9.6637 58.8546 10.3772C58.8546 11.1877 58.7065 11.9233 58.4148 12.584C58.123 13.2447 57.657 13.8084 57.0256 14.2753C56.3898 14.7422 55.5754 15.099 54.5738 15.3501C53.5722 15.6011 52.3659 15.7245 50.9506 15.7245C49.5353 15.7245 48.329 15.6011 47.3274 15.3501C46.3258 15.099 45.5115 14.7422 44.8757 14.2753C44.2399 13.8084 43.7783 13.2491 43.4865 12.584C43.1947 11.9233 43.0467 11.1877 43.0467 10.3772C43.0467 8.78718 43.6215 7.53187 44.7755 6.6113C45.9295 5.69514 47.6845 5.23706 50.0492 5.23706C50.611 5.23706 51.0247 5.34718 51.2903 5.563C51.5559 5.77883 51.6909 6.08275 51.6909 6.47476C51.6909 6.86677 51.5559 7.17069 51.2903 7.38651C51.0247 7.60234 50.611 7.71246 50.0492 7.71246V7.70805Z" fill="#FFC700"/>
<path d="M61.8325 14.469C61.8325 12.6764 62.0154 11.1656 62.3812 9.9455C62.747 8.72542 63.1999 7.7476 63.7399 7.01202C64.2799 6.27645 64.8678 5.7523 65.4992 5.43517C66.1307 5.11804 66.7229 4.95947 67.2716 4.95947C67.7768 4.95947 68.1339 5.06959 68.3342 5.29422C68.5345 5.51445 68.6347 5.76992 68.6347 6.05182C68.6347 6.39097 68.5389 6.68608 68.3429 6.94155C68.1513 7.19702 67.9205 7.43927 67.6505 7.66831C67.289 7.97664 66.9842 8.31579 66.7316 8.68137C66.4791 9.04696 66.27 9.49182 66.1132 10.016C65.9565 10.5401 65.8345 11.1612 65.7518 11.8791C65.6734 12.5927 65.6299 13.456 65.6299 14.469C65.6299 15.8741 65.6734 17.0105 65.7605 17.887C65.8476 18.7635 65.9739 19.4507 66.1394 19.9396C66.3049 20.4329 66.5182 20.7676 66.7708 20.9526C67.0234 21.1332 67.3195 21.2257 67.6505 21.2257C67.9815 21.2257 68.2732 21.1332 68.5215 20.9526C68.7697 20.772 68.9787 20.4329 69.1529 19.9396C69.3271 19.4463 69.4577 18.7635 69.5448 17.887C69.6319 17.0105 69.6755 15.8697 69.6755 14.469C69.6755 13.0684 69.6363 11.8571 69.5535 11.0467C69.4751 10.2362 69.3663 9.6592 69.2313 9.30683C69.0963 8.95446 68.9526 8.78709 68.7914 8.8003C68.6303 8.81351 68.4648 8.90161 68.2906 9.06458C68.2906 8.79589 68.3342 8.53602 68.4213 8.28496C68.5084 8.0339 68.639 7.81367 68.8132 7.61546C68.9874 7.42165 69.2008 7.26309 69.4534 7.14857C69.706 7.03405 70.0021 6.97679 70.333 6.97679C70.7729 6.97679 71.1822 7.10452 71.5655 7.35999C71.9443 7.61546 72.2753 8.0383 72.554 8.62411C72.8327 9.20993 73.0591 9.98514 73.2246 10.9409C73.3901 11.9011 73.4729 13.0728 73.4729 14.4602C73.4729 17.6448 72.9895 19.9792 72.0227 21.4636C71.0559 22.9479 69.5971 23.6879 67.6505 23.6879C65.7039 23.6879 64.245 22.9435 63.2783 21.4636C62.3115 19.9836 61.8281 17.6448 61.8281 14.4602L61.8325 14.469ZM78.5593 13.1124H79.3605C79.8788 13.1124 80.262 13.2225 80.5015 13.4472C80.741 13.6718 80.8629 13.9713 80.8629 14.3457C80.8629 14.7201 80.741 15.024 80.4928 15.2487C80.2446 15.4689 79.8701 15.5834 79.3605 15.5834H78.5593V21.8952C78.5593 22.622 78.3938 23.1594 78.0585 23.5029C77.7231 23.8465 77.2572 24.0183 76.6562 24.0183C76.0552 24.0183 75.5893 23.8465 75.254 23.5029C74.9186 23.1594 74.7532 22.622 74.7532 21.8952V7.42606C74.7532 6.6993 74.9186 6.16193 75.254 5.81837C75.5893 5.47481 76.0552 5.30303 76.6562 5.30303C77.2572 5.30303 77.7231 5.47481 78.0585 5.81837C78.3938 6.16193 78.5593 6.6993 78.5593 7.42606V13.1124Z" fill="#FFC700"/>
<path d="M89.5638 6.45266H92.7254C93.2436 6.45266 93.6269 6.56277 93.8664 6.78741C94.1059 7.00764 94.2278 7.31156 94.2278 7.68595C94.2278 8.06034 94.1059 8.36426 93.8577 8.58449C93.6094 8.80472 93.2349 8.91924 92.7254 8.91924H89.0456C88.5404 8.91924 88.0701 8.9721 87.6434 9.08221C87.2166 9.19233 86.8464 9.36411 86.5329 9.60636C86.2193 9.84862 85.9755 10.1613 85.8013 10.549C85.6271 10.9322 85.54 11.3946 85.54 11.9364C85.54 12.65 85.7098 13.1961 86.0495 13.5749C86.3892 13.9537 86.9205 14.1431 87.639 14.1431C88.4011 14.1431 88.9411 13.989 89.259 13.6762C89.5769 13.3635 89.738 12.9186 89.738 12.3416C89.738 11.976 89.664 11.6765 89.5159 11.4431C89.3679 11.2052 89.1893 11.0379 88.9759 10.9366C88.7625 10.8353 88.5361 10.8 88.2966 10.8264C88.0571 10.8529 87.848 10.941 87.6782 11.0907C87.6782 10.6062 87.9003 10.2054 88.3401 9.88826C88.78 9.57113 89.3722 9.41256 90.1212 9.41256C91.2274 9.41256 92.0591 9.70326 92.6122 10.2847C93.1652 10.8661 93.444 11.6589 93.444 12.672C93.444 13.8436 92.9649 14.795 92.0025 15.5262C91.0401 16.2529 89.59 16.6185 87.639 16.6185C85.6881 16.6185 84.2205 16.2485 83.2668 15.5041C82.3131 14.7642 81.8384 13.7247 81.8384 12.3857C81.8384 10.9542 82.4568 9.80017 83.6979 8.92365H82.5962C82.0779 8.92365 81.6947 8.81353 81.4552 8.5889C81.2157 8.36426 81.0938 8.06475 81.0938 7.69035C81.0938 7.31596 81.2157 7.01204 81.4639 6.79181C81.7121 6.56718 82.0866 6.45706 82.5962 6.45706H85.7577V5.8316C85.7577 5.36031 85.9058 4.99032 86.2063 4.71724C86.5068 4.44855 86.9901 4.31201 87.6564 4.31201C88.3227 4.31201 88.8061 4.44855 89.1066 4.71724C89.4071 4.98592 89.5551 5.36031 89.5551 5.8316V6.45706L89.5638 6.45266ZM86.7637 19.6489C86.7637 20.0145 86.8247 20.3184 86.9422 20.5606C87.0598 20.8029 87.2863 20.9967 87.6129 21.1465C87.9395 21.2962 88.388 21.3975 88.9542 21.4592C89.5203 21.5209 90.2519 21.5517 91.1446 21.5517C92.3596 21.5517 93.3438 21.4988 94.0972 21.4019C94.8506 21.3006 95.4384 21.1553 95.8565 20.9659C96.2789 20.7765 96.562 20.5474 96.7057 20.2788C96.8494 20.0101 96.9278 19.6973 96.9278 19.3494C97.4721 19.3494 97.9163 19.4991 98.2473 19.8031C98.5826 20.107 98.7481 20.4814 98.7481 20.9262C98.7481 21.3975 98.5957 21.8248 98.2865 22.2036C97.9816 22.5824 97.4678 22.9039 96.758 23.177C96.0438 23.4457 95.1118 23.6571 93.9578 23.8024C92.8038 23.9522 91.3885 24.0271 89.7075 24.0271C88.5622 24.0271 87.565 23.9478 86.7158 23.7936C85.8666 23.6395 85.1698 23.3928 84.6168 23.0537C84.0637 22.7145 83.65 22.2829 83.3757 21.7499C83.1013 21.2169 82.9663 20.5739 82.9663 19.8163V19.411C82.9663 18.6843 83.1318 18.1469 83.4671 17.8034C83.8024 17.4598 84.2684 17.288 84.8694 17.288C85.4703 17.288 85.9363 17.4598 86.2716 17.8034C86.6069 18.1469 86.7724 18.6843 86.7724 19.411V19.6533L86.7637 19.6489ZM98.5696 10.1173H99.3708C99.8891 10.1173 100.272 10.2274 100.512 10.452C100.751 10.6767 100.873 10.9762 100.873 11.3506C100.873 11.725 100.751 12.0289 100.503 12.2535C100.255 12.4738 99.8803 12.5883 99.3708 12.5883H98.5696V15.6231C98.5696 16.3498 98.4041 16.8872 98.0687 17.2308C97.7334 17.5743 97.2675 17.7461 96.6665 17.7461C96.0655 17.7461 95.5996 17.5743 95.2643 17.2308C94.9289 16.8872 94.7635 16.3498 94.7635 15.6231V7.42608C94.7635 6.69931 94.9289 6.16195 95.2643 5.81839C95.5996 5.47483 96.0655 5.30305 96.6665 5.30305C97.2675 5.30305 97.7334 5.47483 98.0687 5.81839C98.4041 6.16195 98.5696 6.69931 98.5696 7.42608V10.1173Z" fill="#FFC700"/>
<path d="M112.17 8.92365V18.213C112.17 19.226 112.323 19.9484 112.632 20.3889C112.937 20.8293 113.337 21.0452 113.834 21.0452C114.113 21.0452 114.343 20.9791 114.522 20.8514C114.7 20.7236 114.822 20.5474 114.883 20.3272C114.944 20.107 114.931 19.8471 114.853 19.5564C114.775 19.2657 114.618 18.9574 114.391 18.6358C115.245 18.6358 115.863 18.8517 116.251 19.2833C116.638 19.715 116.83 20.2699 116.83 20.9438C116.83 21.3359 116.747 21.6882 116.577 22.0054C116.412 22.3225 116.177 22.5912 115.876 22.8158C115.576 23.0404 115.219 23.2122 114.805 23.3312C114.391 23.4501 113.938 23.5117 113.446 23.5117C112.806 23.5117 112.201 23.3884 111.626 23.1462C111.051 22.9039 110.598 22.5339 110.267 22.0318C109.932 22.5295 109.479 22.9039 108.909 23.1462C108.334 23.3884 107.728 23.5117 107.088 23.5117C106.596 23.5117 106.139 23.4501 105.73 23.3312C105.32 23.2122 104.959 23.036 104.658 22.8158C104.358 22.5956 104.123 22.3225 103.957 22.0054C103.792 21.6882 103.709 21.3359 103.709 20.9438C103.709 20.2699 103.901 19.715 104.288 19.2833C104.676 18.8517 105.294 18.6358 106.148 18.6358C105.921 18.9618 105.769 19.2657 105.686 19.5564C105.608 19.8471 105.595 20.1026 105.656 20.3272C105.717 20.5518 105.834 20.7236 106.017 20.8514C106.196 20.9791 106.426 21.0452 106.705 21.0452C107.197 21.0452 107.598 20.8249 107.907 20.3889C108.212 19.9528 108.369 19.226 108.369 18.213V8.92365H105.508C104.989 8.92365 104.606 8.81353 104.367 8.5889C104.127 8.36426 104.005 8.06475 104.005 7.69035C104.005 7.31596 104.127 7.01204 104.375 6.79181C104.623 6.56718 104.998 6.45706 105.508 6.45706H108.369V5.8316C108.369 5.36031 108.517 4.99032 108.817 4.71724C109.118 4.44855 109.601 4.31201 110.267 4.31201C110.934 4.31201 111.417 4.44855 111.717 4.71724C112.018 4.98592 112.166 5.36031 112.166 5.8316V6.45706H115.027C115.545 6.45706 115.929 6.56718 116.168 6.79181C116.408 7.01204 116.53 7.31596 116.53 7.69035C116.53 8.06475 116.408 8.36866 116.159 8.5889C115.911 8.81353 115.537 8.92365 115.027 8.92365H112.166H112.17ZM121.973 21.8952C121.973 22.622 121.808 23.1594 121.472 23.5029C121.137 23.8465 120.671 24.0183 120.07 24.0183C119.469 24.0183 119.003 23.8465 118.668 23.5029C118.332 23.1594 118.167 22.622 118.167 21.8952V7.42608C118.167 6.69931 118.332 6.16195 118.668 5.81839C119.003 5.47483 119.469 5.30305 120.07 5.30305C120.671 5.30305 121.137 5.47483 121.472 5.81839C121.808 6.16195 121.973 6.69931 121.973 7.42608V21.8952Z" fill="#FFC700"/>
<path d="M125.674 23.0494C125.156 23.0494 124.773 22.9393 124.533 22.7146C124.294 22.49 124.172 22.1905 124.172 21.8161C124.172 21.4417 124.294 21.1378 124.542 20.9131C124.79 20.6929 125.165 20.5784 125.674 20.5784H141.082C141.6 20.5784 141.983 20.6885 142.222 20.9131C142.462 21.1378 142.584 21.4373 142.584 21.8161C142.584 22.1949 142.462 22.4944 142.214 22.7146C141.966 22.9349 141.591 23.0494 141.082 23.0494H125.674ZM135.259 8.11331V12.2008C135.259 12.769 135.311 13.2447 135.42 13.6279C135.525 14.0111 135.682 14.3194 135.882 14.5485C136.082 14.7775 136.326 14.9449 136.614 15.0462C136.901 15.1475 137.223 15.1959 137.585 15.1959C137.946 15.1959 138.277 15.1123 138.547 14.9449C138.813 14.7775 139.009 14.5529 139.126 14.2754C139.248 13.9979 139.287 13.6896 139.248 13.346C139.209 13.0024 139.083 12.6501 138.869 12.2845C139.257 12.2845 139.623 12.3417 139.971 12.4563C140.319 12.5708 140.62 12.7338 140.881 12.9408C141.143 13.1522 141.343 13.4077 141.491 13.7204C141.639 14.0287 141.713 14.3811 141.713 14.7731C141.713 15.6232 141.382 16.3191 140.724 16.8565C140.063 17.3938 139.109 17.6669 137.855 17.6669C136.827 17.6669 135.921 17.5128 135.133 17.2C134.345 16.8873 133.761 16.3984 133.374 15.7245C132.986 16.3984 132.398 16.8917 131.601 17.2C130.804 17.5084 129.903 17.6669 128.888 17.6669C127.634 17.6669 126.676 17.3982 126.018 16.8565C125.361 16.3147 125.03 15.6232 125.03 14.7731C125.03 14.3811 125.104 14.0331 125.252 13.7204C125.4 13.4121 125.6 13.1522 125.862 12.9408C126.123 12.7338 126.423 12.5708 126.772 12.4563C127.12 12.3417 127.486 12.2845 127.873 12.2845C127.66 12.6501 127.534 13.0024 127.495 13.346C127.455 13.6896 127.495 14.0023 127.617 14.2754C127.738 14.5529 127.926 14.7731 128.187 14.9449C128.448 15.1123 128.771 15.1959 129.158 15.1959C129.52 15.1959 129.842 15.1475 130.129 15.0462C130.417 14.9449 130.661 14.7819 130.861 14.5485C131.061 14.3194 131.214 14.0111 131.322 13.6279C131.427 13.2447 131.484 12.769 131.484 12.2008V8.11331H126.641C126.123 8.11331 125.74 8.0032 125.5 7.77856C125.261 7.55833 125.139 7.25441 125.139 6.88002C125.139 6.50563 125.261 6.20171 125.509 5.98148C125.757 5.76125 126.132 5.64673 126.641 5.64673H140.167C140.685 5.64673 141.068 5.75684 141.308 5.98148C141.548 6.20612 141.669 6.50563 141.669 6.88002C141.669 7.25441 141.548 7.55833 141.299 7.77856C141.051 8.0032 140.677 8.11331 140.167 8.11331H135.285H135.259Z" fill="#FFC700"/>
<path d="M156.05 24.0182C155.531 24.0182 155.113 23.8685 154.8 23.5733C154.486 23.2782 154.329 22.8025 154.329 22.1551V15.0945H152.23C152.043 16.8475 151.765 18.2702 151.39 19.3625C151.015 20.4549 150.576 21.3094 150.07 21.9216C149.565 22.5339 149.004 22.9523 148.39 23.1769C147.776 23.3972 147.131 23.5117 146.447 23.5117C145.515 23.5117 144.788 23.2694 144.279 22.7849C143.765 22.3004 143.508 21.6573 143.508 20.8601C143.508 20.2787 143.656 19.7898 143.956 19.3934C144.257 18.9969 144.688 18.7239 145.245 18.5741C145.032 18.9133 144.897 19.2304 144.845 19.5343C144.792 19.8382 144.806 20.1025 144.884 20.3227C144.962 20.5474 145.106 20.7192 145.315 20.8469C145.52 20.9746 145.785 21.0407 146.108 21.0407C146.43 21.0407 146.756 20.9702 147.048 20.8293C147.34 20.6883 147.61 20.4152 147.85 20.01C148.089 19.6048 148.302 19.0366 148.49 18.301C148.677 17.5654 148.825 16.5964 148.93 15.3984H145.707C145.189 15.3984 144.806 15.2883 144.566 15.0636C144.327 14.8434 144.205 14.5395 144.205 14.1651C144.205 13.7907 144.327 13.4868 144.575 13.2665C144.823 13.0419 145.197 12.9318 145.707 12.9318H149.086C149.112 12.3812 149.134 11.7998 149.147 11.192C149.16 10.5841 149.169 9.93224 149.169 9.2275V8.11313H145.306C144.788 8.11313 144.405 8.00302 144.165 7.77838C143.926 7.55815 143.804 7.25423 143.804 6.87984C143.804 6.50545 143.926 6.20153 144.174 5.9813C144.422 5.76107 144.797 5.64655 145.306 5.64655H150.489C151.277 5.64655 151.804 5.78309 152.078 6.06058C152.352 6.33807 152.487 6.80496 152.487 7.46566V9.54904C152.487 10.1172 152.479 10.6502 152.466 11.1567C152.453 11.6633 152.431 12.1522 152.405 12.6235H154.325V7.16174C154.325 6.51426 154.482 6.04296 154.795 5.74345C155.109 5.44394 155.527 5.29858 156.045 5.29858C156.563 5.29858 156.982 5.44834 157.295 5.74345C157.609 6.03856 157.765 6.51426 157.765 7.16174V22.1551C157.765 22.8025 157.609 23.2738 157.295 23.5733C156.982 23.8685 156.563 24.0182 156.045 24.0182H156.05ZM160.47 24.0182C159.952 24.0182 159.533 23.8685 159.22 23.5733C158.906 23.2782 158.75 22.8025 158.75 22.1551V7.16174C158.75 6.51426 158.906 6.04296 159.22 5.74345C159.533 5.44834 159.952 5.29858 160.47 5.29858C160.988 5.29858 161.406 5.44834 161.72 5.74345C162.033 6.03856 162.19 6.51426 162.19 7.16174V22.1551C162.19 22.8025 162.033 23.2738 161.72 23.5733C161.406 23.8685 160.988 24.0182 160.47 24.0182Z" fill="#FFC700"/>
<path d="M164.471 10.3199C164.471 9.48302 164.623 8.73424 164.932 8.07355C165.237 7.41285 165.642 6.84906 166.143 6.38217C166.644 5.91528 167.206 5.56292 167.833 5.32066C168.46 5.07841 169.091 4.95508 169.731 4.95508C170.371 4.95508 170.79 5.07841 171.02 5.32947C171.255 5.58053 171.369 5.88445 171.369 6.25004C171.369 6.61562 171.277 6.89311 171.099 7.12215C170.92 7.35119 170.689 7.51416 170.411 7.60666C169.622 7.84891 169.069 8.19688 168.751 8.65055C168.429 9.10423 168.272 9.65921 168.272 10.3199C168.272 12.0597 168.987 12.9318 170.415 12.9318C171.081 12.9318 171.6 12.716 171.965 12.2844C172.331 11.8527 172.514 11.2052 172.514 10.3419C172.514 9.94991 172.453 9.63278 172.335 9.39053C172.214 9.14827 172.074 8.9809 171.913 8.884C171.752 8.7915 171.591 8.76067 171.421 8.7915C171.251 8.82233 171.125 8.91483 171.029 9.06459C171.029 8.80912 171.081 8.55365 171.19 8.30699C171.295 8.05593 171.447 7.8357 171.639 7.63749C171.83 7.44369 172.065 7.28512 172.34 7.16179C172.614 7.03846 172.923 6.9812 173.272 6.9812C173.751 6.9812 174.178 7.0737 174.552 7.2631C174.927 7.4525 175.244 7.70356 175.501 8.01188C175.758 8.32021 175.963 8.68138 176.102 9.0822C176.242 9.48743 176.311 9.90587 176.311 10.3375C176.311 11.0246 176.185 11.6765 175.933 12.2888C175.68 12.901 175.305 13.4384 174.813 13.8965C174.321 14.3545 173.703 14.7201 172.963 14.9888C172.222 15.2575 171.364 15.394 170.393 15.394C169.422 15.394 168.564 15.2575 167.824 14.9888C167.084 14.7201 166.465 14.3545 165.973 13.8965C165.481 13.4384 165.107 12.8966 164.854 12.2756C164.601 11.6545 164.475 11.0026 164.475 10.3111L164.471 10.3199ZM181.999 21.8952C181.999 22.622 181.833 23.1594 181.498 23.5029C181.163 23.8465 180.697 24.0183 180.096 24.0183C179.577 24.0183 179.151 23.8861 178.824 23.6218C178.498 23.3576 178.293 22.9523 178.214 22.3974H167.11C166.591 22.3974 166.208 22.2872 165.969 22.0626C165.729 21.838 165.607 21.5385 165.607 21.1641C165.607 20.7897 165.729 20.4858 165.977 20.2611C166.226 20.0409 166.6 19.9264 167.11 19.9264H178.193V18.7547H166.909C166.391 18.7547 166.008 18.6446 165.768 18.42C165.529 18.1954 165.407 17.8958 165.407 17.5215C165.407 17.1471 165.529 16.8431 165.777 16.6185C166.025 16.3983 166.4 16.2838 166.909 16.2838H179.895C180.684 16.2838 181.228 16.4555 181.537 16.7991C181.842 17.1427 181.999 17.68 181.999 18.4068V21.8864V21.8952ZM181.999 13.5177C181.999 14.2444 181.833 14.7818 181.498 15.1253C181.163 15.4689 180.697 15.6407 180.096 15.6407C179.495 15.6407 179.029 15.4689 178.693 15.1253C178.358 14.7818 178.193 14.2444 178.193 13.5177V7.42607C178.193 6.69931 178.358 6.16194 178.693 5.81838C179.029 5.47482 179.495 5.30304 180.096 5.30304C180.697 5.30304 181.163 5.47482 181.498 5.81838C181.833 6.16194 181.999 6.69931 181.999 7.42607V13.5177Z" fill="#FFC700"/>
</g>
<defs>
<clipPath id="clip0_358_1073">
<rect width="182" height="29" fill="white"/>
</clipPath>
</defs>
</svg>
