<svg width="130" height="18" viewBox="0 0 130 18" fill="none" xmlns="http://www.w3.org/2000/svg">
<path d="M8.19 3.28344C7.206 3.28344 6.48 3.49944 6.012 3.93144C5.544 4.36344 5.31 4.96944 5.31 5.74944C5.31 6.52944 5.592 7.13544 6.156 7.56744C6.72 7.99944 7.668 8.21544 9 8.21544C10.332 8.21544 11.28 8.00544 11.844 7.58544C12.408 7.15344 12.69 6.54744 12.69 5.76744C12.69 4.99944 12.576 4.47144 12.348 4.18344C12.12 3.89544 11.844 3.75144 11.52 3.75144C11.172 3.75144 10.914 3.84744 10.746 4.03944C10.59 4.21944 10.512 4.44744 10.512 4.72344C10.236 4.60344 10.032 4.46544 9.9 4.30944C9.768 4.15344 9.702 3.91944 9.702 3.60744C9.702 3.34344 9.762 3.09144 9.882 2.85144C10.014 2.59944 10.194 2.38344 10.422 2.20344C10.662 2.02344 10.95 1.87944 11.286 1.77144C11.622 1.66344 12 1.60944 12.42 1.60944C12.936 1.60944 13.416 1.70544 13.86 1.89744C14.316 2.07744 14.712 2.34144 15.048 2.68944C15.384 3.03744 15.642 3.46344 15.822 3.96744C16.014 4.45944 16.11 5.02344 16.11 5.65944C16.11 6.37944 15.978 7.03344 15.714 7.62144C15.45 8.20944 15.03 8.71344 14.454 9.13344C13.89 9.54144 13.158 9.85944 12.258 10.0874C11.358 10.3034 10.272 10.4114 9 10.4114C7.728 10.4114 6.642 10.3034 5.742 10.0874C4.842 9.85944 4.104 9.54144 3.528 9.13344C2.964 8.71344 2.55 8.20944 2.286 7.62144C2.022 7.03344 1.89 6.37944 1.89 5.65944C1.89 4.24344 2.406 3.12744 3.438 2.31144C4.482 1.49544 6.066 1.08744 8.19 1.08744C8.694 1.08744 9.066 1.18344 9.306 1.37544C9.546 1.56744 9.666 1.83744 9.666 2.18544C9.666 2.53344 9.546 2.80344 9.306 2.99544C9.066 3.18744 8.694 3.28344 8.19 3.28344ZM10.71 13.9574V15.9014C10.71 16.5494 10.56 17.0234 10.26 17.3234C9.96 17.6354 9.54 17.7914 9 17.7914C8.46 17.7914 8.04 17.6354 7.74 17.3234C7.44 17.0234 7.29 16.5494 7.29 15.9014V13.9574H2.07C1.602 13.9574 1.26 13.8614 1.044 13.6694C0.828 13.4654 0.72 13.1954 0.72 12.8594C0.72 12.5234 0.828 12.2594 1.044 12.0674C1.272 11.8634 1.614 11.7614 2.07 11.7614H15.93C16.398 11.7614 16.74 11.8634 16.956 12.0674C17.172 12.2594 17.28 12.5234 17.28 12.8594C17.28 13.1954 17.166 13.4654 16.938 13.6694C16.722 13.8614 16.386 13.9574 15.93 13.9574H10.71ZM18.792 9.29544C18.792 7.69944 18.954 6.36144 19.278 5.28144C19.614 4.18944 20.022 3.31944 20.502 2.67144C20.994 2.01144 21.522 1.54344 22.086 1.26744C22.662 0.979438 23.196 0.835438 23.688 0.835438C24.144 0.835438 24.462 0.937438 24.642 1.14144C24.822 1.33344 24.912 1.55544 24.912 1.80744C24.912 2.10744 24.822 2.37144 24.642 2.59944C24.474 2.82744 24.27 3.04344 24.03 3.24744C23.706 3.52344 23.43 3.82344 23.202 4.14744C22.974 4.47144 22.788 4.86744 22.644 5.33544C22.5 5.80344 22.392 6.35544 22.32 6.99144C22.248 7.62744 22.212 8.39544 22.212 9.29544C22.212 10.5434 22.248 11.5574 22.32 12.3374C22.404 13.1174 22.518 13.7294 22.662 14.1734C22.818 14.6054 23.01 14.8994 23.238 15.0554C23.466 15.2234 23.73 15.3074 24.03 15.3074C24.33 15.3074 24.588 15.2234 24.804 15.0554C25.032 14.8994 25.224 14.6054 25.38 14.1734C25.536 13.7294 25.65 13.1174 25.722 12.3374C25.806 11.5574 25.848 10.5434 25.848 9.29544C25.848 7.98744 25.812 6.97344 25.74 6.25344C25.668 5.53344 25.572 5.01744 25.452 4.70544C25.332 4.39344 25.2 4.24344 25.056 4.25544C24.912 4.26744 24.762 4.34544 24.606 4.48944C24.606 4.24944 24.642 4.02144 24.714 3.80544C24.798 3.57744 24.918 3.37944 25.074 3.21144C25.23 3.03144 25.422 2.89344 25.65 2.79744C25.878 2.68944 26.142 2.63544 26.442 2.63544C26.838 2.63544 27.204 2.74944 27.54 2.97744C27.888 3.20544 28.188 3.58344 28.44 4.11144C28.692 4.62744 28.89 5.31144 29.034 6.16344C29.19 7.01544 29.268 8.05944 29.268 9.29544C29.268 12.1274 28.83 14.2034 27.954 15.5234C27.09 16.8434 25.782 17.5034 24.03 17.5034C22.278 17.5034 20.964 16.8434 20.088 15.5234C19.224 14.2034 18.792 12.1274 18.792 9.29544ZM33.84 8.08944H34.56C35.028 8.08944 35.37 8.19144 35.586 8.39544C35.802 8.58744 35.91 8.85144 35.91 9.18744C35.91 9.52344 35.796 9.79344 35.568 9.99744C35.352 10.1894 35.016 10.2854 34.56 10.2854H33.84V15.9014C33.84 16.5494 33.69 17.0234 33.39 17.3234C33.09 17.6354 32.67 17.7914 32.13 17.7914C31.59 17.7914 31.17 17.6354 30.87 17.3234C30.57 17.0234 30.42 16.5494 30.42 15.9014V3.03144C30.42 2.38344 30.57 1.90944 30.87 1.60944C31.17 1.29744 31.59 1.14144 32.13 1.14144C32.67 1.14144 33.09 1.29744 33.39 1.60944C33.69 1.90944 33.84 2.38344 33.84 3.03144V8.08944ZM43.74 2.16744H46.584C47.052 2.16744 47.394 2.26944 47.61 2.47344C47.826 2.66544 47.934 2.92944 47.934 3.26544C47.934 3.60144 47.82 3.87144 47.592 4.07544C47.376 4.26744 47.04 4.36344 46.584 4.36344H43.272C42.816 4.36344 42.396 4.41144 42.012 4.50744C41.628 4.60344 41.292 4.75944 41.004 4.97544C40.728 5.19144 40.512 5.47344 40.356 5.82144C40.2 6.15744 40.122 6.56544 40.122 7.04544C40.122 7.68144 40.272 8.16744 40.572 8.50344C40.884 8.83944 41.364 9.00744 42.012 9.00744C42.696 9.00744 43.182 8.86944 43.47 8.59344C43.758 8.31744 43.902 7.92144 43.902 7.40544C43.902 7.08144 43.836 6.81744 43.704 6.61344C43.572 6.39744 43.41 6.24744 43.218 6.16344C43.026 6.06744 42.822 6.03144 42.606 6.05544C42.39 6.07944 42.204 6.15744 42.048 6.28944C42.048 5.85744 42.246 5.50344 42.642 5.22744C43.038 4.93944 43.572 4.79544 44.244 4.79544C45.24 4.79544 45.984 5.05344 46.476 5.56944C46.98 6.08544 47.232 6.79344 47.232 7.69344C47.232 8.73744 46.8 9.58344 45.936 10.2314C45.072 10.8794 43.764 11.2034 42.012 11.2034C40.248 11.2034 38.934 10.8734 38.07 10.2134C37.218 9.55344 36.792 8.62944 36.792 7.44144C36.792 6.16944 37.35 5.14344 38.466 4.36344H37.476C37.008 4.36344 36.666 4.26744 36.45 4.07544C36.234 3.87144 36.126 3.60144 36.126 3.26544C36.126 2.92944 36.234 2.66544 36.45 2.47344C36.678 2.26944 37.02 2.16744 37.476 2.16744H40.32V1.60944C40.32 1.18944 40.452 0.859438 40.716 0.619438C40.992 0.379438 41.43 0.259438 42.03 0.259438C42.63 0.259438 43.062 0.379438 43.326 0.619438C43.602 0.859438 43.74 1.18944 43.74 1.60944V2.16744ZM41.22 13.9034C41.22 14.2274 41.274 14.4974 41.382 14.7134C41.49 14.9294 41.688 15.1034 41.976 15.2354C42.276 15.3674 42.678 15.4574 43.182 15.5054C43.698 15.5654 44.358 15.5954 45.162 15.5954C46.254 15.5954 47.136 15.5474 47.808 15.4514C48.492 15.3674 49.02 15.2414 49.392 15.0734C49.776 14.9054 50.034 14.7014 50.166 14.4614C50.298 14.2214 50.364 13.9454 50.364 13.6334C50.856 13.6334 51.252 13.7714 51.552 14.0474C51.852 14.3114 52.002 14.6414 52.002 15.0374C52.002 15.4574 51.864 15.8354 51.588 16.1714C51.312 16.5074 50.85 16.7954 50.202 17.0354C49.566 17.2754 48.726 17.4614 47.682 17.5934C46.65 17.7254 45.378 17.7914 43.866 17.7914C42.834 17.7914 41.934 17.7194 41.166 17.5754C40.41 17.4434 39.78 17.2274 39.276 16.9274C38.784 16.6274 38.412 16.2374 38.16 15.7574C37.92 15.2894 37.8 14.7194 37.8 14.0474V13.6874C37.8 13.0394 37.95 12.5654 38.25 12.2654C38.55 11.9534 38.97 11.7974 39.51 11.7974C40.05 11.7974 40.47 11.9534 40.77 12.2654C41.07 12.5654 41.22 13.0394 41.22 13.6874V13.9034ZM51.84 5.42544H52.56C53.028 5.42544 53.37 5.52744 53.586 5.73144C53.802 5.92344 53.91 6.18744 53.91 6.52344C53.91 6.85944 53.796 7.12944 53.568 7.33344C53.352 7.52544 53.016 7.62144 52.56 7.62144H51.84V10.3214C51.84 10.9694 51.69 11.4494 51.39 11.7614C51.09 12.0614 50.67 12.2114 50.13 12.2114C49.59 12.2114 49.17 12.0614 48.87 11.7614C48.57 11.4494 48.42 10.9694 48.42 10.3214V3.03144C48.42 2.38344 48.57 1.90944 48.87 1.60944C49.17 1.29744 49.59 1.14144 50.13 1.14144C50.67 1.14144 51.09 1.29744 51.39 1.60944C51.69 1.90944 51.84 2.38344 51.84 3.03144V5.42544ZM66.7716 4.36344V12.6254C66.7716 13.5254 66.9096 14.1674 67.1856 14.5514C67.4616 14.9474 67.8216 15.1454 68.2656 15.1454C68.5176 15.1454 68.7216 15.0854 68.8776 14.9654C69.0456 14.8574 69.1536 14.7014 69.2016 14.4974C69.2616 14.3054 69.2556 14.0834 69.1836 13.8314C69.1116 13.5674 68.9736 13.2914 68.7696 13.0034C69.5376 13.0034 70.0956 13.1954 70.4436 13.5794C70.7916 13.9634 70.9656 14.4554 70.9656 15.0554C70.9656 15.4034 70.8876 15.7154 70.7316 15.9914C70.5876 16.2794 70.3776 16.5194 70.1016 16.7114C69.8376 16.9154 69.5196 17.0714 69.1476 17.1794C68.7756 17.2874 68.3676 17.3414 67.9236 17.3414C67.3476 17.3414 66.8016 17.2334 66.2856 17.0174C65.7696 16.8014 65.3616 16.4714 65.0616 16.0274C64.7616 16.4714 64.3536 16.8014 63.8376 17.0174C63.3216 17.2334 62.7756 17.3414 62.1996 17.3414C61.7556 17.3414 61.3476 17.2874 60.9756 17.1794C60.6036 17.0714 60.2796 16.9154 60.0036 16.7114C59.7396 16.5194 59.5296 16.2794 59.3736 15.9914C59.2296 15.7154 59.1576 15.4034 59.1576 15.0554C59.1576 14.4554 59.3316 13.9634 59.6796 13.5794C60.0276 13.1954 60.5856 13.0034 61.3536 13.0034C61.1496 13.2914 61.0116 13.5674 60.9396 13.8314C60.8676 14.0834 60.8556 14.3054 60.9036 14.4974C60.9636 14.7014 61.0716 14.8574 61.2276 14.9654C61.3956 15.0854 61.6056 15.1454 61.8576 15.1454C62.3016 15.1454 62.6616 14.9474 62.9376 14.5514C63.2136 14.1674 63.3516 13.5254 63.3516 12.6254V4.36344H60.7776C60.3096 4.36344 59.9676 4.26744 59.7516 4.07544C59.5356 3.87144 59.4276 3.60144 59.4276 3.26544C59.4276 2.92944 59.5356 2.66544 59.7516 2.47344C59.9796 2.26944 60.3216 2.16744 60.7776 2.16744H63.3516V1.60944C63.3516 1.18944 63.4836 0.859438 63.7476 0.619438C64.0236 0.379438 64.4616 0.259438 65.0616 0.259438C65.6616 0.259438 66.0936 0.379438 66.3576 0.619438C66.6336 0.859438 66.7716 1.18944 66.7716 1.60944V2.16744H69.3456C69.8136 2.16744 70.1556 2.26944 70.3716 2.47344C70.5876 2.66544 70.6956 2.92944 70.6956 3.26544C70.6956 3.60144 70.5816 3.87144 70.3536 4.07544C70.1376 4.26744 69.8016 4.36344 69.3456 4.36344H66.7716ZM75.5916 15.9014C75.5916 16.5494 75.4416 17.0234 75.1416 17.3234C74.8416 17.6354 74.4216 17.7914 73.8816 17.7914C73.3416 17.7914 72.9216 17.6354 72.6216 17.3234C72.3216 17.0234 72.1716 16.5494 72.1716 15.9014V3.03144C72.1716 2.38344 72.3216 1.90944 72.6216 1.60944C72.9216 1.29744 73.3416 1.14144 73.8816 1.14144C74.4216 1.14144 74.8416 1.29744 75.1416 1.60944C75.4416 1.90944 75.5916 2.38344 75.5916 3.03144V15.9014ZM87.5436 3.64344V7.27944C87.5436 7.78344 87.5916 8.20944 87.6876 8.55744C87.7836 8.89344 87.9216 9.16344 88.1016 9.36744C88.2816 9.57144 88.4976 9.72144 88.7496 9.81744C89.0136 9.90144 89.3076 9.94344 89.6316 9.94344C89.9676 9.94344 90.2556 9.87144 90.4956 9.72744C90.7356 9.57144 90.9096 9.37344 91.0176 9.13344C91.1256 8.88144 91.1616 8.60544 91.1256 8.30544C91.0896 7.99344 90.9756 7.67544 90.7836 7.35144C91.1316 7.35144 91.4616 7.40544 91.7736 7.51344C92.0856 7.60944 92.3556 7.75344 92.5836 7.94544C92.8236 8.12544 93.0096 8.35344 93.1416 8.62944C93.2736 8.90544 93.3396 9.21744 93.3396 9.56544C93.3396 10.3214 93.0396 10.9394 92.4396 11.4194C91.8516 11.8994 90.9936 12.1394 89.8656 12.1394C88.9416 12.1394 88.1256 12.0014 87.4176 11.7254C86.7096 11.4494 86.1816 11.0114 85.8336 10.4114C85.4856 11.0114 84.9516 11.4494 84.2316 11.7254C83.5236 12.0014 82.7136 12.1394 81.8016 12.1394C80.6736 12.1394 79.8096 11.8994 79.2096 11.4194C78.6216 10.9394 78.3276 10.3214 78.3276 9.56544C78.3276 9.21744 78.3936 8.90544 78.5256 8.62944C78.6576 8.35344 78.8376 8.12544 79.0656 7.94544C79.3056 7.75344 79.5816 7.60944 79.8936 7.51344C80.2056 7.40544 80.5356 7.35144 80.8836 7.35144C80.6916 7.67544 80.5776 7.99344 80.5416 8.30544C80.5056 8.60544 80.5416 8.88144 80.6496 9.13344C80.7576 9.37344 80.9256 9.57144 81.1536 9.72744C81.3936 9.87144 81.6876 9.94344 82.0356 9.94344C82.3596 9.94344 82.6476 9.90144 82.8996 9.81744C83.1636 9.72144 83.3856 9.57144 83.5656 9.36744C83.7456 9.16344 83.8836 8.89344 83.9796 8.55744C84.0756 8.20944 84.1236 7.78344 84.1236 7.27944V3.64344H79.7676C79.2996 3.64344 78.9576 3.54744 78.7416 3.35544C78.5256 3.15144 78.4176 2.88144 78.4176 2.54544C78.4176 2.20944 78.5256 1.94544 78.7416 1.75344C78.9696 1.54944 79.3116 1.44744 79.7676 1.44744H91.9356C92.4036 1.44744 92.7456 1.54944 92.9616 1.75344C93.1776 1.94544 93.2856 2.20944 93.2856 2.54544C93.2856 2.88144 93.1716 3.15144 92.9436 3.35544C92.7276 3.54744 92.3916 3.64344 91.9356 3.64344H87.5436ZM78.9216 16.9274C78.4536 16.9274 78.1116 16.8254 77.8956 16.6214C77.6796 16.4294 77.5716 16.1654 77.5716 15.8294C77.5716 15.4934 77.6796 15.2234 77.8956 15.0194C78.1236 14.8274 78.4656 14.7314 78.9216 14.7314H92.7816C93.2496 14.7314 93.5916 14.8274 93.8076 15.0194C94.0236 15.2234 94.1316 15.4934 94.1316 15.8294C94.1316 16.1654 94.0176 16.4294 93.7896 16.6214C93.5736 16.8254 93.2376 16.9274 92.7816 16.9274H78.9216ZM106.246 17.7914C105.778 17.7914 105.4 17.6594 105.112 17.3954C104.836 17.1314 104.698 16.7114 104.698 16.1354V9.85344H102.808C102.64 11.4134 102.388 12.6794 102.052 13.6514C101.716 14.6234 101.32 15.3794 100.864 15.9194C100.408 16.4714 99.9036 16.8434 99.3516 17.0354C98.7996 17.2394 98.2176 17.3414 97.6056 17.3414C96.7656 17.3414 96.1116 17.1254 95.6436 16.6934C95.1876 16.2614 94.9596 15.6914 94.9596 14.9834C94.9596 14.4674 95.0916 14.0354 95.3556 13.6874C95.6316 13.3274 96.0216 13.0814 96.5256 12.9494C96.3336 13.2494 96.2136 13.5374 96.1656 13.8134C96.1176 14.0774 96.1296 14.3054 96.2016 14.4974C96.2736 14.7014 96.3996 14.8574 96.5796 14.9654C96.7716 15.0854 97.0116 15.1454 97.2996 15.1454C97.5996 15.1454 97.8816 15.0794 98.1456 14.9474C98.4096 14.8274 98.6496 14.5874 98.8656 14.2274C99.0816 13.8674 99.2736 13.3634 99.4416 12.7154C99.6096 12.0554 99.7416 11.1914 99.8376 10.1234H96.9396C96.4716 10.1234 96.1296 10.0274 95.9136 9.83544C95.6976 9.63144 95.5896 9.36144 95.5896 9.02544C95.5896 8.68944 95.6976 8.42544 95.9136 8.23344C96.1416 8.02944 96.4836 7.92744 96.9396 7.92744H99.9816C100.006 7.43544 100.024 6.91944 100.036 6.37944C100.048 5.83944 100.054 5.25744 100.054 4.63344V3.64344H96.5796C96.1116 3.64344 95.7696 3.54744 95.5536 3.35544C95.3376 3.15144 95.2296 2.88144 95.2296 2.54544C95.2296 2.20944 95.3376 1.94544 95.5536 1.75344C95.7816 1.54944 96.1236 1.44744 96.5796 1.44744H101.242C101.95 1.44744 102.424 1.57344 102.664 1.82544C102.916 2.06544 103.042 2.47944 103.042 3.06744V4.92144C103.042 5.42544 103.036 5.90544 103.024 6.36144C103.012 6.80544 102.994 7.23744 102.97 7.65744H104.698V2.79744C104.698 2.22144 104.836 1.80144 105.112 1.53744C105.4 1.27344 105.778 1.14144 106.246 1.14144C106.714 1.14144 107.086 1.27344 107.362 1.53744C107.65 1.80144 107.794 2.22144 107.794 2.79744V16.1354C107.794 16.7114 107.65 17.1314 107.362 17.3954C107.086 17.6594 106.714 17.7914 106.246 17.7914ZM110.224 17.7914C109.756 17.7914 109.378 17.6594 109.09 17.3954C108.814 17.1314 108.676 16.7114 108.676 16.1354V2.79744C108.676 2.22144 108.814 1.80144 109.09 1.53744C109.378 1.27344 109.756 1.14144 110.224 1.14144C110.692 1.14144 111.064 1.27344 111.34 1.53744C111.628 1.80144 111.772 2.22144 111.772 2.79744V16.1354C111.772 16.7114 111.628 17.1314 111.34 17.3954C111.064 17.6594 110.692 17.7914 110.224 17.7914ZM129.592 15.9014C129.592 16.5494 129.442 17.0234 129.142 17.3234C128.842 17.6354 128.422 17.7914 127.882 17.7914C127.414 17.7914 127.03 17.6714 126.73 17.4314C126.442 17.2034 126.262 16.8434 126.19 16.3514H116.2C115.732 16.3514 115.39 16.2494 115.174 16.0454C114.958 15.8534 114.85 15.5894 114.85 15.2534C114.85 14.9174 114.958 14.6474 115.174 14.4434C115.402 14.2514 115.744 14.1554 116.2 14.1554H126.172V13.1114H116.02C115.552 13.1114 115.21 13.0154 114.994 12.8234C114.778 12.6194 114.67 12.3494 114.67 12.0134C114.67 11.6774 114.778 11.4134 114.994 11.2214C115.222 11.0174 115.564 10.9154 116.02 10.9154H127.702C128.41 10.9154 128.902 11.0714 129.178 11.3834C129.454 11.6834 129.592 12.1574 129.592 12.8054V15.9014ZM113.824 5.60544C113.824 4.86144 113.962 4.19544 114.238 3.60744C114.514 3.01944 114.874 2.52144 115.318 2.11344C115.774 1.69344 116.284 1.37544 116.848 1.15944C117.412 0.943438 117.982 0.835438 118.558 0.835438C119.122 0.835438 119.506 0.949438 119.71 1.17744C119.926 1.39344 120.034 1.66344 120.034 1.98744C120.034 2.29944 119.95 2.55744 119.782 2.76144C119.626 2.96544 119.422 3.10944 119.17 3.19344C118.462 3.40944 117.964 3.72144 117.676 4.12944C117.388 4.52544 117.244 5.01744 117.244 5.60544C117.244 7.15344 117.886 7.92744 119.17 7.92744C119.77 7.92744 120.232 7.73544 120.556 7.35144C120.892 6.96744 121.06 6.39144 121.06 5.62344C121.06 5.27544 121.006 4.99344 120.898 4.77744C120.79 4.56144 120.664 4.41144 120.52 4.32744C120.376 4.24344 120.226 4.21944 120.07 4.25544C119.926 4.27944 119.812 4.35744 119.728 4.48944C119.728 4.26144 119.776 4.03944 119.872 3.82344C119.968 3.59544 120.1 3.39744 120.268 3.22944C120.448 3.04944 120.658 2.90544 120.898 2.79744C121.15 2.68944 121.432 2.63544 121.744 2.63544C122.176 2.63544 122.56 2.71944 122.896 2.88744C123.232 3.05544 123.514 3.27744 123.742 3.55344C123.982 3.82944 124.162 4.14744 124.282 4.50744C124.414 4.86744 124.48 5.23944 124.48 5.62344C124.48 6.23544 124.366 6.81744 124.138 7.36944C123.91 7.90944 123.574 8.38344 123.13 8.79144C122.686 9.19944 122.128 9.52344 121.456 9.76344C120.796 10.0034 120.028 10.1234 119.152 10.1234C118.276 10.1234 117.502 10.0034 116.83 9.76344C116.17 9.52344 115.618 9.19944 115.174 8.79144C114.73 8.38344 114.394 7.90344 114.166 7.35144C113.938 6.79944 113.824 6.21744 113.824 5.60544ZM129.592 8.44944C129.592 9.09744 129.442 9.57744 129.142 9.88944C128.842 10.1894 128.422 10.3394 127.882 10.3394C127.342 10.3394 126.922 10.1894 126.622 9.88944C126.322 9.57744 126.172 9.09744 126.172 8.44944V3.03144C126.172 2.38344 126.322 1.90944 126.622 1.60944C126.922 1.29744 127.342 1.14144 127.882 1.14144C128.422 1.14144 128.842 1.29744 129.142 1.60944C129.442 1.90944 129.592 2.38344 129.592 3.03144V8.44944Z" fill="#FFC700"/>
</svg>
