<svg width="51" height="51" viewBox="0 0 51 51" fill="none" xmlns="http://www.w3.org/2000/svg">
<mask id="mask0_364_1084" style="mask-type:alpha" maskUnits="userSpaceOnUse" x="0" y="0" width="51" height="51">
<circle cx="25.5" cy="25.5" r="25.5" fill="#F2F3F6"/>
</mask>
<g mask="url(#mask0_364_1084)">
<rect width="51" height="51" fill="#F2F3F6"/>
<g opacity="0.7">
<path d="M25.4996 29.9112C30.9084 29.9112 35.2932 25.4539 35.2932 19.9556C35.2932 14.4573 30.9084 10 25.4996 10C20.0908 10 15.7061 14.4573 15.7061 19.9556C15.7061 25.4539 20.0908 29.9112 25.4996 29.9112Z" fill="#8B95A1"/>
<path d="M42 42.5526C41.8079 42.7729 41.6117 42.9904 41.411 43.2032C37.4006 47.4584 31.7545 50.108 25.5 50.108C19.2455 50.108 13.5994 47.4589 9.58898 43.2032C9.38826 42.9904 9.19212 42.7735 9 42.5526C9 35.6582 12.9336 32 25.5 32C38.0664 32 42 36.2692 42 42.5526Z" fill="#8B95A1"/>
<path d="M9 51.108V42.108H42V51.108H9Z" fill="#8B95A1"/>
</g>
</g>
</svg>
